<svg id="Layer_1" data-name="Layer 1" xmlns="http://www.w3.org/2000/svg" viewBox="0 0 272.07 132.81"><defs><style>.cls-1{isolation:isolate;}.cls-2{fill:#83c689;}.cls-3{fill:#7799cf;}</style></defs><g id="Board" class="cls-1"><g class="cls-1"><path class="cls-2" d="M108.13,86.81a59.79,59.79,0,0,1-18.79,10.8,17.17,17.17,0,0,1,2.89,1.76,12.55,12.55,0,0,1,3.57,16.35c-3.34,6-10.71,10-16.7,12.91-6.38,3.08-13.47,4.44-20,1-1.09-.59-2.73-2.07-2.59-3.49s1.44-1.47,2.5-.9c5.15,2.77,11,1,16-1.3a48.21,48.21,0,0,0,13.29-8.69c2.84-2.8,6.66-9.57,2.14-12.65-3.33-2.27-8.29-2.2-12.15-2.17-1.7,0-5.59-4.61-3.1-5a58.15,58.15,0,0,0,28.47-13c4.09-3.47,17.25-17,5.91-19.34-7.92-1.64-17.21,1.45-24.62,4A91.1,91.1,0,0,0,62.51,78.11c-4,2.79-10.21,7.19-10.79,12.53-.33,3.11-5.32-.4-5.09-2.58.85-7.82,9.42-13.33,15.51-17A99.17,99.17,0,0,1,90.26,59.47c8-1.94,18.77-4,25.33,2.56C124.1,70.54,115.05,81,108.13,86.81ZM62.78,121.17a87.42,87.42,0,0,1,13.77-45.7c1.19-1.86,5.8,2.32,4.44,4.44a84.25,84.25,0,0,0-13.12,43.84C67.82,126.81,62.74,123.36,62.78,121.17Z"/><path class="cls-2" d="M113.74,113.86c-2.88,3.65-7.33,5.31-10.83,1.42-6.52-7.24,4.29-17.79,10.4-20.84,1.87-.94,5.44,3,4.06,4.61a3.73,3.73,0,0,1,.27,1A19,19,0,0,1,113.74,113.86Zm-1.35-11.43a20.15,20.15,0,0,0-2.6,2.7,19.42,19.42,0,0,0-2.44,3.87,15.17,15.17,0,0,0-.82,2c-.06.17-.12.71-.21,1.18a18.57,18.57,0,0,0,2.12-1.7,15.25,15.25,0,0,0,2.68-4A15.71,15.71,0,0,0,112.39,102.43Z"/><path class="cls-2" d="M163.34,103.62a89.65,89.65,0,0,1-14,10.91c-2.34,1.4-5.15,2.92-8,2.59a7.61,7.61,0,0,1-6.07-5.36,8.29,8.29,0,0,1,.21-5.06c-5.11,3.39-9.34,8.36-15.15,10.64-2,.79-4.7-2.44-4.28-4.29,1.27-5.7,4.37-11.59,9.14-15.15a8,8,0,0,1,11.37,1.42,16.5,16.5,0,0,1,1.6-.49,2.7,2.7,0,0,1,2.14.62,4.7,4.7,0,0,1,2.22,3,1.26,1.26,0,0,1-.07.87,20.42,20.42,0,0,1-1.21,4.37,29.9,29.9,0,0,0-1.06,4.35l.23,0c5.74-.69,15.88-8.27,19.48-11.54C161.78,98.78,165.09,102,163.34,103.62ZM133,101.1l-.08,0-1.11.18a7.43,7.43,0,0,0-2.81,1.68,23,23,0,0,0-3.44,3.74l-.11.15A64.4,64.4,0,0,1,133,101.1Z"/><path class="cls-2" d="M175.93,102.58a3.41,3.41,0,0,1-2.69-1.48c-1.28,0-4.08,2.11-4.78,2.65a31.39,31.39,0,0,0-3.89,3.58,36.48,36.48,0,0,0-6.51,9.6c-1.14,2.47-5.73-1.54-4.95-3.63,2.13-5.63,4.42-11.2,6.47-16.86.75-2,4.21.32,4.91,2.41,4.36-3.33,9-4.32,12.34,1.24C177.46,101.14,177.27,102.45,175.93,102.58Z"/><path class="cls-2" d="M222,61.81a1.42,1.42,0,0,1-.12.4c-9.74,19.24-19.46,38.55-26.4,59-.83,2.47-5.68-1.44-4.94-3.62,1.41-4.16,2.94-8.27,4.56-12.34a44.3,44.3,0,0,1-17.41,12.08c-2,.74-4.7-2.41-4.28-4.29,1.27-5.7,4.38-11.59,9.15-15.15a8,8,0,0,1,10.35.33c.35-.42.68-.85,1-1.27,9.22-11.72,16.3-25.12,23-38.37a1.07,1.07,0,0,1,.13-.21,1.27,1.27,0,0,1,1.08-.55h0a2.18,2.18,0,0,1,.6.09C220.39,58.39,222.25,60.41,222,61.81Zm-31.55,39.34-.28-.07-1.1.18a7.28,7.28,0,0,0-2.81,1.68,22.62,22.62,0,0,0-3.45,3.74,23,23,0,0,0-1.65,2.54A41.24,41.24,0,0,0,190.49,101.15Z"/></g></g><g id="Splendid" class="cls-1"><g class="cls-1"><path class="cls-3" d="M26.22,24.48A42.28,42.28,0,0,1,33.55,30,10.55,10.55,0,0,1,37,38.08a13.24,13.24,0,0,1-5,11,19.86,19.86,0,0,1-12.7,4,22.22,22.22,0,0,1-8-1.29A43.08,43.08,0,0,0,3.58,49.7q-.06-2.39-.06-6.34t-.2-7c0-.13.19-.25.56-.36a3.42,3.42,0,0,1,1-.16,3,3,0,0,1,.89.13c.28.09.45.22.49.39a18.48,18.48,0,0,0,5.25,9.71q4,3.82,7.76,3.82c2.55,0,4.38-.56,5.51-1.68a6.2,6.2,0,0,0,1.68-4.59,7.18,7.18,0,0,0-3.43-6q-3.43-2.44-7.39-4.75a41.16,41.16,0,0,1-7.46-5.48A10.18,10.18,0,0,1,4.71,19.6,13.37,13.37,0,0,1,9.36,9.27Q14,5.09,22.13,5.08A19.79,19.79,0,0,1,28.4,6a45.57,45.57,0,0,0,5.68,1.49q.06,2.37.23,5.94t.43,5.87c0,.13-.19.25-.56.36a3.51,3.51,0,0,1-.9.17,3.71,3.71,0,0,1-.92-.13.85.85,0,0,1-.59-.4,20,20,0,0,0-3.7-8.09,7.55,7.55,0,0,0-6-2.93A6.92,6.92,0,0,0,17.18,9.9a5.41,5.41,0,0,0-1.78,4.16q0,3.3,3.33,5.64T26.22,24.48Z"/><path class="cls-3" d="M78.63,36.36a16.86,16.86,0,0,1-4.46,11.72Q69.72,53,61.93,53a14,14,0,0,1-3.53-.4,11.7,11.7,0,0,1-2.68-1.06v9.11c0,2.11.36,3.52,1.06,4.23s2,1.14,4,1.32c.13,0,.25.18.36.56a3.37,3.37,0,0,1,.17.89,3.17,3.17,0,0,1-.17.92c-.11.35-.23.53-.36.53-1.41,0-3.15,0-5.21-.17s-3.88-.16-5.42-.16-3.26,0-5.18.16-3.53.17-4.85.17c-.13,0-.25-.17-.36-.5a3,3,0,0,1-.17-.95,3.06,3.06,0,0,1,.17-.86c.11-.35.23-.55.36-.59,1.94-.23,3.16-.65,3.66-1.29s.76-2.06.76-4.26V33.23a6.47,6.47,0,0,0-.62-3.43c-.42-.57-1.42-.95-3-1.12q-.19-.08-.36-.57a2.66,2.66,0,0,1-.16-.82,2.71,2.71,0,0,1,.16-.83c.11-.33.23-.49.36-.49A64.13,64.13,0,0,0,47,23.9q3.93-1.47,5.78-2.39a3.93,3.93,0,0,1,.66-.33,2.08,2.08,0,0,1,.79-.19,1.9,1.9,0,0,1,1.16.29c.24.2.34.39.29.56L55.46,27A10.94,10.94,0,0,1,59,23.2a10.81,10.81,0,0,1,6.3-1.69,12,12,0,0,1,9.77,4.29A16,16,0,0,1,78.63,36.36ZM65.82,46.13a16.11,16.11,0,0,0,.69-3.89c.11-1.54.17-3.32.17-5.35,0-3.56-.51-6.14-1.52-7.72a4.56,4.56,0,0,0-4-2.38,5,5,0,0,0-3.07.8,11.18,11.18,0,0,0-2.41,3.3v14a5.36,5.36,0,0,0,1.19,3.66,4.68,4.68,0,0,0,3.7,1.35,4.88,4.88,0,0,0,5.21-3.76Z"/><path class="cls-3" d="M100.27,50.59a3.12,3.12,0,0,1-.16.92c-.11.35-.23.53-.36.53-1.37,0-3.07-.07-5.12-.22s-3.84-.21-5.38-.21-3.14.07-5,.21-3.36.22-4.69.22c-.13,0-.25-.18-.36-.53a3.12,3.12,0,0,1-.16-.92,3,3,0,0,1,.16-.86q.16-.52.36-.6a5.51,5.51,0,0,0,3.47-1.32c.68-.71,1-2.13,1-4.25V16.3c0-1.76-.33-2.92-1-3.46a6.65,6.65,0,0,0-3.5-1.09q-.19-.08-.36-.57a2.66,2.66,0,0,1-.16-.82,2.66,2.66,0,0,1,.16-.82c.11-.33.23-.5.36-.5a53.93,53.93,0,0,0,7-2.15q3.8-1.41,6.3-2.6A3.93,3.93,0,0,1,93.54,4a2.12,2.12,0,0,1,.79-.2,1.81,1.81,0,0,1,1.16.3c.24.2.34.38.29.56q-.12,2.31-.33,5.67c-.13,2.25-.19,4.07-.19,5.48V43.56c0,2.08.35,3.49,1,4.25a5.16,5.16,0,0,0,3.44,1.32q.19,0,.36.57A3.29,3.29,0,0,1,100.27,50.59Z"/><path class="cls-3" d="M131.89,34.32a.86.86,0,0,1-.33.72,1.43,1.43,0,0,1-.93.27H112.42a8,8,0,0,0-.07,1.22V38c0,3.69.6,6.27,1.82,7.72a6.42,6.42,0,0,0,5.24,2.18,14.63,14.63,0,0,0,5.35-1.19,9.6,9.6,0,0,0,4.29-3c0-.09.17-.06.39.1l.6.43a4.46,4.46,0,0,1,.56.69,1.32,1.32,0,0,1,.23.69,1.24,1.24,0,0,1,0,.27.56.56,0,0,1-.17.26,19,19,0,0,1-4.88,4.62A14.89,14.89,0,0,1,117.1,53a16.62,16.62,0,0,1-11.88-4.56,14.33,14.33,0,0,1-4.82-10.76A15.7,15.7,0,0,1,105,26.1q4.59-4.59,12.11-4.59,6.87,0,10.83,3.7A12,12,0,0,1,131.89,34.32Zm-11-4.95A6.16,6.16,0,0,0,120,26a3,3,0,0,0-2.67-1.38,3.43,3.43,0,0,0-3.24,2.11,16,16,0,0,0-1.38,5.54l5.41-.13a3.81,3.81,0,0,0,2.11-.56C120.71,31.25,120.93,30.51,120.93,29.37Z"/><path class="cls-3" d="M174.39,50.65a3.17,3.17,0,0,1-.17.93c-.11.35-.23.52-.36.52-1.36,0-2.93-.07-4.72-.21s-3.44-.21-5-.21-3,.07-4.42.21-2.84.21-4.16.21c-.13,0-.25-.17-.36-.52a3.17,3.17,0,0,1-.17-.93,2.89,2.89,0,0,1,.17-.89c.11-.33.23-.51.36-.56a2.64,2.64,0,0,0,2-1.29,9.33,9.33,0,0,0,.66-4.29V33.13a10.43,10.43,0,0,0-.76-4.69c-.51-.92-1.53-1.38-3.07-1.38a4,4,0,0,0-3.1,1.28,14.78,14.78,0,0,0-2.38,4.13V43.62a10.08,10.08,0,0,0,.63,4.19,2.34,2.34,0,0,0,2,1.39c.13,0,.25.17.36.5a3,3,0,0,1,.17.95,3,3,0,0,1-.17,1c-.11.33-.23.49-.36.49-1.37,0-2.75-.07-4.16-.21s-2.88-.21-4.42-.21-3.2.07-5,.21-3.34.21-4.66.21c-.13,0-.25-.16-.36-.49a3,3,0,0,1-.17-1,2.72,2.72,0,0,1,.17-.92c.11-.31.23-.48.36-.53,1.94-.26,3.16-.72,3.67-1.36s.75-2.05.75-4.22V33.24c0-1.85-.19-3-.59-3.54s-1.41-.85-3-1c-.13,0-.25-.18-.36-.53a3,3,0,0,1-.16-.86,2.71,2.71,0,0,1,.16-.83c.11-.33.23-.49.36-.49a65.07,65.07,0,0,0,6.18-2.07c2.61-1,4.54-1.78,5.77-2.39a3.93,3.93,0,0,1,.66-.33,2.08,2.08,0,0,1,.79-.19,1.9,1.9,0,0,1,1.16.29c.24.2.34.39.29.56l-.26,6.34a10,10,0,0,1,4.19-4.95,11.66,11.66,0,0,1,6-1.72,9.82,9.82,0,0,1,7.72,3.11,10.11,10.11,0,0,1,2.77,6.93V43.62c0,2.13.27,3.53.8,4.22s1.76,1.14,3.69,1.36c.13,0,.25.19.36.56A3.45,3.45,0,0,1,174.39,50.65Z"/><path class="cls-3" d="M211.94,48.31a2.59,2.59,0,0,1-.16.86c-.11.31-.23.46-.37.46a36.69,36.69,0,0,0-5.8,1.32,52.71,52.71,0,0,0-5.88,2l-.66.23a2.67,2.67,0,0,1-.92.17,1.13,1.13,0,0,1-.83-.3.87.87,0,0,1-.29-.56l-.2-4a9.4,9.4,0,0,1-3.43,3.37,10.37,10.37,0,0,1-5.22,1.25q-6.74,0-10.62-4.42a16,16,0,0,1-3.9-11A16.21,16.21,0,0,1,178,26q4.29-4.53,11.82-4.53a9.89,9.89,0,0,1,4.09.76,13.19,13.19,0,0,1,2.71,1.62V16.37c0-1.72-.33-2.86-1-3.44a6.53,6.53,0,0,0-3.49-1.12c-.14,0-.26-.16-.37-.49a2.71,2.71,0,0,1-.16-.83,3,3,0,0,1,.16-.86c.11-.35.23-.52.37-.52a53.26,53.26,0,0,0,7.19-2.22c2.77-1,4.8-1.85,6.07-2.47a3.93,3.93,0,0,1,.66-.33,2.12,2.12,0,0,1,.79-.2,2,2,0,0,1,1.16.27.73.73,0,0,1,.36.59q-.19,2.51-.36,5.81c-.11,2.2-.17,4-.17,5.34V42.77a4.76,4.76,0,0,0,.73,3.13,4.84,4.84,0,0,0,2.9,1c.14,0,.26.18.37.53A3,3,0,0,1,211.94,48.31Zm-15.37-4.09V29.43a3.92,3.92,0,0,0-1.36-3,5.69,5.69,0,0,0-3.93-1.22,4.94,4.94,0,0,0-4,2.18q-1.68,2.17-1.68,10.29c0,4,.52,6.81,1.55,8.42A4.47,4.47,0,0,0,191,48.51a5.23,5.23,0,0,0,3.17-1.06A8,8,0,0,0,196.57,44.22Z"/><path class="cls-3" d="M232.53,50.55a3.13,3.13,0,0,1-.16.93c-.11.35-.23.53-.36.53-1.37,0-3.07-.06-5.12-.17s-3.84-.16-5.38-.16-3.14,0-4.95.16-3.36.17-4.68.17c-.14,0-.26-.18-.37-.53a3.13,3.13,0,0,1-.16-.93,2.93,2.93,0,0,1,.16-.85c.11-.36.23-.55.37-.6a5.5,5.5,0,0,0,3.46-1.32c.68-.7,1-2.11,1-4.22V33.63c0-1.76-.34-2.91-1-3.43a7,7,0,0,0-3.46-1.06c-.14-.05-.26-.23-.37-.56a2.71,2.71,0,0,1-.16-.83,3,3,0,0,1,.16-.86c.11-.35.23-.52.37-.52A49.09,49.09,0,0,0,219,24.23q4-1.47,6.14-2.52a4.38,4.38,0,0,1,.66-.33,2.12,2.12,0,0,1,.79-.2,2,2,0,0,1,1.16.27.58.58,0,0,1,.3.59l-.33,5.61c-.14,2.2-.2,4.05-.2,5.55V43.56c0,2.07.35,3.47,1,4.22A5.16,5.16,0,0,0,232,49.1c.13,0,.25.19.36.56A3.35,3.35,0,0,1,232.53,50.55Zm-4.95-40.06a5.84,5.84,0,0,1-1.78,4.29,5.89,5.89,0,0,1-8.44,0,5.85,5.85,0,0,1-1.79-4.29,5.76,5.76,0,0,1,1.79-4.22,5.89,5.89,0,0,1,8.44,0A5.75,5.75,0,0,1,227.58,10.49Z"/><path class="cls-3" d="M270.68,48.31a2.59,2.59,0,0,1-.16.86c-.11.31-.23.46-.37.46a36.69,36.69,0,0,0-5.8,1.32,52.71,52.71,0,0,0-5.88,2l-.66.23a2.72,2.72,0,0,1-.92.17,1.13,1.13,0,0,1-.83-.3.83.83,0,0,1-.29-.56l-.2-4a9.4,9.4,0,0,1-3.43,3.37,10.37,10.37,0,0,1-5.22,1.25q-6.73,0-10.62-4.42a16,16,0,0,1-3.9-11A16.21,16.21,0,0,1,236.69,26q4.29-4.53,11.82-4.53a9.89,9.89,0,0,1,4.09.76,12.82,12.82,0,0,1,2.7,1.62V16.37c0-1.72-.33-2.86-1-3.44a6.53,6.53,0,0,0-3.49-1.12c-.14,0-.26-.16-.37-.49a2.71,2.71,0,0,1-.16-.83,3,3,0,0,1,.16-.86c.11-.35.23-.52.37-.52A53.26,53.26,0,0,0,258,6.89c2.77-1,4.8-1.85,6.07-2.47a3.93,3.93,0,0,1,.66-.33,2.12,2.12,0,0,1,.79-.2,2,2,0,0,1,1.16.27.73.73,0,0,1,.36.59q-.19,2.51-.36,5.81c-.11,2.2-.17,4-.17,5.34V42.77a4.76,4.76,0,0,0,.73,3.13,4.84,4.84,0,0,0,2.9,1c.14,0,.26.18.37.53A3,3,0,0,1,270.68,48.31ZM255.3,44.22V29.43a3.91,3.91,0,0,0-1.35-3A5.69,5.69,0,0,0,250,25.21a4.94,4.94,0,0,0-4,2.18q-1.68,2.17-1.68,10.29c0,4,.51,6.81,1.55,8.42a4.47,4.47,0,0,0,3.79,2.41,5.23,5.23,0,0,0,3.17-1.06A7.9,7.9,0,0,0,255.3,44.22Z"/></g></g></svg>