<svg xmlns="http://www.w3.org/2000/svg" width="45" height="45" viewBox="0 0 45 45">
  <g id="Group_97" data-name="Group 97" transform="translate(-5 -6)">
    <path id="_75" data-name="75" d="M7.424,23.261a2.274,2.274,0,0,0-.707,1.662,2.161,2.161,0,0,0,.707,1.626,2.334,2.334,0,0,0,1.662.672,2.215,2.215,0,0,0,1.626-.672,2.257,2.257,0,0,0,.672-1.662h0a2.293,2.293,0,0,0-.672-1.626,2.161,2.161,0,0,0-1.626-.707A2.274,2.274,0,0,0,7.424,23.261Zm5.727-7.141Q18.1,13.433,18.1,8.343a7.515,7.515,0,0,0-2.651-6.186A9.817,9.817,0,0,0,9.05,0,9.23,9.23,0,0,0,2.757,2.439,8.462,8.462,0,0,0,0,9.121a2.174,2.174,0,0,0,.672,1.591,2.215,2.215,0,0,0,1.626.672,2.1,2.1,0,0,0,1.591-.672,2.235,2.235,0,0,0,.636-1.591A4.262,4.262,0,0,1,5.9,5.727a4.653,4.653,0,0,1,3.146-1.2q4.525,0,4.525,3.818a4.267,4.267,0,0,1-2.545,3.818,10.256,10.256,0,0,0-2.9,2.439,5.3,5.3,0,0,0-1.343,3.5,2.174,2.174,0,0,0,.672,1.591,2.215,2.215,0,0,0,1.626.672,2.1,2.1,0,0,0,1.591-.672,2.235,2.235,0,0,0,.636-1.591,1.774,1.774,0,0,1,.6-.99A5.187,5.187,0,0,1,13.151,16.12Z" transform="translate(18.95 14.39)" fill="#979797"/>
    <g id="Path_9" data-name="Path 9" transform="translate(5 6)" fill="none">
      <path d="M22.5,0A22.5,22.5,0,1,1,0,22.5,22.5,22.5,0,0,1,22.5,0Z" stroke="none"/>
      <path d="M 22.5 1 C 19.59708023071289 1 16.78152084350586 1.568321228027344 14.13154029846191 2.689170837402344 C 11.57144927978516 3.771991729736328 9.272048950195312 5.322360992431641 7.297199249267578 7.297199249267578 C 5.322360992431641 9.272048950195312 3.771991729736328 11.57144927978516 2.689170837402344 14.13154029846191 C 1.568321228027344 16.78152084350586 1 19.59708023071289 1 22.5 C 1 25.40291976928711 1.568321228027344 28.21847915649414 2.689170837402344 30.86845970153809 C 3.771991729736328 33.42855072021484 5.322360992431641 35.72795104980469 7.297199249267578 37.70280075073242 C 9.272048950195312 39.67763900756836 11.57144927978516 41.22800827026367 14.13154029846191 42.31082916259766 C 16.78152084350586 43.43167877197266 19.59708023071289 44 22.5 44 C 25.40291976928711 44 28.21847915649414 43.43167877197266 30.86845970153809 42.31082916259766 C 33.42855072021484 41.22800827026367 35.72795104980469 39.67763900756836 37.70280075073242 37.70280075073242 C 39.67763900756836 35.72795104980469 41.22800827026367 33.42855072021484 42.31082916259766 30.86845970153809 C 43.43167877197266 28.21847915649414 44 25.40291976928711 44 22.5 C 44 19.59708023071289 43.43167877197266 16.78152084350586 42.31082916259766 14.13154029846191 C 41.22800827026367 11.57144927978516 39.67763900756836 9.272048950195312 37.70280075073242 7.297199249267578 C 35.72795104980469 5.322360992431641 33.42855072021484 3.771991729736328 30.86845970153809 2.689170837402344 C 28.21847915649414 1.568321228027344 25.40291976928711 1 22.5 1 M 22.5 0 C 34.92641067504883 0 45 10.07358932495117 45 22.5 C 45 34.92641067504883 34.92641067504883 45 22.5 45 C 10.07358932495117 45 0 34.92641067504883 0 22.5 C 0 10.07358932495117 10.07358932495117 0 22.5 0 Z" stroke="none" fill="#979797"/>
    </g>
  </g>
</svg>
