<svg xmlns="http://www.w3.org/2000/svg" width="34.001" height="39.075" viewBox="0 0 34.001 39.075">
  <g id="Group_96" data-name="Group 96" transform="translate(-10.999 -8.971)">
    <g id="Group_4" data-name="Group 4" transform="translate(36.161 45.935) rotate(180)">
      <path id="Path_1" data-name="Path 1" d="M0,22.72V0" transform="translate(8.236 0.492)" fill="none" stroke="#b48052" stroke-linecap="round" stroke-width="3"/>
      <path id="Path_2" data-name="Path 2" d="M0,6.668,8.2,0" transform="translate(0 0)" fill="none" stroke="#b48052" stroke-linecap="round" stroke-width="3"/>
      <path id="Path_3" data-name="Path 3" d="M8.2,6.668,0,0" transform="translate(8.196 0)" fill="none" stroke="#b48052" stroke-linecap="round" stroke-width="3"/>
    </g>
    <path id="layers2" d="M16,20.813a.9.9,0,0,0,.25-.036.65.65,0,0,0,.219-.108l15-9.25A1,1,0,0,0,31.861,11a1.334,1.334,0,0,0,0-1.192,1,1,0,0,0-.391-.416l-15-9.25a.832.832,0,0,0-.938,0l-15,9.25a1,1,0,0,0-.391.416A1.334,1.334,0,0,0,.141,11a1,1,0,0,0,.391.416l15,9.25A1.547,1.547,0,0,0,16,20.813Z" transform="translate(11.999 9.971)" fill="#b48052" stroke="#fff" stroke-width="2"/>
  </g>
</svg>
