<svg xmlns="http://www.w3.org/2000/svg" width="33.417" height="33.417" viewBox="0 0 33.417 33.417">
  <path id="f13e" d="M33.417,20.016H29.588a18.847,18.847,0,0,1-1.479,3.394l2.785,2.785-4.7,4.7-2.872-2.785a15.644,15.644,0,0,1-3.307,1.305v4H13.4v-4a16.834,16.834,0,0,1-3.307-1.305L7.223,30.894l-4.7-4.7L5.309,23.41a18.847,18.847,0,0,1-1.479-3.394H0V13.4H3.742A17.55,17.55,0,0,1,5.134,9.834L2.524,7.223l4.7-4.7L9.747,5.047A15.438,15.438,0,0,1,13.4,3.568V0h6.614V3.568a15.438,15.438,0,0,1,3.655,1.479l2.524-2.524,4.7,4.7L28.283,9.834A14.22,14.22,0,0,1,29.675,13.4h3.742Zm-20.016,0a4.623,4.623,0,0,0,6.614,0,4.623,4.623,0,0,0,0-6.614,4.623,4.623,0,0,0-6.614,0,4.623,4.623,0,0,0,0,6.614Zm20.016,13.4" fill="#b48052"/>
</svg>
