<svg xmlns="http://www.w3.org/2000/svg" width="28.181" height="34.443" viewBox="0 0 28.181 34.443">
  <path id="trash2" d="M2.168,30.138a4.134,4.134,0,0,0,1.27,3.044A4.192,4.192,0,0,0,6.5,34.443H21.678a4.192,4.192,0,0,0,3.065-1.261,4.134,4.134,0,0,0,1.27-3.044V12.916H2.168ZM18.426,16.145a1.031,1.031,0,0,1,.322-.757,1.069,1.069,0,0,1,1.524,0,1.031,1.031,0,0,1,.322.757V29.061a1.031,1.031,0,0,1-.322.757,1.069,1.069,0,0,1-1.524,0,1.031,1.031,0,0,1-.322-.757Zm-5.42,0a1.031,1.031,0,0,1,.322-.757,1.069,1.069,0,0,1,1.524,0,1.031,1.031,0,0,1,.322.757V29.061a1.031,1.031,0,0,1-.322.757,1.069,1.069,0,0,1-1.524,0,1.031,1.031,0,0,1-.322-.757Zm-5.42,0a1.031,1.031,0,0,1,.322-.757,1.069,1.069,0,0,1,1.524,0,1.031,1.031,0,0,1,.322.757V29.061a1.031,1.031,0,0,1-.322.757,1.069,1.069,0,0,1-1.524,0,1.031,1.031,0,0,1-.322-.757ZM26.014,4.305h-6.5V2.153A2.062,2.062,0,0,0,18.867.639,2.091,2.091,0,0,0,17.342,0h-6.5A2.091,2.091,0,0,0,9.315.639a2.062,2.062,0,0,0-.644,1.514V4.305h-6.5a2.091,2.091,0,0,0-1.524.639A2.062,2.062,0,0,0,0,6.458V8.611a2.089,2.089,0,0,0,.627,1.514,2.074,2.074,0,0,0,1.541.639H26.014a2.161,2.161,0,0,0,2.168-2.153V6.458a2.062,2.062,0,0,0-.644-1.514A2.091,2.091,0,0,0,26.014,4.305Zm-8.671,0h-6.5V3.229a1.031,1.031,0,0,1,.322-.757,1.045,1.045,0,0,1,.762-.32h4.336a1.045,1.045,0,0,1,.762.32,1.031,1.031,0,0,1,.322.757Z" fill="#b48052"/>
</svg>
