<svg xmlns="http://www.w3.org/2000/svg" width="30.285" height="30.285" viewBox="0 0 30.285 30.285">
  <path id="e147" d="M29.749,27.662l-7.273-7.273a12.02,12.02,0,0,0,2.713-8.5,12.186,12.186,0,0,0-3.666-8.2A12.147,12.147,0,0,0,12.609,0,12.147,12.147,0,0,0,3.7,3.7,12.147,12.147,0,0,0,0,12.609a12.147,12.147,0,0,0,3.7,8.913,12.186,12.186,0,0,0,8.2,3.666,12.02,12.02,0,0,0,8.5-2.713l7.273,7.273a1.552,1.552,0,0,0,1.043.417,1.492,1.492,0,0,0,1.043-2.5ZM22.774,12.639a9.757,9.757,0,0,1-2.981,7.154,9.791,9.791,0,0,1-7.184,2.981,9.791,9.791,0,0,1-7.184-2.981,9.791,9.791,0,0,1-2.981-7.184A9.791,9.791,0,0,1,5.425,5.425a9.826,9.826,0,0,1,7.214-2.981,9.631,9.631,0,0,1,7.154,2.981A9.826,9.826,0,0,1,22.774,12.639Zm-3.637-1.252H14.308V6.558a1.481,1.481,0,0,0-.417-1.043,1.4,1.4,0,0,0-1.073-.447,1.335,1.335,0,0,0-1.013.447,1.481,1.481,0,0,0-.417,1.043v4.829H6.558a1.481,1.481,0,0,0-1.043.417,1.335,1.335,0,0,0-.447,1.013,1.4,1.4,0,0,0,.447,1.073,1.481,1.481,0,0,0,1.043.417h4.829v4.829a1.425,1.425,0,0,0,1.431,1.431,1.453,1.453,0,0,0,1.073-.417,1.38,1.38,0,0,0,.417-1.013V14.308h4.829a1.38,1.38,0,0,0,1.013-.417,1.453,1.453,0,0,0,.417-1.073,1.425,1.425,0,0,0-1.431-1.431Zm11.148,18.9" fill="#b48052"/>
</svg>
