<svg id="Group_99" data-name="Group 99" xmlns="http://www.w3.org/2000/svg" width="31.032" height="31.032" viewBox="0 0 31.032 31.032">
  <path id="e146" d="M30.482,28.344,23.03,20.892a12.316,12.316,0,0,0,2.779-8.7,12.487,12.487,0,0,0-3.757-8.4A12.446,12.446,0,0,0,12.92,0,12.446,12.446,0,0,0,3.787,3.787,12.446,12.446,0,0,0,0,12.92a12.446,12.446,0,0,0,3.787,9.132,12.487,12.487,0,0,0,8.4,3.757,12.316,12.316,0,0,0,8.7-2.779l7.453,7.453a1.59,1.59,0,0,0,1.069.428,1.529,1.529,0,0,0,1.069-2.566ZM23.335,12.95a10,10,0,0,1-3.054,7.33,10.033,10.033,0,0,1-7.361,3.054,10.033,10.033,0,0,1-7.361-3.054A10.033,10.033,0,0,1,2.5,12.92,10.033,10.033,0,0,1,5.559,5.559,10.068,10.068,0,0,1,12.95,2.5a9.868,9.868,0,0,1,7.33,3.054A10.068,10.068,0,0,1,23.335,12.95Zm-3.726-1.283H6.72a1.517,1.517,0,0,0-1.069.428,1.368,1.368,0,0,0-.458,1.038,1.437,1.437,0,0,0,.458,1.1,1.517,1.517,0,0,0,1.069.428H19.609a1.414,1.414,0,0,0,1.038-.428,1.488,1.488,0,0,0,.428-1.1,1.46,1.46,0,0,0-1.466-1.466ZM31.032,31.032" fill="#b48052"/>
</svg>
