<?xml version="1.0" standalone="no"?>
<!DOCTYPE svg PUBLIC "-//W3C//DTD SVG 1.1//EN" "http://www.w3.org/Graphics/SVG/1.1/DTD/svg11.dtd" >
<svg xmlns="http://www.w3.org/2000/svg" xmlns:xlink="http://www.w3.org/1999/xlink" version="1.1">
<metadata>
Created by FontForge 20201107 at Fri Jan 19 23:26:10 2018
 By Jimmy Wärting
(c) 1992-2007 Apple Inc.
</metadata>
<defs>
<font id="HoeflerText-Black" horiz-adv-x="800" >
  <font-face 
    font-family="Hoefler Text"
    font-weight="700"
    font-stretch="normal"
    units-per-em="2000"
    panose-1="2 3 8 2 6 7 6 2 2 3"
    ascent="1600"
    descent="-400"
    x-height="884"
    cap-height="1380"
    bbox="-1000 -1164.44 3154 1991"
    underline-thickness="0"
    underline-position="0"
    unicode-range="U+0008-FE60"
  />
<missing-glyph horiz-adv-x="1600" 
d="M100 0v1600h1400v-1600h-1400zM1400 100v1400h-1200v-1400h1200z" />
    <glyph glyph-name="fi" unicode="fi" horiz-adv-x="1322" 
d="M1338 34q0 -12 -5 -28t-11 -16q-62 0 -155 5t-163 5t-126 -5t-118 -5q-6 0 -11 16t-5 28q0 10 5 26t11 18q44 6 66 32t22 112v390q0 62 -25 83t-87 21h-198v-494q0 -76 24 -107t80 -37q6 0 11 -17t5 -27q0 -12 -5 -28t-11 -16q-62 0 -133 5t-141 5q-68 0 -156 -5t-148 -5
q-6 0 -11 15t-5 29q0 10 5 26t11 18q88 10 112 39t24 129v462q0 10 -6 19t-18 9h-112q-8 0 -14 17t-6 25t6 26t12 20q32 8 85 24t53 32q0 208 189 386t425 178q154 0 254 -70t100 -156q0 -68 -39 -116t-129 -48q-60 0 -91 38t-53 82q-20 40 -50 81t-70 41q-88 0 -141 -86
t-53 -236v-126h162q78 0 222 15t188 45q12 8 24 11t20 3q12 0 28 -4t16 -10q-6 -78 -11 -183t-5 -167v-312q0 -94 32 -128t104 -40q6 0 11 -17t5 -27z" />
    <glyph glyph-name="fl" unicode="fl" horiz-adv-x="1324" 
d="M1338 34q0 -12 -5 -28t-11 -16q-62 0 -155 5t-163 5t-126 -5t-118 -5q-6 0 -11 16t-5 28q0 10 5 26t11 18q44 6 66 32t22 112v494h-310v-494q0 -76 24 -107t80 -37q6 0 11 -17t5 -27q0 -12 -5 -28t-11 -16q-62 0 -133 5t-141 5q-68 0 -156 -5t-148 -5q-6 0 -11 15t-5 29
q0 10 5 26t11 18q88 10 112 39t24 129v462q0 10 -6 19t-18 9h-112q-8 0 -14 17t-6 25t6 26t12 20q32 8 85 24t53 32q0 208 189 386t425 178q64 0 108 -13t90 -41q22 10 55 24t47 22q6 4 20 10t24 6q24 0 35 -9t9 -17q-4 -70 -10 -172t-6 -166v-842q0 -94 32 -128t104 -40
q6 0 11 -17t5 -27zM848 848v280q0 76 -45 122t-115 46q-76 0 -111 -59t-35 -183v-206h306z" />
    <glyph glyph-name="f_b" unicode="fb" horiz-adv-x="1942" 
d="M1882 456q0 -90 -35 -181t-103 -159q-74 -74 -169 -116t-239 -42q-126 0 -181 34t-133 34q-38 0 -62 -15t-38 -47q-4 -6 -19 -10t-23 -4q-10 0 -25 5t-15 11q2 26 5 76t3 126v546h-308v-492q0 -76 23 -107t79 -37q6 0 11 -17t5 -27q0 -14 -5 -29t-11 -15q-62 0 -132 5
t-140 5t-157 -5t-149 -5q-6 0 -11 16t-5 28q0 10 5 26t11 18q90 10 113 39t23 129v462q0 10 -6 19t-18 9h-110q-8 0 -14 17t-6 25t6 26t12 20q32 8 84 24t52 32q0 208 190 386t426 178q64 0 108 -13t90 -41q26 12 54 24t46 22q6 4 20 10t24 6q26 0 36 -9t10 -17
q-6 -78 -11 -178t-5 -162v-282q36 50 102 80t152 30q180 0 310 -113t130 -345zM1520 448q0 172 -40 251t-142 79q-72 0 -111 -46t-39 -100v-444q0 -58 30 -95t96 -37q120 0 163 123t43 269zM848 848v99v181q0 76 -45 122t-113 46q-76 0 -112 -59t-36 -183v-206h306z" />
    <glyph glyph-name="uniFB00" unicode="ff" horiz-adv-x="1448" 
d="M1690 1234q0 -58 -39 -103t-113 -45q-54 0 -86 32t-54 72q-18 36 -41 71t-51 35q-48 0 -82 -29t-34 -217v-186h224q12 0 19 -25t7 -45t-8 -46t-18 -24l-226 8v-486q0 -96 32 -128t120 -40q6 0 11 -17t5 -27q0 -12 -5 -28t-11 -16q-62 0 -157 5t-165 5t-133 -5t-123 -5
q-6 0 -11 15t-5 29q0 10 5 26t11 18q44 6 65 32t21 112v494h-308v-494q0 -76 24 -107t80 -37q6 0 11 -17t5 -27q0 -12 -5 -28t-11 -16q-64 0 -134 5t-140 5t-157 -5t-147 -5q-6 0 -11 15t-5 29q0 10 5 26t11 18q88 10 111 39t23 129v462q0 10 -6 19t-18 9h-110q-8 0 -14 17
t-6 25t6 26t12 20q32 8 84 24t52 32q0 188 191 360t425 172q70 0 136 -18t116 -50q2 -2 6 -5t6 -5q66 52 147 81t157 29q150 0 228 -61t78 -149zM892 1096q-30 70 -82 111t-112 41q-76 0 -116 -58t-40 -200v-142h306v32q0 70 10 116t34 100z" />
    <glyph glyph-name="f_h" unicode="fh" horiz-adv-x="1926" 
d="M1960 34q0 -12 -5 -28t-11 -16q-62 0 -143 5t-151 5t-135 -5t-125 -5q-6 0 -11 15t-5 29q0 10 5 26t11 18q40 6 59 39t19 129v316q0 100 -23 142t-91 42q-58 0 -94 -38t-72 -124v-338q0 -88 19 -126t59 -42q6 0 11 -17t5 -27q0 -14 -5 -29t-11 -15q-62 0 -126 5t-134 5
q-72 0 -127 -5t-119 -5q-6 0 -11 16t-5 28q0 10 5 26t11 18q56 8 72 54t16 114v468h-308v-492q0 -76 23 -107t79 -37q6 0 11 -17t5 -27q0 -14 -5 -29t-11 -15q-62 0 -132 5t-140 5t-158 -5t-148 -5q-6 0 -11 16t-5 28q0 10 5 26t11 18q90 10 113 39t23 129v462q0 10 -6 19
t-18 9h-110q-8 0 -14 17t-6 25t6 26t12 20q30 8 83 24t53 32q0 208 190 386t426 178q64 0 108 -13t90 -41q26 12 54 24t46 22q6 4 20 10t24 6q26 0 36 -9t10 -17q-6 -78 -11 -178t-5 -162v-356q44 94 130 139t172 45q150 0 234 -94t84 -210v-364q0 -96 24 -128t112 -40
q6 0 11 -17t5 -27zM848 848v99v181q0 76 -45 122t-113 46q-76 0 -112 -59t-36 -183v-206h306z" />
    <glyph glyph-name="f_j" unicode="fj" horiz-adv-x="1296" 
d="M1204 908q-6 -62 -11 -165t-5 -183v-600q0 -166 -133 -295t-359 -221q-10 -2 -28 25t-18 43q0 4 2 9t4 7q108 62 150 136t42 188v760q0 62 -24 83t-86 21h-198v-494q0 -74 23 -106t79 -38q6 0 11 -17t5 -27q0 -14 -5 -29t-11 -15q-62 0 -132 5t-140 5t-157 -5t-147 -5
q-6 0 -11 15t-5 29q0 10 5 26t11 18q88 10 111 39t23 129v462q0 10 -6 19t-18 9h-110q-8 0 -14 17t-6 25t6 26t12 20q32 8 84 24t52 32q0 208 190 386t426 178q152 0 253 -70t101 -156q0 -64 -42 -114t-126 -50q-60 0 -91 36t-55 84q-20 40 -49 81t-69 41q-88 0 -142 -86
t-54 -236v-126l164 2q78 0 222 14t188 44q12 8 23 12t21 4q12 0 28 -5t16 -11z" />
    <glyph glyph-name="f_k" unicode="fk" horiz-adv-x="1944" 
d="M1972 34q0 -12 -5 -28t-11 -16q-62 0 -122 5t-130 5t-162 -5t-152 -5q-6 0 -11 16t-5 28q0 10 5 26t11 18q30 4 43 12t13 24t-11 39t-43 61l-146 160q-10 12 -25 16t-33 4v-148q0 -92 20 -128t60 -40q6 0 11 -17t5 -27q0 -12 -5 -28t-11 -16q-62 0 -127 5t-135 5t-127 -5
t-117 -5q-6 0 -11 15t-5 29q0 10 5 26t11 18q58 6 72 57t14 111v468h-308v-492q0 -76 24 -107t80 -37q6 0 11 -17t5 -27q0 -12 -5 -28t-11 -16q-62 0 -133 5t-141 5t-157 -5t-147 -5q-6 0 -11 15t-5 29q0 10 5 26t11 18q88 10 111 39t23 129v462q0 10 -6 19t-18 9h-110
q-8 0 -14 17t-6 25t6 26t12 20q32 8 84 24t52 32q0 208 190 386t426 178q64 0 108 -13t90 -41q28 12 55 24t45 22q6 4 21 10t25 6q26 0 35 -9t9 -17q-6 -78 -11 -178t-5 -162v-602q14 0 29 4t27 16l182 150q40 34 56 56t16 38q0 20 -19 31t-77 17q-6 0 -11 16t-5 28t5 28
t11 16q62 0 119 -6t113 -6q46 0 100 6t114 6q6 0 11 -16t5 -28q0 -10 -5 -27t-11 -17q-48 -4 -118 -33t-172 -111l-94 -78l298 -360q56 -60 104 -96t90 -40q6 0 11 -17t5 -27zM848 848v99v181q0 76 -45 122t-113 46q-76 0 -111 -59t-35 -183v-206h304z" />
    <glyph glyph-name="f_f_b" unicode="ffb" horiz-adv-x="2590" 
d="M2530 456q0 -182 -139 -340t-405 -158q-126 0 -183 34t-133 34q-38 0 -62 -15t-38 -47q-4 -6 -19 -10t-21 -4q-12 0 -27 5t-15 11q2 28 5 77t3 125v548h-308v-494q0 -76 24 -107t80 -37q6 0 11 -17t5 -27q0 -12 -5 -28t-11 -16q-64 0 -134 5t-140 5t-133 -5t-123 -5
q-6 0 -11 15t-5 29q0 10 5 26t11 18q44 6 65 32t21 112v494h-308v-494q0 -76 24 -107t80 -37q6 0 11 -17t5 -27q0 -12 -5 -28t-11 -16q-64 0 -134 5t-140 5t-157 -5t-147 -5q-6 0 -11 15t-5 29q0 10 5 26t11 18q88 10 111 39t23 129v462q0 10 -6 19t-18 9h-110q-8 0 -14 17
t-6 25t6 26t12 20q32 8 84 24t52 32q0 188 191 360t425 172q92 0 159 -22t115 -60q2 -2 6 -5t6 -5q78 58 173 91t189 33q64 0 108 -13t90 -41q28 12 55 24t45 22q6 4 20 10t24 6q26 0 36 -9t10 -17q-6 -78 -11 -177t-5 -161v-284q40 54 108 82t146 28q182 0 311 -112
t129 -346zM2128 180q24 64 32 124t8 144q0 172 -40 251t-142 79q-72 0 -111 -46t-39 -100v-444q0 -58 30 -95t96 -37q62 0 103 34t63 90zM1496 848v280q0 76 -45 122t-113 46q-76 0 -112 -59t-36 -183v-206h306zM902 1090q-32 72 -88 115t-116 43q-76 0 -116 -58t-40 -200
v-142h306v32q0 70 18 118t36 92z" />
    <glyph glyph-name="f_f_h" unicode="ffh" horiz-adv-x="2574" 
d="M2608 34q0 -12 -5 -28t-11 -16q-62 0 -143 5t-151 5q-68 0 -134 -5t-126 -5q-6 0 -11 16t-5 28q0 10 5 26t11 18q40 6 60 39t20 129v316q0 100 -24 142t-92 42q-58 0 -94 -38t-72 -124v-338q0 -92 20 -128t60 -40q6 0 11 -17t5 -27q0 -12 -5 -28t-11 -16q-64 0 -125 5
t-133 5q-70 0 -129 -5t-119 -5q-6 0 -11 15t-5 29q0 10 5 26t11 18q44 6 65 32t21 112v494h-308v-494q0 -76 24 -107t80 -37q6 0 11 -17t5 -27q0 -12 -5 -28t-11 -16q-64 0 -134 5t-140 5t-133 -5t-123 -5q-6 0 -11 15t-5 29q0 10 5 26t11 18q44 6 65 32t21 112v494h-308
v-494q0 -76 24 -107t80 -37q6 0 11 -17t5 -27q0 -12 -5 -28t-11 -16q-64 0 -134 5t-140 5t-157 -5t-147 -5q-6 0 -11 15t-5 29q0 10 5 26t11 18q88 10 111 39t23 129v462q0 10 -6 19t-18 9h-110q-8 0 -14 17t-6 25t6 26t12 20q32 8 84 24t52 32q0 188 191 360t425 172
q92 0 159 -22t115 -60q2 -2 6 -5t6 -5q78 58 173 91t189 33q64 0 108 -13t90 -41q28 12 55 24t45 22q6 4 20 10t24 6q26 0 36 -9t10 -17q-6 -78 -11 -178t-5 -162v-356q44 94 130 139t172 45q150 0 234 -94t84 -210v-364q0 -96 24 -128t112 -40q6 0 11 -17t5 -27zM1496 848
v280q0 76 -45 122t-113 46q-76 0 -112 -59t-36 -183v-206h306zM902 1090q-32 72 -88 115t-116 43q-76 0 -116 -58t-40 -200v-142h306v32q0 70 18 118t36 92z" />
    <glyph glyph-name="uniFB03" unicode="ffi" horiz-adv-x="1970" 
d="M1986 34q0 -12 -5 -28t-11 -16q-62 0 -155 5t-161 5q-70 0 -128 -5t-118 -5q-6 0 -11 16t-5 28q0 10 5 26t11 18q44 6 66 32t22 112v390q0 62 -25 83t-87 21h-198v-494q0 -76 24 -107t80 -37q6 0 11 -17t5 -27q0 -12 -5 -28t-11 -16q-62 0 -133 5t-139 5q-70 0 -134 -5
t-124 -5q-6 0 -11 16t-5 28q0 10 5 26t11 18q44 6 66 32t22 112v494h-310v-494q0 -76 24 -107t80 -37q6 0 11 -17t5 -27q0 -12 -5 -28t-11 -16q-62 0 -133 5t-139 5q-70 0 -158 -5t-148 -5q-6 0 -11 16t-5 28q0 10 5 26t11 18q88 10 112 39t24 129v462q0 10 -6 19t-18 9
h-110q-10 0 -15 17t-5 25t5 26t11 20q32 8 85 24t53 32q0 188 189 360t427 172q94 0 162 -24t112 -58q0 -2 4 -5t6 -5q78 58 173 91t191 33q152 0 252 -70t100 -156q0 -68 -39 -116t-129 -48q-60 0 -91 38t-53 82q-20 40 -50 81t-70 41q-88 0 -141 -86t-53 -236v-126h162
q78 0 223 15t187 45q12 8 24 11t20 3q12 0 28 -4t16 -10q-6 -78 -11 -183t-5 -167v-312q0 -94 32 -128t104 -40q6 0 11 -17t5 -27zM900 1090q-28 68 -86 113t-116 45q-76 0 -116 -59t-40 -199v-142h306v32q0 72 16 118t36 92z" />
    <glyph glyph-name="f_f_k" unicode="ffk" horiz-adv-x="2590" 
d="M2618 34q0 -14 -5 -29t-11 -15q-62 0 -122 5t-130 5t-162 -5t-152 -5q-6 0 -11 16t-5 28q0 10 5 26t11 18q30 4 43 12t13 24q0 14 -12 41t-42 59l-146 160q-10 12 -24 17t-34 5v-150q0 -88 20 -126t60 -42q6 0 11 -17t5 -27q0 -12 -5 -28t-11 -16q-62 0 -125 5t-133 5
t-128 -5t-120 -5q-6 0 -11 16t-5 28q0 10 5 26t11 18q44 6 66 32t22 112v494h-310v-494q0 -76 24 -107t80 -37q6 0 11 -17t5 -27q0 -12 -5 -28t-11 -16q-62 0 -133 5t-141 5q-68 0 -132 -5t-124 -5q-6 0 -11 16t-5 28q0 10 5 26t11 18q44 6 66 32t22 112v494h-310v-494
q0 -76 24 -107t80 -37q6 0 11 -17t5 -27q0 -12 -5 -28t-11 -16q-62 0 -133 5t-141 5q-68 0 -156 -5t-148 -5q-6 0 -11 15t-5 29q0 10 5 26t11 18q88 10 112 39t24 129v462q0 10 -6 19t-18 9h-112q-8 0 -14 17t-6 25t6 26t12 20q32 8 85 24t53 32q0 188 190 360t424 172
q92 0 159 -22t115 -60q2 -2 6 -5t6 -5q78 58 173 91t189 33q64 0 108 -13t90 -41q22 10 55 24t47 22q6 4 20 10t24 6q24 0 35 -9t9 -17q-4 -70 -10 -172t-6 -166v-604q14 0 28 4t28 16l182 150q40 34 56 56t16 38q0 20 -18 31t-76 17q-6 0 -11 15t-5 29t5 29t11 15
q62 0 118 -6t112 -6q46 0 100 6t114 6q6 0 11 -16t5 -28q0 -10 -5 -27t-11 -17q-50 -4 -120 -34t-168 -108l-96 -80l298 -360q58 -60 105 -96t89 -40q6 0 11 -17t5 -27zM1496 848v280q0 76 -45 122t-115 46q-76 0 -111 -59t-35 -183v-206h306zM900 1090q-34 76 -91 117
t-111 41q-76 0 -116 -59t-40 -199v-142h306v32q0 72 16 118t36 92z" />
    <glyph glyph-name="uniFB04" unicode="ffl" horiz-adv-x="1972" 
d="M1986 34q0 -12 -5 -28t-11 -16q-62 0 -155 5t-161 5q-70 0 -128 -5t-118 -5q-6 0 -11 16t-5 28q0 10 5 26t11 18q44 6 66 32t22 112v494h-310v-494q0 -76 24 -107t80 -37q6 0 11 -17t5 -27q0 -12 -5 -28t-11 -16q-62 0 -133 5t-139 5q-70 0 -134 -5t-124 -5q-6 0 -11 16
t-5 28q0 10 5 26t11 18q44 6 66 32t22 112v494h-310v-494q0 -76 24 -107t80 -37q6 0 11 -17t5 -27q0 -12 -5 -28t-11 -16q-62 0 -133 5t-139 5q-70 0 -158 -5t-148 -5q-6 0 -11 16t-5 28q0 10 5 26t11 18q88 10 112 39t24 129v462q0 10 -6 19t-18 9h-110q-10 0 -15 17t-5 25
t5 26t11 20q32 8 85 24t53 32q0 188 189 360t427 172q94 0 162 -24t112 -58q0 -2 4 -5t6 -5q78 58 173 91t191 33q60 0 105 -13t91 -41q22 10 55 24t47 22q6 4 20 10t24 6q24 0 35 -9t9 -17q-4 -70 -10 -172t-6 -166v-842q0 -94 32 -128t104 -40q6 0 11 -17t5 -27zM1496 848
v280q0 76 -45 122t-115 46q-76 0 -111 -59t-35 -183v-206h306zM900 1090q-28 68 -86 113t-116 45q-76 0 -116 -59t-40 -199v-142h306v32q0 72 16 118t36 92z" />
    <glyph glyph-name="slong_b" unicode="&#x17f;b" horiz-adv-x="1942" 
d="M1882 456q0 -90 -35 -181t-103 -159q-74 -74 -169 -116t-239 -42q-126 0 -181 34t-133 34q-38 0 -62 -15t-38 -47q-4 -6 -19 -10t-23 -4q-10 0 -25 5t-15 11q2 26 5 76t3 126v960q0 76 -45 122t-113 46q-76 0 -113 -59t-37 -183v-832q0 -76 23 -107t79 -37q6 0 11 -17
t5 -27q0 -14 -5 -29t-11 -15q-62 0 -132 5t-140 5t-157 -5t-149 -5q-6 0 -11 16t-5 28q0 10 5 26t11 18q90 10 113 39t23 129v462q0 10 -6 19t-18 9h-110q-8 0 -14 17t-6 25t6 26t12 20q32 8 84 24t52 32q0 208 190 386t426 178q64 0 108 -13t90 -41q26 12 54 24t46 22
q6 4 20 10t24 6q26 0 36 -9t10 -17q-6 -78 -11 -177t-5 -161v-284q36 50 102 80t152 30q180 0 310 -113t130 -345zM1520 448q0 172 -40 251t-142 79q-72 0 -111 -46t-39 -100v-444q0 -58 30 -95t96 -37q120 0 163 123t43 269z" />
    <glyph glyph-name="slong_h" unicode="&#x17f;h" horiz-adv-x="1926" 
d="M1960 34q0 -12 -5 -28t-11 -16q-62 0 -143 5t-151 5t-135 -5t-125 -5q-6 0 -11 15t-5 29q0 10 5 26t11 18q40 6 59 39t19 129v316q0 100 -23 143t-91 43q-58 0 -94 -39t-72 -125v-338q0 -88 19 -126t59 -42q6 0 11 -17t5 -27q0 -14 -5 -29t-11 -15q-62 0 -124 5t-132 5
q-72 0 -129 -5t-121 -5q-6 0 -11 16t-5 28q0 10 5 26t11 18q42 6 65 35t23 109v906q0 76 -45 122t-113 46q-76 0 -113 -59t-37 -183v-832q0 -76 23 -107t79 -37q6 0 11 -17t5 -27q0 -14 -5 -29t-11 -15q-62 0 -132 5t-140 5t-158 -5t-148 -5q-6 0 -11 16t-5 28q0 10 5 26
t11 18q90 10 113 39t23 129v462q0 10 -6 19t-18 9h-110q-8 0 -14 17t-6 25t6 26t12 20q30 8 83 24t53 32q0 208 190 386t426 178q64 0 108 -13t90 -41q26 12 54 24t46 22q6 4 20 10t24 6q26 0 36 -9t10 -17q-6 -78 -11 -177t-5 -161v-358q44 94 130 139t172 45
q150 0 234 -93t84 -211v-364q0 -96 24 -128t112 -40q6 0 11 -17t5 -27z" />
    <glyph glyph-name="slong_i" unicode="&#x17f;i" horiz-adv-x="1322" 
d="M1338 34q0 -12 -5 -28t-11 -16q-62 0 -155 5t-163 5t-126 -5t-118 -5q-6 0 -11 16t-5 28q0 10 5 26t11 18q44 6 66 32t22 112v324q0 80 -32 104t-104 32q-6 2 -11 17t-5 25t5 26t11 16q96 20 216 65t186 77q6 4 20 10t24 6q24 0 35 -8t9 -18q-4 -70 -10 -170t-6 -168
v-314q0 -94 32 -128t104 -40q6 0 11 -17t5 -27zM1166 1218q0 -64 -42 -114t-126 -50q-60 0 -91 36t-55 84q-20 40 -49 81t-69 41q-88 0 -142 -86t-54 -236v-752q0 -76 24 -107t80 -37q6 0 11 -17t5 -27q0 -12 -5 -28t-11 -16q-62 0 -133 5t-141 5q-68 0 -156 -5t-148 -5
q-6 0 -11 15t-5 29q0 10 5 26t11 18q88 10 112 39t24 129v462q0 10 -6 19t-18 9h-112q-8 0 -14 17t-6 25t6 26t12 20q32 8 85 24t53 32q0 208 189 386t425 178q154 0 253 -70t99 -156z" />
    <glyph glyph-name="slong_k" unicode="&#x17f;k" horiz-adv-x="1944" 
d="M1972 34q0 -12 -5 -28t-11 -16q-62 0 -122 6t-130 6t-162 -6t-152 -6q-6 0 -11 16t-5 28q0 10 5 26t11 18q30 4 43 12t13 24q0 12 -14 42t-40 58l-146 162q-12 12 -27 16t-31 4v-150q0 -92 20 -128t60 -40q6 0 11 -17t5 -27q0 -12 -5 -28t-11 -16q-62 0 -125 5t-133 5
t-129 -5t-119 -5q-6 0 -11 15t-5 29q0 10 5 26t11 18q44 6 65 32t21 112v906q0 76 -45 122t-113 46q-76 0 -113 -59t-37 -183v-832q0 -76 24 -107t80 -37q6 0 11 -17t5 -27q0 -12 -5 -28t-11 -16q-62 0 -133 5t-141 5t-157 -5t-147 -5q-6 0 -11 15t-5 29q0 10 5 26t11 18
q88 10 111 39t23 129v462q0 10 -6 19t-18 9h-110q-8 0 -14 17t-6 25t6 26t12 20q32 8 84 24t52 32q0 208 190 386t426 178q64 0 108 -13t90 -41q28 12 55 24t45 22q6 4 21 10t25 6q26 0 35 -9t9 -17q-6 -78 -11 -177t-5 -161v-604q14 0 28 4t28 16l182 150q40 34 56 56
t16 38q0 20 -19 31t-77 17q-6 0 -11 16t-5 28t5 28t11 16q62 0 119 -6t113 -6q46 0 100 6t114 6q6 0 11 -16t5 -28q0 -10 -5 -27t-11 -17q-50 -4 -120 -34t-170 -108l-94 -80l298 -360q56 -60 104 -96t90 -40q6 0 11 -17t5 -27z" />
    <glyph glyph-name="slong_l" unicode="&#x17f;l" horiz-adv-x="1324" 
d="M1338 34q0 -12 -5 -28t-11 -16q-62 0 -155 5t-163 5t-126 -5t-118 -5q-6 0 -11 16t-5 28q0 10 5 26t11 18q44 6 66 32t22 112v906q0 76 -45 122t-115 46q-76 0 -113 -59t-37 -183v-832q0 -76 24 -107t80 -37q6 0 11 -17t5 -27q0 -12 -5 -28t-11 -16q-62 0 -133 5t-141 5
q-68 0 -156 -5t-148 -5q-6 0 -11 15t-5 29q0 10 5 26t11 18q88 10 112 39t24 129v462q0 10 -6 19t-18 9h-112q-8 0 -14 17t-6 25t6 26t12 20q32 8 85 24t53 32q0 208 189 386t425 178q64 0 108 -13t90 -41q22 10 55 24t47 22q6 4 20 10t24 6q24 0 35 -9t9 -17
q-4 -70 -10 -172t-6 -166v-842q0 -94 32 -128t104 -40q6 0 11 -17t5 -27z" />
    <glyph glyph-name="slong_slong" unicode="&#x17f;&#x17f;" horiz-adv-x="1358" 
d="M1686 1250q0 -56 -37 -102t-115 -46q-50 0 -82 31t-56 75q-18 34 -42 70t-52 36q-48 0 -81 -30t-33 -218v-820q0 -96 32 -128t120 -40q6 0 11 -17t5 -27q0 -12 -5 -28t-11 -16q-64 0 -158 5t-164 5t-133 -5t-123 -5q-6 0 -11 15t-5 29q0 10 5 26t11 18q44 6 65 32t21 112
v486q0 10 -6 19t-18 9h-110q-8 0 -14 17t-6 25t6 26t12 20q32 8 84 24t52 32q0 70 10 124t34 108q-30 70 -84 112t-112 42q-78 0 -117 -59t-39 -201v-784q0 -74 23 -106t79 -38q6 0 11 -17t5 -27q0 -14 -5 -29t-11 -15q-62 0 -132 5t-140 5t-157 -5t-147 -5q-6 0 -11 15
t-5 29q0 10 5 26t11 18q88 10 111 39t23 129v462q0 10 -6 19t-18 9h-110q-8 0 -14 17t-6 25t6 26t12 20q32 8 84 24t52 32q0 188 190 368t426 180q76 0 138 -18t110 -50q4 0 8 -4l6 -6q66 52 147 81t157 29q150 0 227 -61t77 -149z" />
    <glyph glyph-name="slong_t" unicode="&#x17f;t" horiz-adv-x="1534" 
d="M1512 800q0 -22 -7 -46t-19 -24l-298 8v-518q0 -58 23 -85t79 -27q44 0 83 24t67 58q16 22 40 -8t24 -50v-8t-4 -6q-42 -54 -128 -103t-202 -49q-164 0 -248 87t-82 283l4 378q0 10 -6 19t-18 9h-124q-8 0 -14 17t-6 25t6 25t12 21q38 22 96 57t58 79v170q0 74 -48 117
t-112 43q-76 0 -112 -59t-36 -183v-832q0 -76 23 -107t79 -37q6 0 11 -17t5 -27q0 -14 -5 -29t-11 -15q-62 0 -133 5t-139 5q-70 0 -158 -5t-148 -5q-6 0 -11 16t-5 28q0 10 5 26t11 18q88 10 112 39t24 129v462q0 10 -6 19t-18 9h-110q-8 0 -14 17t-6 25t5 26t13 20
q30 8 83 24t53 32q0 212 189 388t427 176q136 0 254 -87t118 -203v-284h298q12 0 19 -25t7 -45z" />
    <glyph glyph-name="slong_slong_i" unicode="&#x17f;&#x17f;i" horiz-adv-x="1970" 
d="M1986 34q0 -12 -5 -28t-11 -16q-62 0 -155 5t-161 5q-70 0 -128 -5t-118 -5q-6 0 -11 16t-5 28q0 10 5 26t11 18q44 6 66 32t22 112v324q0 80 -31 104t-105 32q-6 2 -11 17t-5 25t5 26t11 16q96 20 216 65t186 77q6 4 20 10t24 6q24 0 35 -8t9 -18q-4 -70 -10 -170
t-6 -168v-314q0 -94 32 -128t104 -40q6 0 11 -17t5 -27zM1814 1218q0 -64 -42 -114t-126 -50q-60 0 -91 36t-55 84q-20 40 -49 81t-69 41q-88 0 -142 -86t-54 -236v-752q0 -76 24 -107t80 -37q6 0 11 -17t5 -27q0 -12 -5 -28t-11 -16q-62 0 -133 5t-139 5q-70 0 -134 -5
t-124 -5q-6 0 -11 16t-5 28q0 10 5 26t11 18q44 6 66 32t22 112v486q0 10 -6 19t-18 9h-110q-10 0 -15 17t-5 25t5 26t11 20q32 8 85 24t53 32q0 72 16 118t36 92q-30 72 -88 115t-118 43q-76 0 -116 -58t-40 -200v-768q0 -76 24 -107t80 -37q6 0 11 -17t5 -27q0 -12 -5 -28
t-11 -16q-62 0 -133 5t-139 5q-70 0 -158 -5t-148 -5q-6 0 -11 16t-5 28q0 10 5 26t11 18q88 10 112 39t24 129v462q0 10 -6 19t-18 9h-110q-10 0 -15 17t-5 25t5 26t11 20q32 8 85 24t53 32q0 188 189 360t427 172q94 0 162 -24t112 -58q0 -2 4 -5t6 -5q78 58 172 91
t188 33q152 0 253 -70t101 -156z" />
    <glyph glyph-name="slong_slong_l" unicode="&#x17f;&#x17f;l" horiz-adv-x="1972" 
d="M1986 34q0 -12 -5 -28t-11 -16q-62 0 -155 5t-161 5q-70 0 -128 -5t-118 -5q-6 0 -11 16t-5 28q0 10 5 26t11 18q44 6 66 32t22 112v906q0 76 -47 122t-115 46q-76 0 -112 -59t-36 -183v-832q0 -76 24 -107t80 -37q6 0 11 -17t5 -27q0 -12 -5 -28t-11 -16q-62 0 -133 5
t-139 5q-70 0 -134 -5t-124 -5q-6 0 -11 16t-5 28q0 10 5 26t11 18q44 6 66 32t22 112v486q0 10 -6 19t-18 9h-110q-10 0 -15 17t-5 25t5 26t11 20q32 8 85 24t53 32q0 72 16 118t36 92q-28 68 -86 113t-116 45q-78 0 -119 -58t-41 -200v-768q0 -76 24 -107t80 -37
q6 0 11 -17t5 -27q0 -12 -5 -28t-11 -16q-62 0 -133 5t-139 5q-70 0 -158 -5t-148 -5q-6 0 -11 16t-5 28q0 10 5 26t11 18q88 10 112 39t24 129v462q0 10 -6 19t-18 9h-110q-10 0 -15 17t-5 25t5 26t11 20q32 8 85 24t53 32q0 188 189 360t427 172q94 0 162 -24t112 -58
q0 -2 4 -5t6 -5q78 58 173 91t191 33q60 0 105 -13t91 -41q22 10 55 24t47 22q6 4 20 10t24 6q24 0 35 -9t9 -17q-4 -70 -10 -172t-6 -166v-842q0 -94 32 -128t104 -40q6 0 11 -17t5 -27z" />
    <glyph glyph-name=".notdef" horiz-adv-x="1600" 
d="M100 0v1600h1400v-1600h-1400zM1400 100v1400h-1200v-1400h1200z" />
    <glyph glyph-name=".null" horiz-adv-x="0" 
 />
    <glyph glyph-name=".null" horiz-adv-x="0" 
 />
    <glyph glyph-name=".null" horiz-adv-x="0" 
 />
    <glyph glyph-name="nonmarkingreturn" unicode="&#xd;" horiz-adv-x="1600" 
 />
    <glyph glyph-name="space" unicode=" " horiz-adv-x="410" 
 />
    <glyph glyph-name="exclam" unicode="!" horiz-adv-x="640" 
d="M528 1224l-154 -780q0 -14 -17 -20t-31 -6q-16 0 -32 5t-18 21l-152 780q-14 62 34 125t168 63q114 0 164 -64t38 -124zM490 124q0 -66 -49 -115t-115 -49t-115 49t-49 115q0 70 47 117t117 47q66 0 115 -49t49 -115z" />
    <glyph glyph-name="quotedbl" unicode="&#x22;" horiz-adv-x="892" 
d="M812 1248l-110 -446q-4 -8 -16 -15t-32 -7t-32 7t-14 15l-112 446q-14 52 25 108t133 56q96 0 134 -57t24 -107zM396 1248l-110 -446q-4 -8 -15 -15t-33 -7q-20 0 -32 7t-14 15l-112 446q-14 52 25 108t133 56q96 0 134 -57t24 -107z" />
    <glyph glyph-name="numbersign" unicode="#" horiz-adv-x="1480" 
d="M1428 940q0 -28 -9 -49t-23 -21h-324l-108 -370h292q12 0 16 -26t4 -46q0 -24 -9 -47t-21 -23h-326l-116 -388q-4 -12 -30 -16t-48 -4t-46 4t-20 16l116 388h-280l-116 -388q-6 -12 -30 -16t-48 -4t-47 4t-21 16l118 388h-274q-12 0 -16 24t-4 46q0 24 10 48t20 24h306
l110 370h-274q-12 0 -16 24t-4 46t9 47t21 25h306l120 404q2 12 30 16t48 4q22 0 46 -5t20 -15l-120 -404h280l120 404q4 12 31 16t47 4q22 0 47 -5t21 -15l-122 -404h294q10 0 15 -24t5 -48zM928 870h-280l-110 -370h282z" />
    <glyph glyph-name="dollar" horiz-adv-x="1140" 
d="M906 622q58 -48 95 -111t37 -143q0 -188 -127 -296t-339 -114l-6 -76q0 -12 -17 -16t-29 -4q-10 0 -27 5t-17 17l6 78q-90 10 -199 42t-173 44q0 80 -2 192t-6 170q0 6 18 10t28 4t24 -4t16 -10q34 -144 119 -240t185 -114l34 392q-56 32 -133 77t-127 89q-64 54 -97 114
t-33 136q0 176 139 286t319 110h6l6 80q0 12 18 15t28 3t27 -5t17 -15l-6 -82q66 -6 138 -28t132 -34q0 -78 5 -165t11 -163q0 -6 -16 -10t-26 -4t-25 4t-17 10q-28 120 -82 197t-130 97l-32 -372q52 -30 132 -78t126 -88zM590 1164q-60 -6 -102 -48t-42 -104q0 -50 32 -91
t82 -77zM732 218q0 52 -31 93t-89 83l-32 -340q82 10 117 52t35 112z" />
    <glyph glyph-name="percent" horiz-adv-x="2064" 
d="M1954 498q0 -94 -37 -195t-105 -173q-76 -82 -168 -127t-230 -45q-146 0 -231 86t-85 212q0 194 143 367t395 173q146 0 232 -85t86 -213zM1516 1228l-868 -1304q-6 -8 -24 -2t-30 14q-16 10 -27 23t-7 23l730 1094q-68 -36 -130 -50t-120 -14q-18 0 -40 2t-38 6
q2 -10 3 -28t1 -34q-2 -198 -144 -367t-394 -169q-146 0 -232 85t-86 213q0 194 144 367t396 173q100 0 168 -37t102 -91q36 -14 65 -20t71 -6q90 0 188 46t184 134q6 10 26 2t28 -14q12 -6 26 -21t8 -25zM1688 632q0 36 -13 55t-41 19q-98 0 -184 -227t-86 -357
q0 -36 12 -55t42 -19q98 0 184 227t86 357zM702 1098q-30 16 -45 30t-27 40q-92 -20 -173 -236t-81 -346q0 -36 13 -55t41 -19q98 0 184 225t86 353z" />
    <glyph glyph-name="ampersand" unicode="&#x26;" horiz-adv-x="1772" 
d="M1714 840q0 -14 -5 -29t-11 -15q-110 -16 -153 -46t-101 -98l-252 -316q140 -156 197 -189t127 -33q48 0 78 18t56 48q2 2 8 -2t10 -6l10 -10t8 -10q4 -8 10 -25t0 -21q-52 -66 -154 -109t-212 -43q-122 0 -212 33t-176 139q-84 -88 -175 -128t-227 -40q-204 0 -341 105
t-137 251q0 142 100 239t288 137q-62 56 -94 116t-32 122q0 144 119 246t319 102q156 0 230 -77t74 -157t-64 -154t-176 -138l306 -344q100 126 140 181t40 119q0 36 -25 57t-159 33q-6 0 -11 16t-5 28t5 28t11 16q68 0 137 -6t161 -6q90 0 148 6t124 6q6 0 11 -15t5 -29z
M912 1040q0 58 -26 99t-92 41t-98 -46t-32 -114q0 -54 27 -99t85 -109q78 52 107 115t29 113zM884 194l-382 434q-50 -36 -71 -90t-21 -124q0 -132 78 -212t192 -80q64 0 114 18t90 54z" />
    <glyph glyph-name="quotesingle" unicode="'" horiz-adv-x="520" 
d="M416 1248l-110 -446q-4 -8 -15 -15t-33 -7q-20 0 -32 7t-14 15l-112 446q-14 52 25 108t133 56q96 0 134 -57t24 -107z" />
    <glyph glyph-name="parenleft" horiz-adv-x="722" 
d="M764 -222q4 -4 0 -22t-8 -24q-6 -10 -18 -22t-18 -8q-254 158 -427 363t-173 497q0 286 166 489t434 373q6 4 19 -9t17 -21t9 -26t-1 -22q-152 -136 -211 -327t-59 -457q0 -274 57 -458t213 -326z" />
    <glyph glyph-name="parenright" horiz-adv-x="722" 
d="M-32 1348q-6 6 0 23t8 23q6 14 19 23t17 7q254 -158 427 -362t173 -498q0 -292 -173 -498t-427 -364q-6 -2 -18 9t-18 21q-4 8 -8 25t0 23q156 144 213 327t57 457q0 268 -57 456t-213 328z" />
    <glyph glyph-name="asterisk" unicode="*" horiz-adv-x="786" 
d="M714 924q0 -10 -3 -23t-9 -23q-16 -24 -35 -34t-37 -10q-12 0 -29 5t-31 13q-44 26 -75 78t-73 78q0 -48 31 -103t31 -103q0 -46 -23 -74t-67 -28q-42 0 -66 29t-24 73q0 48 31 103t31 103q-38 -20 -74 -78t-74 -78q-16 -8 -31 -13t-29 -5q-22 0 -41 11t-33 33
q-6 12 -9 24t-3 22q0 28 13 46t43 36q38 24 106 26t104 24q-42 24 -105 25t-105 25q-26 14 -41 37t-15 45q0 14 3 23t9 23q12 22 32 33t42 11q14 0 29 -4t31 -12q30 -18 74 -78t74 -78q0 42 -31 103t-31 103q0 44 23 72t67 28q42 0 66 -28t24 -72q0 -46 -31 -105t-31 -101
q32 20 72 77t76 79q12 8 28 12t32 4q22 0 40 -10t32 -34q6 -10 9 -22t3 -24q0 -26 -15 -48t-39 -34q-40 -20 -109 -26t-101 -24q30 -18 105 -25t105 -25q28 -16 41 -35t13 -47z" />
    <glyph glyph-name="plus" unicode="+" horiz-adv-x="874" 
d="M804 442q0 -22 -7 -46t-19 -24h-272v-268q0 -12 -24 -19t-48 -7q-20 0 -45 7t-25 19v268h-268q-12 0 -19 24t-7 46t7 47t19 25h268v266q0 10 24 17t46 7q24 0 48 -6t24 -18v-266h272q12 0 19 -26t7 -46z" />
    <glyph glyph-name="comma" unicode="," horiz-adv-x="640" 
d="M518 70q0 -152 -82 -269t-220 -195q-6 -2 -19 7t-21 19t-14 25t0 19q68 46 117 94t49 148q0 24 -3 34t-11 10q-6 0 -13 -3t-17 -3q-58 0 -102 41t-44 129q0 74 51 135t131 61q90 0 144 -72t54 -180z" />
    <glyph glyph-name="hyphen" horiz-adv-x="824" 
d="M716 442q0 -40 -7 -63t-19 -23h-520q-12 0 -19 23t-7 63q0 38 7 62t19 24h520q12 0 19 -24t7 -62z" />
    <glyph glyph-name="period" unicode="." horiz-adv-x="640" 
d="M502 140q0 -74 -53 -128t-129 -54q-74 0 -128 54t-54 128t54 128t128 54q76 0 129 -54t53 -128z" />
    <glyph glyph-name="slash" unicode="/" horiz-adv-x="614" 
d="M644 1426l-430 -1448q-6 -10 -30 -15t-48 -5q-26 0 -48 5t-18 15l430 1448q4 12 31 16t47 4q22 0 46 -5t20 -15z" />
    <glyph glyph-name="zero" unicode="0" horiz-adv-x="1230" 
d="M1144 450q0 -206 -135 -349t-395 -143t-396 142t-136 350q0 206 135 355t397 149q258 0 394 -148t136 -356zM780 450q0 192 -33 300t-133 108q-98 0 -133 -104t-35 -304q0 -190 33 -293t135 -103q100 0 133 103t33 293z" />
    <glyph glyph-name="one" unicode="1" horiz-adv-x="952" 
d="M860 32q0 -10 -5 -27t-11 -17q-70 0 -181 6t-187 6q-72 0 -190 -6t-180 -6q-6 0 -11 17t-5 27q0 12 5 28t11 16q92 12 146 27t54 135v436q0 114 -59 133t-141 29q-6 0 -11 16t-5 28t5 28t11 16q70 0 182 -6t188 -6q72 0 189 6t179 6q6 0 11 -15t5 -29t-5 -29t-11 -15
q-80 -8 -139 -33t-59 -129v-436q0 -112 58 -133t140 -29q6 0 11 -15t5 -29z" />
    <glyph glyph-name="two" unicode="2" horiz-adv-x="1034" 
d="M978 324q-28 -54 -74 -160t-70 -176q-36 8 -119 10t-229 2q-158 0 -271 -2t-145 -8q-8 0 -16 14t-8 28q0 6 2 11t4 9q268 192 378 299t110 223q0 68 -39 112t-125 44q-76 0 -126 -40t-100 -94q-6 -4 -22 1t-26 13q-8 8 -16 21t-6 19q88 138 196 222t264 84q152 0 242 -85
t90 -207q0 -126 -108 -233t-354 -209l308 8q66 4 102 33t76 93q2 6 21 5t29 -7q10 -4 23 -14t9 -16z" />
    <glyph glyph-name="three" unicode="3" horiz-adv-x="998" 
d="M908 32q0 -192 -193 -336t-435 -144q-130 0 -204 45t-74 121q0 58 43 98t107 40q52 0 81 -34t43 -68q14 -32 35 -67t47 -35q102 0 156 90t54 268q0 94 -37 163t-131 69q-52 0 -81 -11t-65 -33q-6 -2 -18 8t-20 24q-6 10 -8 26t4 20q128 64 204 159t76 179q0 62 -33 103
t-99 41q-62 0 -108 -31t-100 -89q-6 -4 -22 1t-26 13q-8 8 -16 21t-6 19q90 128 197 195t231 67q144 0 231 -87t87 -191q0 -116 -73 -190t-221 -124q190 0 282 -97t92 -233z" />
    <glyph glyph-name="four" unicode="4" horiz-adv-x="1196" 
d="M1126 72q0 -22 -6 -47t-18 -25h-220v-408q0 -18 -42 -29t-128 -11q-84 0 -126 11t-42 29v408h-480q-10 0 -17 15t-7 27q0 6 2 12t4 10l750 866q6 10 18 14t26 4q22 0 40 -9t18 -21q-6 -78 -11 -176t-5 -160v-440h220q10 0 17 -24t7 -46zM544 142v326l-290 -326h290z" />
    <glyph glyph-name="five" unicode="5" horiz-adv-x="1018" 
d="M948 994l-52 -142q-50 -128 -83 -168t-109 -40h-392l-20 -62q-14 -36 -7 -51t33 -15q270 -22 411 -139t141 -279q0 -234 -222 -391t-572 -157q-6 0 -11 16t-5 28t5 28t11 16q214 0 343 93t129 269q0 118 -100 180t-296 76q-22 0 -33 16t-11 36q0 6 2 15t4 17l176 562
q2 8 11 15t25 9l414 16q40 2 72 22t50 52q4 10 23 11t29 -3q14 -6 26 -15t8 -15z" />
    <glyph glyph-name="six" unicode="6" horiz-adv-x="1248" 
d="M1148 448q0 -206 -140 -348t-374 -142q-260 0 -397 143t-137 373q0 304 279 541t705 349q6 2 16 -13t12 -25t3 -28t-5 -20q-294 -110 -477 -309t-183 -547q0 -176 33 -272t151 -96q78 0 119 89t41 247q0 150 -21 223t-85 73q-16 0 -27 -3t-25 -9q-6 0 -19 8t-21 18
t-14 24t-2 20q32 34 90 62t128 28q148 0 249 -110t101 -276z" />
    <glyph glyph-name="seven" unicode="7" horiz-adv-x="1038" 
d="M1040 896q0 -6 -2 -12t-4 -10l-670 -1298q-6 -14 -33 -20t-57 -6q-22 0 -51 10t-25 22l590 1008h-458q-62 0 -99 -43t-67 -133q-4 -8 -17 -12t-27 -4q-12 0 -27 5t-17 11q22 94 46 257t32 267q36 -8 141 -10t255 -2q116 0 277 2t189 8q10 4 17 -13t7 -27z" />
    <glyph glyph-name="eight" unicode="8" horiz-adv-x="1150" 
d="M1050 362q0 -166 -149 -285t-367 -119q-194 0 -314 92t-120 230q0 116 79 200t201 140q-120 76 -183 168t-63 186q0 162 135 276t347 114q172 0 280 -87t108 -221q0 -98 -68 -167t-176 -121q142 -84 216 -184t74 -222zM830 1060q0 98 -61 152t-133 54q-76 0 -120 -40
t-44 -122q0 -72 45 -132t171 -142q74 48 108 106t34 124zM698 242q0 104 -76 179t-170 137q-84 -46 -125 -115t-41 -171t75 -160t169 -58q76 0 122 50t46 138z" />
    <glyph glyph-name="nine" unicode="9" horiz-adv-x="1248" 
d="M1148 438q0 -306 -270 -544t-682 -344q-6 0 -14 13t-14 23q-4 14 -3 30t7 18q310 120 468 324t158 484q0 216 -35 317t-137 101q-92 0 -132 -89t-40 -249q0 -150 29 -206t95 -56q12 0 26 3t24 7q6 4 21 -6t19 -18q6 -8 14 -24t2 -20q-42 -42 -88 -66t-130 -24
q-146 0 -256 106t-110 264q0 198 148 335t394 137q238 0 372 -143t134 -373z" />
    <glyph glyph-name="colon" unicode=":" horiz-adv-x="640" 
d="M502 700q0 -74 -53 -128t-129 -54q-74 0 -128 54t-54 128q0 76 54 129t128 53q76 0 129 -53t53 -129zM502 140q0 -74 -53 -128t-129 -54q-74 0 -128 54t-54 128t54 128t128 54q76 0 129 -54t53 -128z" />
    <glyph glyph-name="semicolon" unicode=";" horiz-adv-x="640" 
d="M502 700q0 -74 -54 -128t-128 -54q-76 0 -129 54t-53 128t53 128t129 54q74 0 128 -54t54 -128zM518 70q0 -152 -82 -269t-220 -195q-6 -2 -19 7t-21 19t-14 25t0 19q68 46 117 94t49 148q0 24 -3 34t-11 10q-6 0 -13 -3t-17 -3q-58 0 -102 41t-44 129q0 74 51 135
t131 61q90 0 144 -72t54 -180z" />
    <glyph glyph-name="less" unicode="&#x3c;" horiz-adv-x="1064" 
d="M936 92q10 -4 6 -30t-14 -44t-28 -38t-28 -14l-776 394q-14 8 -20 25t-6 35q0 20 6 36t20 24l776 394q10 6 29 -15t27 -37q8 -18 13 -44t-5 -30l-654 -328z" />
    <glyph glyph-name="equal" unicode="=" horiz-adv-x="874" 
d="M804 590q0 -22 -7 -46t-19 -24h-682q-12 0 -19 24t-7 46t7 47t19 25h682q12 0 19 -26t7 -46zM804 290q0 -22 -7 -46t-19 -24h-682q-12 0 -19 24t-7 46t7 47t19 25h682q12 0 19 -26t7 -46z" />
    <glyph glyph-name="greater" unicode="&#x3e;" horiz-adv-x="1064" 
d="M994 420q0 -16 -7 -35t-19 -25l-776 -394q-10 -4 -28 14t-28 38q-12 24 -15 46t7 28l654 328l-654 328q-10 6 -5 30t13 44q10 20 28 38t28 14l776 -394q14 -8 20 -24t6 -36z" />
    <glyph glyph-name="question" unicode="?" horiz-adv-x="806" 
d="M760 948q0 -174 -72 -240t-152 -94q-70 -22 -139 -62t-59 -120l2 -8q0 -6 -16 -15t-30 -11q-14 0 -30 3t-20 9l-38 264q-12 88 50 127t140 63q76 24 145 51t69 91q0 34 -29 66t-113 32q-44 0 -106 -14t-100 -14q-78 0 -126 48t-48 114q0 78 54 127t154 49q154 0 309 -144
t155 -322zM460 124q0 -66 -49 -115t-115 -49t-115 49t-49 115q0 70 47 117t117 47q66 0 115 -49t49 -115z" />
    <glyph glyph-name="at" unicode="@" horiz-adv-x="1644" 
d="M1552 834q0 -194 -144 -347t-348 -153q-124 0 -165 48t-13 146q-64 -90 -133 -142t-147 -52q-70 0 -109 47t-39 123q0 146 173 324t317 178q40 0 71 -23t31 -59l26 64q4 8 36 13t66 5q36 0 75 -12t35 -20l-182 -416q-26 -58 -18 -80t36 -22q146 0 237 111t91 267
q0 176 -142 305t-408 129q-284 0 -445 -171t-161 -443q0 -254 164 -419t428 -165q192 0 309 49t203 111q6 4 19 -9t17 -21q6 -10 10 -27t0 -19q-104 -78 -234 -137t-340 -59q-354 0 -569 217t-215 515q0 132 53 257t159 233q104 104 258 168t344 64q294 0 474 -164t180 -414
zM1000 874q0 18 -6 27t-18 9q-46 0 -177 -159t-131 -247q0 -22 8 -32t32 -10q58 0 175 169t117 243z" />
    <glyph glyph-name="A" unicode="A" horiz-adv-x="1594" 
d="M1582 34q0 -12 -5 -28t-11 -16q-96 0 -194 5t-180 5q-92 0 -197 -5t-203 -5q-6 0 -11 15t-5 29q0 10 3 26t9 18q96 6 127 25t31 59q0 16 -7 40t-15 44l-54 140h-420l-48 -116q-12 -28 -19 -53t-7 -43q0 -42 23 -67t127 -29q6 0 8 -17t2 -27q0 -14 -5 -29t-11 -15
q-86 0 -134 5t-128 5q-66 0 -116 -5t-118 -5q-6 0 -10 17t-4 27t9 26t15 18q86 8 134 52t98 148l496 1118q2 6 22 11t38 5t38 -5t22 -11l444 -1118q36 -100 86 -145t150 -55q6 0 13 -17t7 -27zM832 482l-168 440l-176 -440h344z" />
    <glyph glyph-name="B" unicode="B" horiz-adv-x="1580" 
d="M1502 376q0 -160 -122 -273t-444 -113q-98 0 -215 5t-209 5t-202 -5t-208 -5q-6 0 -11 16t-5 28q0 10 5 26t11 18q118 14 155 50t37 118v878q0 82 -37 118t-155 50q-6 2 -11 18t-5 26q0 12 5 28t11 16q98 0 202 -5t196 -5t195 5t201 5q278 0 404 -87t126 -225
q0 -114 -100 -202t-292 -116q228 -10 348 -125t120 -249zM1012 1042q0 128 -48 184t-156 56h-24q-42 0 -68 -18t-26 -74v-404h106q116 0 166 61t50 195zM1090 396q0 144 -63 219t-187 75h-150v-476q0 -66 36 -96t98 -30q96 0 181 73t85 235z" />
    <glyph glyph-name="C" unicode="C" horiz-adv-x="1586" 
d="M1474 480q-12 -92 -29 -229t-25 -207q-90 0 -223 -43t-285 -43q-204 0 -361 61t-261 161t-155 229t-51 269q0 290 229 512t615 222q170 0 280 -30t202 -30q4 -96 12 -216t16 -220q0 -6 -18 -11t-32 -5q-10 0 -23 4t-17 12q-26 146 -149 273t-279 127q-236 0 -330 -181
t-94 -457q0 -270 93 -447t323 -177q184 0 300 128t174 298q2 8 17 12t25 4t28 -5t18 -11z" />
    <glyph glyph-name="D" unicode="D" horiz-adv-x="1790" 
d="M1510 1176q100 -98 147 -223t47 -275q0 -134 -42 -261t-140 -221q-104 -100 -247 -153t-383 -53q-76 0 -189 3t-189 3q-86 0 -214 -2t-198 -4q-6 0 -11 16t-5 28q0 10 5 26t11 18q118 14 155 50t37 118v878q0 82 -37 118t-155 50q-6 2 -11 18t-5 26q0 12 5 28t11 16
q70 -2 198 -4t214 -2q76 0 190 3t188 3q204 0 360 -53t258 -151zM1292 678q0 280 -85 443t-323 161l-78 -4q-40 0 -78 -22t-38 -94v-954q0 -72 38 -94t78 -22l78 -4q226 0 317 157t91 433z" />
    <glyph glyph-name="E" unicode="E" horiz-adv-x="1530" 
d="M1420 458q-14 -112 -27 -237t-19 -231q-126 4 -316 7t-306 3t-330 -4t-320 -6q-6 0 -11 16t-5 28q0 10 5 26t11 18q118 14 155 50t37 118v878q0 82 -37 118t-155 50q-6 2 -11 18t-5 26q0 12 5 28t11 16q106 -2 304 -6t326 -4q108 0 306 3t320 7q-4 -82 3 -212t11 -234
q0 -8 -15 -17t-41 -9q-14 0 -24 4t-10 8q-16 126 -105 239t-251 113h-120q-40 0 -78 -20t-38 -98v-414h68q100 0 161 60t71 158q0 6 17 11t27 5q14 0 29 -5t15 -11q0 -74 -5 -138t-5 -132q0 -70 5 -131t5 -133q0 -6 -15 -11t-29 -5q-10 0 -26 5t-18 11q-12 104 -67 161
t-165 57h-68v-426q0 -72 38 -95t78 -23h104q152 0 270 110t148 270q0 4 9 6t21 2q22 0 43 -8t19 -20z" />
    <glyph glyph-name="F" unicode="F" horiz-adv-x="1488" 
d="M1396 918q0 -8 -18 -17t-36 -9q-8 0 -21 4t-13 8q-18 134 -111 251t-269 117h-120q-42 0 -80 -20t-38 -98v-422h100q102 0 162 60t72 158q0 6 15 11t29 5t29 -5t15 -11q0 -74 -6 -138t-6 -132q0 -70 6 -131t6 -133q0 -6 -15 -11t-29 -5t-29 5t-15 11q-14 104 -69 161
t-165 57h-100v-388q0 -80 46 -118t162 -50q6 0 11 -17t5 -27q0 -12 -5 -28t-11 -16q-98 0 -206 5t-200 5t-191 -5t-197 -5q-6 0 -11 15t-5 29q0 10 5 26t11 18q116 14 153 50t37 118v878q0 82 -37 118t-153 50q-6 2 -11 18t-5 26q0 14 5 29t11 15q108 -2 308 -6t328 -4
q114 0 314 3t322 7q0 -86 7 -227t13 -235z" />
    <glyph glyph-name="G" unicode="G" horiz-adv-x="1656" 
d="M1642 604q0 -10 -5 -27t-11 -17q-96 -10 -132 -52t-36 -116v-202q0 -50 5 -72t17 -48q-120 -42 -276 -77t-324 -35q-194 0 -346 60t-252 162q-98 98 -148 228t-50 270q0 150 55 279t167 235q110 102 277 161t371 59q116 0 242 -34t218 -34q0 -82 4 -211t6 -217
q0 -6 -17 -11t-31 -5t-25 4t-15 12q-46 166 -165 282t-285 116q-180 0 -285 -178t-105 -458q0 -270 102 -447t282 -177q122 0 165 32t43 96v238q0 68 -36 96t-160 42q-6 0 -11 16t-5 30t5 29t11 15q98 0 172 -6t164 -6q92 0 196 6t202 6q6 0 11 -16t5 -28z" />
    <glyph glyph-name="H" unicode="H" horiz-adv-x="1920" 
d="M1834 34q0 -12 -5 -28t-11 -16q-98 0 -198 5t-192 5t-183 -5t-189 -5q-6 0 -11 15t-5 29q0 10 5 26t11 18q114 14 144 50t30 118v396h-540v-396q0 -80 30 -118t146 -50q6 0 11 -17t5 -27q0 -12 -5 -28t-11 -16q-98 0 -190 5t-184 5t-191 -5t-197 -5q-6 0 -11 15t-5 29
q0 10 5 26t11 18q116 14 153 50t37 118v878q0 82 -37 118t-153 50q-6 2 -11 18t-5 26q0 14 5 29t11 15q98 0 197 -5t191 -5t184 5t190 5q6 0 11 -16t5 -28q0 -10 -5 -27t-11 -17q-116 -12 -146 -50t-30 -118v-384h540v384q0 86 -27 120t-147 48q-6 2 -11 18t-5 26q0 14 5 29
t11 15q98 0 189 -5t183 -5q94 0 192 5t198 5q6 0 11 -16t5 -28q0 -10 -5 -27t-11 -17q-116 -12 -154 -50t-38 -118v-878q0 -80 38 -118t154 -50q6 0 11 -17t5 -27z" />
    <glyph glyph-name="I" unicode="I" horiz-adv-x="984" 
d="M896 34q0 -14 -5 -29t-11 -15q-98 0 -197 5t-191 5t-192 -5t-198 -5q-6 0 -11 16t-5 28q0 10 5 26t11 18q118 14 155 50t37 118v878q0 82 -37 118t-155 50q-6 2 -11 18t-5 26q0 12 5 28t11 16q98 0 198 -5t192 -5t191 5t197 5q6 0 11 -15t5 -29q0 -10 -5 -27t-11 -17
q-114 -12 -152 -50t-38 -118v-878q0 -80 38 -118t152 -50q6 0 11 -17t5 -27z" />
    <glyph glyph-name="J" unicode="J" horiz-adv-x="1084" 
d="M982 1334q0 -12 -5 -28t-11 -16q-114 -12 -153 -51t-39 -119v-936q0 -356 -193 -534t-481 -178q-138 0 -252 70t-114 174q0 96 60 148t156 52q72 0 117 -50t73 -108q30 -58 60 -107t72 -49q58 0 82 78t24 278v1162q0 78 -37 117t-153 53q-6 0 -11 15t-5 29q0 10 5 27
t11 17q98 0 197 -6t191 -6t192 6t198 6q6 0 11 -17t5 -27z" />
    <glyph glyph-name="K" unicode="K" horiz-adv-x="1774" 
d="M1776 34q0 -14 -5 -29t-11 -15q-98 0 -165 5t-159 5t-204 -5t-210 -5q-6 0 -11 16t-5 28q0 10 4 26t10 18q50 6 74 21t24 43q0 12 -7 29t-25 43l-258 356q-22 32 -50 46t-86 14v-384q0 -80 30 -118t146 -50q6 0 11 -17t5 -27q0 -12 -5 -28t-11 -16q-98 0 -190 5t-184 5
t-191 -5t-197 -5q-6 0 -11 15t-5 29q0 10 5 26t11 18q116 14 153 50t37 118v878q0 82 -25 116t-181 52q-6 2 -11 18t-5 26q0 14 5 29t11 15q98 0 205 -5t199 -5t200 5t206 5q6 0 11 -16t5 -28q0 -10 -5 -27t-11 -17q-138 -14 -173 -49t-35 -119v-384q38 0 63 10t57 42
l382 364q18 18 28 33t10 35q0 26 -28 43t-98 25q-6 2 -11 18t-5 26q0 12 5 28t11 16q72 0 172 -5t178 -5q64 0 121 5t99 5q6 0 11 -15t5 -29q0 -12 -6 -28t-12 -16q-112 -12 -199 -59t-149 -107l-242 -240l470 -678q44 -64 94 -94t112 -36q6 0 11 -17t5 -27z" />
    <glyph glyph-name="L" unicode="L" horiz-adv-x="1452" 
d="M1400 506q-14 -112 -27 -274t-17 -242q-126 4 -314 7t-306 3q-128 0 -330 -4t-302 -6q-6 0 -11 15t-5 29q0 10 5 26t11 18q116 14 153 50t37 118v878q0 82 -37 118t-153 50q-6 2 -11 18t-5 26q0 14 5 29t11 15q96 0 197 -5t191 -5q92 0 192 5t198 5q6 0 11 -16t5 -28
q0 -10 -5 -27t-11 -17q-116 -12 -154 -50t-38 -118v-908q0 -72 39 -95t79 -23h114q140 0 249 132t139 296q0 4 7 6t21 2q22 0 43 -8t19 -20z" />
    <glyph glyph-name="M" unicode="M" horiz-adv-x="2118" 
d="M2072 34q0 -12 -4 -28t-10 -16q-98 0 -200 5t-194 5t-189 -5t-195 -5q-6 0 -12 15t-6 29q0 10 5 26t11 18q108 12 149 50t35 118l-36 864l-438 -1136q-2 -4 -20 -10t-40 -6q-28 0 -42 6t-18 10l-442 1092l-50 -820q-6 -82 35 -119t157 -49q6 0 9 -17t3 -27q0 -14 -6 -29
t-12 -15q-76 0 -139 5t-133 5q-72 0 -134 -5t-130 -5q-6 0 -10 17t-4 27q0 14 7 28t13 16q118 14 163 49t53 119l82 878q6 84 -36 119t-158 49q-6 2 -10 18t-4 26q0 14 7 29t13 15q50 0 134 -5t128 -5q56 0 149 5t157 5l364 -904l350 904q76 0 157 -5t133 -5q60 0 142 5
t142 5q6 0 11 -16t5 -28q0 -10 -4 -27t-10 -17q-110 -12 -149 -50t-35 -118l42 -878q4 -80 41 -118t157 -50q6 0 11 -17t5 -27z" />
    <glyph glyph-name="N" unicode="N" horiz-adv-x="1766" 
d="M1766 1336q0 -10 -5 -27t-11 -17q-112 -12 -157 -49t-47 -119l-22 -1142q0 -6 -13 -13t-43 -7q-22 0 -38 3t-24 13l-972 982l-12 -714q-4 -78 42 -117t162 -51q6 0 11 -15t5 -29q0 -12 -5 -28t-11 -16q-76 0 -140 5t-134 5q-72 0 -133 -5t-129 -5q-6 0 -11 16t-5 28
q0 14 6 28t12 16q114 12 158 50t44 118l32 814q2 108 -44 163t-174 69q-6 2 -10 18t-4 26q0 14 5 29t11 15q48 0 114 -5t108 -5q54 0 102 5t124 5l868 -904v648q0 82 -48 118t-164 50q-6 2 -11 16t-5 28q0 12 5 28t11 16q78 0 133 -6t125 -6q72 0 142 6t136 6q6 0 11 -15
t5 -29z" />
    <glyph glyph-name="O" unicode="O" horiz-adv-x="1740" 
d="M1654 678q0 -300 -205 -510t-579 -210t-580 211t-206 509t206 516t580 218q366 0 575 -215t209 -519zM1242 678q0 276 -80 457t-292 181q-214 0 -293 -183t-79 -455q0 -278 79 -451t293 -173q212 0 292 174t80 450z" />
    <glyph glyph-name="P" unicode="P" horiz-adv-x="1494" 
d="M1430 946q0 -194 -161 -307t-439 -113q-40 0 -73 4t-67 12v-296q0 -80 38 -118t154 -50q6 0 11 -17t5 -27q0 -12 -5 -28t-11 -16q-98 0 -198 5t-192 5t-191 -5t-197 -5q-6 0 -11 15t-5 29q0 10 5 26t11 18q116 14 153 50t37 118v910q0 66 -39 95t-151 41q-6 2 -11 18
t-5 26q0 14 5 29t11 15q98 0 205 -5t199 -5t160 5t166 5q316 0 456 -116t140 -318zM1018 974q0 174 -54 241t-154 67q-64 0 -92 -30t-28 -96v-460q0 -46 41 -59t57 -13q118 0 174 88t56 262z" />
    <glyph glyph-name="Q" unicode="Q" horiz-adv-x="1740" 
d="M1600 -342q0 -10 -4 -26t-12 -18q-40 -10 -109 -21t-153 -11q-208 0 -394 96t-278 302q-276 62 -421 254t-145 444q0 298 206 516t580 218q366 0 575 -215t209 -519q0 -248 -143 -440t-409 -254q54 -166 140 -228t230 -62q20 0 49 2t63 6q6 2 11 -14t5 -30zM1242 678
q0 276 -80 457t-292 181q-214 0 -293 -183t-79 -455q0 -276 79 -450t293 -174q212 0 292 174t80 450z" />
    <glyph glyph-name="R" unicode="R" horiz-adv-x="1618" 
d="M1668 34q-2 -12 -9 -28t-13 -16q-56 0 -148 5t-126 5q-48 0 -126 -5t-126 -5l-252 512q-30 60 -72 83t-114 23v-362q0 -80 30 -118t146 -50q6 0 11 -17t5 -27q0 -12 -5 -28t-11 -16q-98 0 -190 5t-184 5t-191 -5t-197 -5q-6 0 -11 15t-5 29q0 10 5 26t11 18
q116 14 153 50t37 118v878q0 82 -37 118t-153 50q-6 2 -11 18t-5 26q0 14 5 29t11 15q98 0 201 -5t195 -5t164 5t170 5q324 0 468 -107t144 -251q0 -136 -65 -219t-211 -127l274 -458q42 -70 86 -100t136 -40q6 0 9 -17t1 -27zM1026 986q0 154 -56 225t-172 71
q-72 0 -94 -28t-22 -98v-452q12 -2 35 -4t43 -2q142 0 204 64t62 224z" />
    <glyph glyph-name="S" unicode="S" horiz-adv-x="1346" 
d="M892 824q118 -70 222 -167t104 -245q0 -212 -153 -333t-385 -121q-142 0 -243 39t-231 63q-2 72 -2 192t-6 212q0 6 17 11t29 5q14 0 27 -4t15 -12q38 -178 159 -294t235 -116q116 0 167 51t51 139q0 108 -104 182t-224 144q-122 70 -226 166t-104 236q0 186 141 313
t387 127q110 0 190 -27t172 -45q2 -72 7 -180t13 -178q0 -6 -17 -11t-27 -5q-14 0 -28 4t-18 12q-38 156 -112 245t-182 89q-94 0 -148 -50t-54 -126q0 -100 101 -171t227 -145z" />
    <glyph glyph-name="T" unicode="T" horiz-adv-x="1550" 
d="M1520 912q0 -10 -15 -18t-35 -8q-8 0 -22 3t-16 7q-28 110 -133 243t-197 133h-30q-46 0 -66 -19t-20 -59v-948q0 -80 38 -118t154 -50q6 0 11 -17t5 -27q0 -12 -5 -28t-11 -16q-96 0 -197 5t-191 5q-92 0 -192 -5t-198 -5q-6 0 -11 16t-5 28q0 10 5 26t11 18
q118 14 155 50t37 118v948q0 44 -18 61t-68 17h-16q-82 0 -202 -123t-170 -253q-2 -6 -15 -8t-21 -2q-18 0 -35 8t-17 18q20 100 43 245t33 241q70 -12 218 -20t466 -8q272 0 453 8t239 20q6 -96 16 -228t22 -258z" />
    <glyph glyph-name="U" unicode="U" horiz-adv-x="1664" 
d="M1662 1336q0 -10 -5 -27t-11 -17q-116 -12 -156 -48t-40 -120v-630q0 -218 -134 -377t-408 -159q-332 0 -505 147t-173 453v566q0 82 -37 118t-155 50q-6 2 -11 18t-5 26q0 12 5 28t11 16q98 0 198 -5t192 -5q90 0 191 5t197 5q6 0 11 -16t5 -28q0 -10 -5 -27t-11 -17
q-116 -12 -154 -50t-38 -118v-634q0 -204 76 -300t272 -96q178 0 263 112t85 308v610q0 82 -39 118t-155 50q-6 2 -11 18t-5 26q0 14 5 29t11 15q66 0 128 -5t132 -5t129 5t131 5q6 0 11 -16t5 -28z" />
    <glyph glyph-name="V" unicode="V" horiz-adv-x="1608" 
d="M1638 1336q-2 -10 -9 -27t-13 -17q-86 -6 -130 -54t-90 -146l-530 -1118q-4 -6 -18 -11t-42 -5q-26 0 -41 5t-19 11l-478 1118q-48 112 -86 151t-132 49q-6 2 -12 18t-6 26q0 12 6 28t12 16q96 0 187 -5t173 -5q92 0 193 5t199 5q6 0 10 -17t4 -27t-4 -27t-10 -17
q-88 -4 -124 -22t-38 -62q-2 -18 7 -46t13 -38l296 -700l310 676q6 14 15 46t9 50q-2 46 -22 68t-132 28q-6 2 -9 18t-3 26q-2 14 3 29t11 15q86 0 130 -5t126 -5q66 0 112 5t116 5q6 0 11 -16t5 -28z" />
    <glyph glyph-name="W" unicode="W" horiz-adv-x="2360" 
d="M2394 1342q0 -10 -6 -30t-16 -20q-58 -4 -109 -61t-105 -161l-558 -1096q-4 -4 -22 -10t-38 -6q-26 0 -41 6t-19 10l-236 506l-350 -506q-4 -4 -16 -10t-44 -6q-20 0 -38 6t-22 10l-528 1118q-52 108 -82 147t-146 53q-6 2 -14 18t-8 26q0 12 4 28t10 16q100 0 179 -5
t171 -5t149 5t155 5q6 0 12 -15t6 -29q0 -10 -2 -27t-8 -17q-50 -2 -73 -17t-23 -41q0 -20 13 -52t27 -58l388 -790l184 264l-230 494q-62 130 -103 163t-85 37q-6 2 -14 18t-8 26q0 12 5 28t11 16q98 0 158 -5t152 -5q90 0 156 5t164 5q6 0 11 -16t5 -28q0 -10 -2 -27
t-8 -17q-54 0 -78 -21t-24 -51q0 -24 10 -49t20 -47l94 -192l116 168q32 46 47 75t15 55q0 30 -24 45t-86 17q-6 2 -9 18t-3 26q0 14 6 29t12 15q68 0 120 -5t84 -5q48 0 87 5t99 5q4 0 8 -12t4 -26q0 -10 -6 -30t-16 -20q-40 -2 -83 -40t-83 -94l-234 -342l208 -430
l360 714q18 36 28 64t10 54q0 32 -22 52t-82 22q-6 2 -9 18t-3 26q0 14 6 29t12 15q70 0 112 -5t80 -5q50 0 93 5t113 5q4 0 8 -12t4 -26z" />
    <glyph glyph-name="X" unicode="X" horiz-adv-x="1678" 
d="M1672 34q0 -12 -5 -28t-11 -16q-70 0 -187 5t-193 5q-92 0 -212 -5t-218 -5q-6 0 -11 15t-5 29q0 10 5 26t11 18q74 10 107 21t33 45q0 16 -12 40t-38 62l-202 294l-240 -294q-18 -20 -29 -44t-11 -40q0 -36 34 -56t106 -28q6 0 9 -17t3 -27q0 -12 -5 -28t-11 -16
q-96 0 -152 5t-136 5q-64 0 -116 -5t-128 -5q-6 0 -11 15t-5 29q0 10 8 26t14 18q90 10 158 54t138 128l316 364l-326 476q-64 92 -119 136t-169 56q-6 2 -11 18t-5 26q0 12 5 28t11 16q70 0 183 -5t189 -5q92 0 216 5t222 5q6 0 11 -16t5 -28q0 -10 -5 -27t-11 -17
q-72 -8 -103 -25t-31 -43q0 -24 15 -53t29 -47l186 -270l226 270q14 18 25 38t11 40q0 32 -29 54t-141 36q-6 2 -9 18t-3 26q0 12 5 28t11 16q98 0 161 -5t155 -5q76 0 111 5t131 5q6 0 11 -16t5 -28q0 -10 -8 -27t-14 -17q-80 -6 -142 -46t-156 -144l-290 -334l358 -522
q62 -86 114 -122t156 -46q6 0 11 -17t5 -27z" />
    <glyph glyph-name="Y" unicode="Y" horiz-adv-x="1558" 
d="M1626 1336q0 -10 -8 -27t-14 -17q-82 -8 -141 -46t-119 -122l-352 -510v-368q0 -80 30 -118t146 -50q6 0 11 -17t5 -27q0 -12 -5 -28t-11 -16q-98 0 -190 5t-184 5t-191 -5t-197 -5q-6 0 -11 15t-5 29q0 10 5 26t11 18q116 14 153 50t37 118v366l-324 512
q-54 84 -109 120t-165 48q-6 2 -11 18t-5 26q0 12 5 28t11 16q70 0 171 -5t179 -5q80 0 207 5t225 5q6 0 11 -15t5 -29q0 -10 -5 -27t-11 -17q-72 -8 -102 -27t-30 -45q0 -20 12 -44t30 -52l254 -394l264 394q16 24 26 45t10 41q0 30 -28 51t-112 31q-6 2 -8 18t-2 26
q0 14 5 29t11 15q86 0 142 -5t138 -5q62 0 114 5t106 5q6 0 11 -16t5 -28z" />
    <glyph glyph-name="Z" unicode="Z" horiz-adv-x="1484" 
d="M1396 442q-10 -108 -21 -235t-15 -225q-60 12 -236 15t-426 3q-248 0 -396 -3t-204 -15q-14 -2 -22 9t-8 27q0 4 2 8t2 6l870 1240h-328q-152 0 -253 -108t-149 -252q-4 -6 -17 -9t-21 -3q-20 0 -36 9t-16 19q16 86 36 218t28 242q52 -10 201 -14t391 -4q230 0 396 3
t214 15q12 4 21 -10t9 -26q0 -4 -1 -8t-3 -6l-868 -1240h348q142 0 263 116t151 244q0 6 14 9t24 3q20 0 36 -9t14 -19z" />
    <glyph glyph-name="bracketleft" horiz-adv-x="926" 
d="M910 -210q2 -6 3 -21t-7 -27q-6 -10 -17 -23t-17 -9q-48 20 -123 32t-155 12q-114 0 -207 -23t-127 -23q-12 0 -24 11t-12 25q0 112 8 354t8 378q0 24 -51 34t-109 18q-6 2 -12 18t-6 22t6 22t12 18q60 8 110 18t50 34q0 130 -8 375t-8 357q0 14 12 26t24 12
q32 0 130 -24t204 -24q80 0 156 12t122 32q6 4 18 -10t16 -22q6 -12 7 -27t-3 -19q-40 -68 -105 -105t-161 -37q-18 0 -36 3t-32 7q-4 -138 -6 -304t-2 -344q0 -236 2 -362t6 -286q14 4 30 7t38 3q92 0 161 -38t105 -102z" />
    <glyph glyph-name="backslash" unicode="\" horiz-adv-x="630" 
d="M598 -22q4 -10 -19 -15t-47 -5t-48 5t-30 15l-430 1448q-2 6 4 9l14 7q10 2 24 3t24 1q20 0 48 -5t30 -15z" />
    <glyph glyph-name="bracketright" horiz-adv-x="910" 
d="M22 1346q-4 6 -3 20t7 28q6 12 17 23t17 9q56 -22 119 -33t159 -11q114 0 207 23t127 23q12 0 24 -11t12 -25q0 -112 -8 -354t-8 -378q0 -24 58 -36t102 -16q6 0 12 -17t6 -23t-6 -23t-12 -17q-50 -6 -105 -19t-55 -33q0 -130 8 -375t8 -357q0 -14 -12 -26t-24 -12
q-32 0 -130 24t-204 24q-100 0 -158 -10t-120 -34q-6 -2 -16 8t-18 24t-7 27t3 19q34 64 106 103t160 39q22 0 36 -3t32 -7q4 152 6 302t2 346t-2 358t-6 290q-16 -4 -31 -7t-37 -3q-88 0 -159 39t-107 101z" />
    <glyph glyph-name="asciicircum" unicode="^" horiz-adv-x="900" 
d="M856 1026q0 -10 -7 -22t-15 -18t-16 -10t-16 -4t-15 3t-13 7l-324 142l-324 -142q-6 -2 -14 -6t-14 -4q-8 0 -16 3t-18 11t-16 19t-6 21q0 4 3 10l5 10l356 332q6 8 19 14t25 6q16 0 26 -6t16 -14l356 -332q2 -2 5 -9t3 -11z" />
    <glyph glyph-name="underscore" unicode="_" horiz-adv-x="1000" 
d="M1024 -70q0 -22 -6 -46t-18 -24h-998q-12 0 -19 24t-7 46q0 24 7 47t17 23h1000q10 0 17 -23t7 -47z" />
    <glyph glyph-name="grave" unicode="`" 
d="M602 1124q0 -10 -4 -22t-10 -16q-6 -8 -20 -16t-20 -8q-4 0 -7 1l-3 1l-376 180q-24 11 -34 32.5t-10 45.5q0 28 9.5 53.5t24.5 48.5q16 24 54 44t66 20q18 0 32.5 -5.5t25.5 -18.5l266 -322q3 -3 4.5 -8.5t1.5 -9.5z" />
    <glyph glyph-name="a" unicode="a" horiz-adv-x="1068" 
d="M1094 86q-2 -6 -2 -10t-6 -8q-38 -44 -118 -72t-164 -28q-82 0 -133 37t-67 99q-46 -70 -117 -103t-175 -33q-114 0 -193 52t-79 158q0 118 130 192t436 142l6 196q0 62 -18 82t-60 20t-77 -16t-39 -66q-10 -124 -52 -172t-124 -48q-74 0 -113 43t-39 103q0 100 163 184
t365 84q184 0 251 -92t61 -250l-10 -348q-4 -70 20 -91t46 -21q18 0 34 6t28 16q8 6 27 -15t19 -41zM602 438q-118 -28 -170 -76t-52 -138q0 -50 27 -80t75 -30q40 0 73 25t41 95z" />
    <glyph glyph-name="b" unicode="b" horiz-adv-x="1220" 
d="M1160 456q0 -182 -139 -340t-405 -158q-126 0 -183 34t-133 34q-38 0 -62 -15t-38 -47q-4 -6 -19 -10t-23 -4q-10 0 -25 5t-15 11q2 26 5 76t3 126v902q0 78 -30 104t-104 34q-6 0 -11 15t-5 25t5 26t11 16q94 22 215 66t185 76q6 4 20 10t24 6q26 0 36 -8t10 -18
q-6 -76 -11 -176t-5 -162v-280q36 50 103 80t151 30q180 0 310 -113t130 -345zM798 448q0 172 -40 251t-142 79q-72 0 -111 -46t-39 -100v-444q0 -58 30 -95t96 -37q120 0 163 123t43 269z" />
    <glyph glyph-name="c" unicode="c" horiz-adv-x="1042" 
d="M996 676q0 -54 -34 -99t-100 -45q-76 0 -107 44t-47 100q-14 50 -36 97t-78 47q-78 0 -123 -73t-45 -291q0 -152 44 -246t186 -94q78 0 156 31t118 71q2 4 13 -3t17 -15q10 -10 17 -21t7 -19q0 -4 -1 -8t-3 -8q-54 -76 -162 -130t-244 -54q-202 0 -356 130t-154 350
t153 347t377 127q148 0 275 -69t127 -169z" />
    <glyph glyph-name="d" unicode="d" horiz-adv-x="1226" 
d="M1224 102q0 -12 -5 -26t-11 -14q-58 -6 -176 -40t-178 -60q-6 -2 -20 -7t-28 -5q-16 0 -25 9t-9 17l-6 122q-38 -64 -104 -102t-158 -38q-204 0 -322 134t-118 332q0 216 130 353t358 137q74 0 124 -23t82 -49v228q0 78 -30 104t-106 34q-6 0 -11 15t-5 25t5 26t11 16
q92 20 218 67t184 75q6 4 20 10t24 6q24 0 35 -8t11 -18q-6 -76 -11 -176t-5 -162v-814q0 -72 22 -95t88 -31q6 0 11 -16t5 -26zM758 226v448q0 54 -41 91t-119 37q-70 0 -121 -66t-51 -312q0 -182 47 -255t115 -73q52 0 96 32t74 98z" />
    <glyph glyph-name="e" unicode="e" horiz-adv-x="1078" 
d="M1024 526q0 -14 -10 -22t-28 -8h-552q-2 -14 -2 -37v-43q0 -168 55 -234t159 -66q72 0 162 36t130 90q2 4 12 -3t18 -13q10 -10 17 -21t7 -21q0 -4 -1 -8t-5 -8q-50 -72 -148 -140t-262 -68q-214 0 -360 138t-146 326q0 212 139 351t367 139q208 0 328 -112t120 -276z
M692 676q0 60 -27 102t-81 42q-66 0 -98 -64t-42 -168l164 4q44 2 64 17t20 67z" />
    <glyph glyph-name="f" unicode="f" 
d="M1040 1234q0 -58 -38 -103t-112 -45q-54 0 -86 32t-54 72q-18 36 -41 71t-51 35q-48 0 -82 -29t-34 -217v-186h224q12 0 18 -24t6 -46q0 -20 -7 -46t-17 -24l-226 8v-486q0 -96 32 -128t118 -40q6 0 11 -17t5 -27q0 -14 -5 -29t-11 -15q-62 0 -156 5t-164 5t-157 -5
t-149 -5q-6 0 -11 16t-5 28q0 10 5 26t11 18q90 10 113 39t23 129v462q0 10 -6 19t-18 9h-110q-8 0 -14 17t-6 25t6 26t12 20q32 8 84 24t52 32q0 238 174 401t362 163q150 0 227 -61t77 -149z" />
    <glyph glyph-name="g" unicode="g" horiz-adv-x="1126" 
d="M1126 750q0 -22 -7 -46t-19 -24l-148 4q8 -20 13 -37t5 -49q0 -150 -114 -243t-330 -93h-24h-18h-3h-1h-1h-3q-58 -4 -95 -31t-37 -49q0 -28 18 -41t92 -13l294 -4q162 0 238 -69t76 -171q0 -202 -196 -322t-442 -120q-180 0 -289 77t-109 179q0 84 49 129t163 69
q-86 34 -128 108t-42 118q0 48 76 103t170 71q-106 48 -159 109t-53 163q0 136 111 241t323 105q90 0 177 -22t147 -78l240 6q12 2 19 -24t7 -46zM646 600q0 108 -19 163t-91 55q-74 0 -92 -77t-18 -173q0 -108 19 -159t91 -51q70 0 90 67t20 175zM872 -232q0 36 -29 51
t-111 17l-242 4q-32 0 -79 5t-69 13q-38 -8 -60 -31t-22 -77q0 -76 68 -120t192 -44q168 0 260 50t92 132z" />
    <glyph glyph-name="h" unicode="h" horiz-adv-x="1234" 
d="M1268 34q0 -12 -5 -28t-11 -16q-62 0 -143 5t-151 5q-68 0 -134 -5t-126 -5q-6 0 -11 16t-5 28q0 10 5 26t11 18q40 6 60 39t20 129v316q0 100 -24 143t-92 43q-58 0 -94 -39t-72 -125v-338q0 -88 19 -126t59 -42q6 0 11 -17t5 -27q0 -14 -5 -29t-11 -15q-62 0 -126 5
t-134 5t-151 -5t-141 -5q-6 0 -11 15t-5 29q0 10 5 26t11 18q88 10 111 39t23 129v826q0 78 -30 103t-104 33q-6 2 -11 17t-5 25t5 26t11 16q94 20 217 66t183 76q6 4 20 10t24 6q26 0 36 -8t10 -18q-6 -76 -11 -176t-5 -162v-356q44 94 130 139t172 45q150 0 234 -93
t84 -211v-364q0 -96 24 -128t112 -40q6 0 11 -17t5 -27z" />
    <glyph glyph-name="i" unicode="i" horiz-adv-x="658" 
d="M524 1248q0 -76 -54 -130t-128 -54t-128 54t-54 130q0 74 54 128t128 54t128 -54t54 -128zM674 34q0 -12 -5 -28t-11 -16q-62 0 -155 5t-163 5q-68 0 -150 -5t-142 -5q-6 0 -11 16t-5 28q0 10 5 26t11 18q74 8 105 40t31 128v300q0 80 -31 104t-105 32q-6 2 -11 17t-5 25
t5 26t11 16q96 20 216 65t186 77q6 4 20 10t24 6q24 0 35 -8t9 -18q-4 -70 -10 -170t-6 -168v-314q0 -94 32 -128t104 -40q6 0 11 -17t5 -27z" />
    <glyph glyph-name="j" unicode="j" horiz-adv-x="620" 
d="M514 1248q0 -76 -54 -130t-128 -54t-128 54t-54 130q0 74 54 128t128 54t128 -54t54 -128zM528 896q-4 -70 -10 -170t-6 -168v-600q0 -166 -133 -295t-359 -221q-8 -2 -27 25t-19 43q0 4 2 9t6 7q106 62 149 136t43 188v694q0 78 -31 104t-105 34q-6 0 -11 15t-5 25t5 26
t11 16q96 22 211 64t191 78q6 4 20 10t24 6q24 0 35 -8t9 -18z" />
    <glyph glyph-name="k" unicode="k" horiz-adv-x="1252" 
d="M1280 34q0 -14 -5 -29t-11 -15q-62 0 -122 6t-130 6t-162 -6t-152 -6q-6 0 -11 16t-5 28q0 10 5 26t11 18q30 4 43 12t13 24t-10 40t-44 60l-146 162q-10 10 -23 15t-35 5v-150q0 -88 20 -126t60 -42q6 0 11 -17t5 -27q0 -12 -5 -28t-11 -16q-62 0 -123 6t-131 6
q-68 0 -154 -6t-146 -6q-6 0 -11 15t-5 29q0 10 5 26t11 18q74 8 104 38t30 130v826q0 78 -31 104t-103 34q-6 2 -11 17t-5 25t5 25t11 15q96 22 211 65t191 79q6 4 20 10t24 6q24 0 35 -9t9 -17q-4 -70 -10 -172t-6 -166v-604q14 0 28 4t28 16l182 150q40 34 56 56t16 38
q0 20 -19 31t-77 17q-6 0 -11 16t-5 28t5 28t11 16q64 0 119 -6t113 -6q46 0 100 6t114 6q6 0 11 -16t5 -28q0 -10 -5 -27t-11 -17q-50 -4 -120 -34t-168 -108l-96 -80l298 -360q56 -60 104 -96t90 -40q6 0 11 -17t5 -27z" />
    <glyph glyph-name="l" unicode="l" horiz-adv-x="630" 
d="M644 34q0 -12 -5 -28t-11 -16q-62 0 -155 6t-163 6q-68 0 -150 -6t-142 -6q-6 0 -11 16t-5 28q0 10 5 26t11 18q74 8 105 40t31 128v826q0 80 -30 105t-106 33q-6 2 -11 17t-5 25t5 25t11 15q96 22 211 65t191 79q6 4 20 10t24 6q24 0 35 -9t9 -17q-4 -70 -10 -172
t-6 -166v-842q0 -94 32 -128t104 -40q6 0 11 -17t5 -27z" />
    <glyph glyph-name="m" unicode="m" horiz-adv-x="1906" 
d="M1940 34q0 -12 -5 -28t-11 -16q-62 0 -143 5t-151 5t-139 -5t-129 -5q-6 0 -11 15t-5 29q0 10 5 26t11 18q58 8 72 39t14 129v316q0 96 -24 141t-90 45q-72 0 -106 -34t-76 -108v-360q0 -94 15 -128t71 -40q6 0 11 -17t5 -27q0 -14 -5 -29t-11 -15q-62 0 -110 5t-118 5
t-148 -5t-138 -5q-6 0 -11 16t-5 28q0 10 5 26t11 18q58 8 73 39t15 129v316q0 96 -32 141t-100 45q-62 0 -97 -42t-69 -122v-338q0 -94 16 -128t72 -40q6 0 11 -17t5 -27q0 -12 -5 -28t-11 -16q-62 0 -131 5t-139 5q-68 0 -150 -5t-142 -5q-6 0 -11 15t-5 29q0 10 5 26
t11 18q88 10 111 39t23 129v316q0 80 -19 104t-91 32q-6 2 -11 17t-5 25t5 26t11 16q66 16 182 60t180 74q6 4 20 10t24 6q24 0 35 -8t11 -18l-10 -192q56 110 140 155t168 45q108 0 200 -54t122 -148q60 106 148 154t190 48q150 0 232 -93t82 -211v-364q0 -98 24 -129
t112 -39q6 0 11 -17t5 -27z" />
    <glyph glyph-name="n" unicode="n" horiz-adv-x="1252" 
d="M1286 32q0 -12 -5 -28t-11 -16q-62 0 -143 6t-151 6q-68 0 -134 -6t-126 -6q-6 0 -11 16t-5 28t5 27t11 17q40 6 60 39t20 129v318q0 100 -23 142t-93 42q-58 0 -94 -39t-72 -125v-338q0 -88 19 -126t59 -42q6 0 11 -15t5 -29t-5 -29t-11 -15q-62 0 -126 6t-134 6
t-151 -6t-141 -6q-6 0 -11 15t-5 29t5 28t11 16q88 12 111 41t23 127v314q0 84 -18 107t-92 31q-6 0 -11 16t-5 26t5 25t11 15q68 18 187 63t175 73q6 4 20 10t24 6q24 0 35 -9t9 -17l-8 -192q40 98 127 150t183 52q150 0 234 -94t84 -210v-366q0 -96 24 -127t112 -41
q6 0 11 -17t5 -27z" />
    <glyph glyph-name="o" unicode="o" horiz-adv-x="1190" 
d="M1126 430q0 -190 -135 -331t-395 -141q-258 0 -395 140t-137 332q0 190 136 337t396 147q254 0 392 -145t138 -339zM762 432q0 192 -32 289t-134 97t-135 -99t-33 -287q0 -194 33 -286t135 -92q100 0 133 93t33 285z" />
    <glyph glyph-name="p" unicode="p" horiz-adv-x="1250" 
d="M1186 464q0 -206 -135 -355t-371 -149q-62 0 -107 12t-81 32v-276q0 -96 32 -128t120 -40q6 0 11 -17t5 -27q0 -12 -5 -28t-11 -16q-64 0 -158 5t-164 5t-157 -5t-147 -5q-6 0 -11 15t-5 29q0 10 5 26t11 18q88 10 111 39t23 129v830q0 78 -19 104t-91 34q-6 2 -11 17
t-5 25t5 25t11 15q68 18 187 63t175 73q6 4 20 10t24 6q24 0 35 -9t9 -17l-8 -156q34 64 107 115t191 51q188 0 296 -130t108 -320zM798 168q16 48 21 118t5 162q0 162 -46 234t-120 72q-62 0 -93 -24t-73 -100v-424q0 -70 36 -111t112 -41q66 0 104 30t54 84z" />
    <glyph glyph-name="q" unicode="q" horiz-adv-x="1204" 
d="M1260 -484q0 -12 -5 -28t-11 -16q-62 0 -149 6t-157 6q-68 0 -164 -6t-156 -6q-6 0 -11 15t-5 29t5 29t11 15q92 12 121 39t29 131v338q-40 -56 -102 -82t-150 -26q-204 0 -322 134t-118 332q0 214 159 351t385 137q122 0 181 -33t135 -33q30 0 60 18t38 44q2 6 18 9
t24 3q14 0 27 -5t13 -11q-2 -34 -5 -83t-3 -119v-974q0 -100 24 -130t112 -40q6 0 11 -16t5 -28zM768 196v478q0 52 -35 91t-107 39q-86 0 -137 -72t-51 -306q0 -174 45 -251t123 -77q58 0 95 22t67 76z" />
    <glyph glyph-name="r" unicode="r" horiz-adv-x="978" 
d="M982 752q0 -70 -41 -115t-107 -45q-42 0 -70 18t-46 36q-18 20 -39 38t-47 18q-42 0 -67 -26t-53 -76v-352q0 -94 32 -127t120 -43q6 0 11 -16t5 -28q0 -10 -5 -27t-11 -17q-62 0 -157 6t-165 6q-68 0 -156 -6t-148 -6q-6 0 -11 17t-5 27q0 12 5 28t11 16q88 12 112 42
t24 128v314q0 80 -19 105t-93 33q-6 0 -11 15t-5 25t5 26t11 16q66 16 182 60t180 74q6 4 20 10t24 6q24 0 35 -8t11 -18l-10 -192q46 86 124 144t146 58q98 0 153 -45t55 -119z" />
    <glyph glyph-name="s" unicode="s" horiz-adv-x="950" 
d="M638 544q84 -36 159 -95t75 -165q0 -142 -113 -232t-293 -90q-128 0 -184 28t-160 28q-6 50 -16 143t-18 133q-2 6 15 11t27 5q14 0 29 -5t17 -11q42 -106 118 -171t154 -65q60 0 90 32t30 88q0 66 -76 103t-154 73q-86 38 -159 100t-73 170q0 124 125 208t273 84
q96 0 165 -24t137 -24q0 -44 4 -120t8 -126q0 -6 -17 -11t-27 -5q-14 0 -28 4t-16 12q-22 92 -81 145t-123 53q-60 0 -92 -24t-32 -76q0 -68 80 -106t156 -70z" />
    <glyph glyph-name="t" unicode="t" horiz-adv-x="854" 
d="M832 804q0 -22 -7 -47t-19 -25l-298 8v-518q0 -56 23 -83t79 -27q44 0 83 23t67 57q8 12 20 8t22 -14q8 -10 15 -25t7 -25v-8t-4 -6q-42 -54 -128 -103t-202 -49q-164 0 -248 87t-82 283l4 376q0 12 -6 20t-18 8h-124q-8 0 -14 18t-6 26t6 25t12 21q112 60 225 141
t191 161q4 6 19 11t25 5q14 0 29 -5t15 -11l-8 -262h296q12 0 19 -26t7 -44z" />
    <glyph glyph-name="u" unicode="u" horiz-adv-x="1252" 
d="M1250 80q0 -14 -5 -26t-11 -12q-62 -6 -182 -28t-184 -42q-6 0 -20 -5t-28 -5q-16 0 -25 9t-9 15l-10 140q-46 -82 -122 -123t-184 -41q-156 0 -240 90t-84 254v322q0 90 -31 119t-111 27q-6 0 -11 14t-5 28t5 30t11 16q68 0 214 14t222 32q18 6 32 -8t14 -20v-614
q0 -78 33 -117t101 -39q48 0 86 38t62 98v382q0 86 -31 117t-113 29q-6 0 -11 15t-5 27q0 14 5 30t11 16q66 0 214 12t224 30q18 6 31 -8t13 -20v-610q0 -86 23 -111t105 -31q6 0 11 -17t5 -27z" />
    <glyph glyph-name="v" unicode="v" horiz-adv-x="1080" 
d="M1138 842q0 -12 -5 -28t-11 -16q-68 -8 -111 -43t-75 -95l-336 -684q-6 -8 -19 -12t-41 -4q-32 0 -43 5t-15 11l-342 684q-36 72 -62 99t-116 39q-6 0 -11 15t-5 29t5 29t11 15q62 0 144 -6t152 -6t158 6t148 6q6 0 11 -16t5 -28t-5 -28t-11 -16q-56 -6 -78 -21t-22 -41
q0 -22 7 -40t15 -36l160 -338l168 338l12 30t4 28q0 32 -22 52t-82 28q-6 0 -11 16t-5 28t5 28t11 16q62 0 109 -6t105 -6q34 0 82 6t100 6q6 0 11 -16t5 -28z" />
    <glyph glyph-name="w" unicode="w" horiz-adv-x="1668" 
d="M1726 842q0 -12 -5 -28t-11 -16q-68 -8 -111 -43t-75 -95l-336 -684q-4 -8 -19 -12t-39 -4q-34 0 -45 5t-15 11l-224 518l-278 -518q-6 -8 -19 -12t-41 -4q-32 0 -44 5t-16 11l-310 684q-30 70 -71 100t-105 38q-6 0 -11 15t-5 29t5 29t11 15q62 0 144 -6t152 -6t141 6
t131 6q6 0 11 -15t5 -29t-5 -29t-11 -15q-34 -4 -51 -16t-17 -40q0 -16 7 -38t17 -44l148 -328l160 286l-18 42q-38 86 -67 110t-55 28q-6 0 -11 16t-5 28t5 28t11 16q62 0 116 -6t124 -6t158 6t148 6q6 0 11 -16t5 -28t-5 -28t-11 -16q-52 -6 -73 -21t-21 -47q0 -14 4 -29
t14 -41l126 -328l152 328q8 20 12 34t4 28q0 30 -20 49t-76 27q-6 0 -11 16t-5 28t5 28t11 16q62 0 105 -6t101 -6q34 0 82 6t100 6q6 0 11 -16t5 -28z" />
    <glyph glyph-name="x" unicode="x" horiz-adv-x="1156" 
d="M1166 34q0 -14 -5 -29t-11 -15q-62 0 -149 5t-157 5t-166 -5t-156 -5q-6 0 -11 15t-5 29q0 10 5 26t11 18q34 4 49 11t15 21t-11 36t-39 68l-64 104l-76 -108q-26 -36 -36 -55t-10 -35q0 -18 14 -28t52 -14q6 0 10 -17t4 -27q0 -14 -5 -29t-11 -15q-48 0 -101 5t-101 5
q-60 0 -109 -5t-91 -5q-6 0 -11 16t-5 28q0 10 6 26t12 18q100 12 142 31t112 105l148 182l-188 264q-72 98 -107 112t-125 24q-6 2 -11 16t-5 28t5 29t11 15q62 0 150 -6t158 -6t162 6t152 6q6 0 11 -16t5 -28q0 -10 -5 -27t-11 -17q-32 -2 -47 -11t-15 -23t13 -38t43 -64
l72 -102l72 104q24 36 36 55t12 41q0 18 -15 25t-53 13q-6 2 -11 17t-5 27t5 28t11 16q48 0 109 -6t109 -6q60 0 101 6t83 6q6 0 11 -15t5 -29q0 -10 -5 -27t-11 -17q-90 -8 -136 -31t-116 -107l-146 -182l178 -262q54 -78 95 -102t137 -34q6 0 11 -17t5 -27z" />
    <glyph glyph-name="y" unicode="y" horiz-adv-x="1090" 
d="M1118 840q0 -14 -5 -29t-11 -15q-68 -6 -112 -41t-72 -97l-376 -808q-108 -228 -176 -317t-180 -89q-78 0 -122 38t-44 102q0 62 44 105t110 43q52 0 83 -19t57 -19q24 0 55 37t89 173l28 64l-348 690q-32 66 -65 97t-111 41q-6 2 -11 16t-5 28t5 29t11 15q62 0 144 -6
t152 -6t157 6t149 6q6 0 11 -16t5 -28q0 -10 -5 -27t-11 -17q-46 -4 -73 -18t-27 -44q0 -22 7 -40t15 -36l160 -338l150 338q8 20 11 30t3 28q0 32 -22 52t-80 28q-6 2 -11 16t-5 28t5 29t11 15q62 0 109 -6t105 -6q34 0 82 6t98 6q6 0 11 -15t5 -29z" />
    <glyph glyph-name="z" unicode="z" horiz-adv-x="1000" 
d="M964 306q-24 -62 -48 -168t-36 -148q-36 8 -141 10t-271 2q-168 0 -270 -2t-138 -8q-8 -2 -16 12t-8 28q0 6 2 12t4 10l506 722h-178q-84 0 -136 -52t-82 -142q-4 -8 -19 -12t-29 -4q-10 0 -25 5t-15 11q20 54 45 152t37 162q34 -8 112 -11t248 -3q122 0 261 2t165 10
q8 2 15 -10t7 -28q0 -8 -1 -14t-5 -10l-502 -720h228q62 0 122 63t80 131q0 8 18 12t28 4q14 0 29 -5t13 -11z" />
    <glyph glyph-name="braceleft" horiz-adv-x="884" 
d="M800 -248q0 -12 -5 -28t-11 -16q-266 0 -382 100t-110 252l16 316q4 68 -33 106t-143 46q-6 0 -12 17t-6 23t6 23t12 17q100 8 141 47t35 105l-16 316q-8 156 105 255t387 99q6 0 11 -17t5 -27q0 -12 -5 -28t-11 -16q-96 -14 -124 -51t-26 -129l16 -372q4 -76 -54 -147
t-210 -75q146 -4 208 -77t56 -145l-16 -372q-4 -86 27 -126t123 -52q6 0 11 -17t5 -27z" />
    <glyph glyph-name="bar" unicode="|" horiz-adv-x="290" 
d="M236 -4q0 -12 -26 -16t-46 -4q-22 0 -47 4t-25 16v1392q0 12 25 16t47 4q20 0 46 -5t26 -15v-1392z" />
    <glyph glyph-name="braceright" horiz-adv-x="884" 
d="M120 1386q0 12 5 28t11 16q264 0 382 -101t110 -251l-16 -316q-6 -62 38 -104t138 -48q6 0 12 -17t6 -23t-6 -23t-12 -17q-100 -6 -140 -46t-36 -106l16 -316q6 -156 -106 -255t-386 -99q-6 0 -11 17t-5 27q0 12 5 28t11 16q92 14 123 53t27 127l-16 372q-6 76 53 146
t211 76q-142 6 -205 73t-59 149l16 372q2 92 -26 128t-124 50q-6 2 -11 18t-5 26z" />
    <glyph glyph-name="asciitilde" unicode="~" horiz-adv-x="900" 
d="M848 602q-28 -180 -90 -240t-160 -48l-270 26q-64 6 -108 -24t-76 -88q-2 -4 -6 -6t-12 -2q-20 0 -39 14t-13 48q28 148 98 229t206 65l232 -26q72 -6 109 22t59 84q0 4 7 6t13 2q16 0 36 -16t14 -46z" />
    <glyph glyph-name="Adieresis" unicode="&#xc4;" horiz-adv-x="1594" 
d="M1582 34q0 -12 -5 -28t-11 -16q-96 0 -194 5t-180 5q-92 0 -197 -5t-203 -5q-6 0 -11 15t-5 29q0 10 3 26t9 18q96 6 127 25t31 59q0 16 -7 40t-15 44l-54 140h-420l-48 -116q-12 -28 -19 -53t-7 -43q0 -42 23 -67t127 -29q6 0 8 -17t2 -27q0 -14 -5 -29t-11 -15
q-86 0 -134 5t-128 5q-66 0 -116 -5t-118 -5q-6 0 -10 17t-4 27t9 26t15 18q86 8 134 52t98 148l496 1118q2 6 22 11t38 5t38 -5t22 -11l444 -1118q36 -100 86 -145t150 -55q6 0 13 -17t7 -27zM832 482l-168 440l-176 -440h344zM1266 1702q0 -74 -56 -130t-130 -56
q-76 0 -131 56t-55 130t55 130t131 56q74 0 130 -56t56 -130zM762 1702q0 -74 -56 -130t-130 -56q-76 0 -131 56t-55 130t55 130t131 56q74 0 130 -56t56 -130z" />
    <glyph glyph-name="Aring" unicode="&#xc5;" horiz-adv-x="1594" 
d="M900 482l-168 440l-176 -440h344zM1016 1540q0 56 -35 97t-91 41q-50 0 -88 -41t-38 -97q0 -62 36 -101t90 -39q58 0 92 38t34 102zM800 1328q-66 26 -108 84t-42 128q0 86 68 156t172 70t172 -70t68 -156q0 -70 -42 -130t-112 -84l418 -1048q36 -100 87 -146t149 -54
q6 0 13 -19t7 -27q0 -10 -5 -27t-11 -17q-92 0 -192 6t-182 6q-90 0 -196 -6t-204 -6l-8 17t-8 27q0 12 6 29l6 17q96 0 127 22t31 62q0 14 -7 39t-15 45l-54 140h-420l-48 -116q-8 -30 -17 -56t-9 -40q0 -42 29 -69t121 -27q6 0 8 -19t2 -27q0 -10 -5 -27t-11 -17
q-84 0 -133 6t-129 6q-62 0 -114 -6t-120 -6l-7 17t-7 27q0 8 12 27l12 19q86 6 135 50t97 150z" />
    <glyph glyph-name="Ccedilla" unicode="&#xc7;" horiz-adv-x="1586" 
d="M1474 480q-12 -92 -29 -229t-25 -207q-90 0 -223 -43t-285 -43q-204 0 -361 61t-261 161t-155 229t-51 269q0 290 229 512t615 222q170 0 280 -30t202 -30q4 -96 12 -216t16 -220q0 -6 -18 -11t-32 -5q-10 0 -23 4t-17 12q-26 146 -149 273t-279 127q-236 0 -330 -181
t-94 -457q0 -270 93 -447t323 -177q184 0 300 128t174 298q2 8 17 12t25 4t28 -5t18 -11zM1070 -284q0 -84 -86 -132t-170 -48q-74 0 -109 25t-35 55q0 24 14 43t46 19q38 0 66 -30t60 -30q24 0 35 14t11 50t-44 67t-80 49q-8 4 -14 12t-6 18q0 4 2 9t4 9l124 182h112
l-56 -98q-4 -4 -5 -9t-1 -9q0 -8 4 -15t16 -15q48 -30 80 -63t32 -103z" />
    <glyph glyph-name="Eacute" unicode="&#xc9;" horiz-adv-x="1530" 
d="M1420 458q-14 -112 -27 -237t-19 -231q-126 4 -316 7t-306 3t-330 -4t-320 -6q-6 0 -11 16t-5 28q0 10 5 26t11 18q118 14 155 50t37 118v878q0 82 -37 118t-155 50q-6 2 -11 18t-5 26q0 12 5 28t11 16q106 -2 304 -6t326 -4q108 0 306 3t320 7q-4 -82 3 -212t11 -234
q0 -8 -15 -17t-41 -9q-14 0 -24 4t-10 8q-16 126 -105 239t-251 113h-120q-40 0 -78 -20t-38 -98v-414h68q100 0 161 60t71 158q0 6 17 11t27 5q14 0 29 -5t15 -11q0 -74 -5 -138t-5 -132q0 -70 5 -131t5 -133q0 -6 -15 -11t-29 -5q-10 0 -26 5t-18 11q-12 104 -67 161
t-165 57h-68v-426q0 -72 38 -95t78 -23h104q152 0 270 110t148 270q0 4 9 6t21 2q22 0 43 -8t19 -20zM1060 1770q0 -24 -10 -47t-34 -35l-396 -190q-2 0 -5 -1t-7 -1q-6 0 -20 7t-22 17q-4 6 -9 17t-5 21q0 4 2 10t4 10l284 338q8 12 26 19t34 7q32 0 68 -20t56 -46
q18 -24 26 -53t8 -53z" />
    <glyph glyph-name="Ntilde" unicode="&#xd1;" horiz-adv-x="1766" 
d="M1766 1336q0 -10 -5 -27t-11 -17q-112 -12 -157 -49t-47 -119l-22 -1142q0 -6 -13 -13t-43 -7q-22 0 -38 3t-24 13l-972 982l-12 -714q-4 -78 42 -117t162 -51q6 0 11 -15t5 -29q0 -12 -5 -28t-11 -16q-76 0 -140 5t-134 5q-72 0 -133 -5t-129 -5q-6 0 -11 16t-5 28
q0 14 6 28t12 16q114 12 158 50t44 118l32 814q2 108 -44 163t-174 69q-6 2 -10 18t-4 26q0 14 5 29t11 15q48 0 114 -5t108 -5q54 0 102 5t124 5l868 -904v648q0 82 -48 118t-164 50q-6 2 -11 16t-5 28q0 12 5 28t11 16q78 0 133 -6t125 -6q72 0 142 6t136 6q6 0 11 -15
t5 -29zM1364 1934q12 -6 23 -23t7 -37q-28 -182 -93 -250t-171 -52l-396 56q-60 8 -107 -18t-87 -100q-10 -18 -46 -5t-28 61q32 164 111 247t209 63l358 -56q62 -8 105 17t71 93q4 8 17 9t27 -5z" />
    <glyph glyph-name="Odieresis" unicode="&#xd6;" horiz-adv-x="1740" 
d="M1654 678q0 -300 -205 -510t-579 -210t-580 211t-206 509t206 516t580 218q366 0 575 -215t209 -519zM1242 678q0 276 -80 457t-292 181q-214 0 -293 -183t-79 -455q0 -278 79 -451t293 -173q212 0 292 174t80 450zM1316 1702q0 -74 -56 -130t-130 -56q-76 0 -131 56
t-55 130t55 130t131 56q74 0 130 -56t56 -130zM812 1702q0 -74 -56 -130t-130 -56q-76 0 -131 56t-55 130t55 130t131 56q74 0 130 -56t56 -130z" />
    <glyph glyph-name="Udieresis" unicode="&#xdc;" horiz-adv-x="1664" 
d="M1662 1336q0 -10 -5 -27t-11 -17q-116 -12 -156 -48t-40 -120v-630q0 -218 -134 -377t-408 -159q-332 0 -505 147t-173 453v566q0 82 -37 118t-155 50q-6 2 -11 18t-5 26q0 12 5 28t11 16q98 0 198 -5t192 -5q90 0 191 5t197 5q6 0 11 -16t5 -28q0 -10 -5 -27t-11 -17
q-116 -12 -154 -50t-38 -118v-634q0 -204 76 -300t272 -96q178 0 263 112t85 308v610q0 82 -39 118t-155 50q-6 2 -11 18t-5 26q0 14 5 29t11 15q66 0 128 -5t132 -5t129 5t131 5q6 0 11 -16t5 -28zM1354 1702q0 -74 -56 -130t-130 -56q-76 0 -131 56t-55 130t55 130t131 56
q74 0 130 -56t56 -130zM850 1702q0 -74 -56 -130t-130 -56q-76 0 -131 56t-55 130t55 130t131 56q74 0 130 -56t56 -130z" />
    <glyph glyph-name="aacute" unicode="&#xe1;" horiz-adv-x="1068" 
d="M1094 86q-2 -6 -2 -10t-6 -8q-38 -44 -118 -72t-164 -28q-82 0 -133 37t-67 99q-46 -70 -117 -103t-175 -33q-114 0 -193 52t-79 158q0 118 130 192t436 142l6 196q0 62 -18 82t-60 20t-77 -16t-39 -66q-10 -124 -52 -172t-124 -48q-74 0 -113 43t-39 103q0 100 163 184
t365 84q184 0 251 -92t61 -250l-10 -348q-4 -70 20 -91t46 -21q18 0 34 6t28 16q8 6 27 -15t19 -41zM602 438q-118 -28 -170 -76t-52 -138q0 -50 27 -80t75 -30q40 0 73 25t41 95zM948 1324q0 -20 -11.5 -44.5t-30.5 -33.5l-378 -180q-2 -1 -4 -2.5t-8 -1.5l-6 2t-12 6
t-11 8t-9 8q-4 6 -9 16t-5 20q0 4 1.5 9.5t4.5 8.5l270 322q9 11 25.5 18.5t30.5 7.5q28 0 64 -19t54 -45q15 -22 24.5 -51t9.5 -49z" />
    <glyph glyph-name="agrave" unicode="&#xe0;" horiz-adv-x="1068" 
d="M1094 86q-2 -6 -2 -10t-6 -8q-38 -44 -118 -72t-164 -28q-82 0 -133 37t-67 99q-46 -70 -117 -103t-175 -33q-114 0 -193 52t-79 158q0 118 130 192t436 142l6 196q0 62 -18 82t-60 20t-77 -16t-39 -66q-10 -124 -52 -172t-124 -48q-74 0 -113 43t-39 103q0 100 163 184
t365 84q184 0 251 -92t61 -250l-10 -348q-4 -70 20 -91t46 -21q18 0 34 6t28 16q8 6 27 -15t19 -41zM602 438q-118 -28 -170 -76t-52 -138q0 -50 27 -80t75 -30q40 0 73 25t41 95zM651 1124q0 -10 -4 -22t-10 -16q-6 -8 -20 -16t-20 -8q-4 0 -7 1l-3 1l-376 180
q-24 11 -34 32.5t-10 45.5q0 28 9.5 53.5t24.5 48.5q16 24 54 44t66 20q18 0 32.5 -5.5t25.5 -18.5l266 -322q3 -3 4.5 -8.5t1.5 -9.5z" />
    <glyph glyph-name="acircumflex" unicode="&#xe2;" horiz-adv-x="1068" 
d="M1094 86q-2 -6 -2 -10t-6 -8q-38 -44 -118 -72t-164 -28q-82 0 -133 37t-67 99q-46 -70 -117 -103t-175 -33q-114 0 -193 52t-79 158q0 118 130 192t436 142l6 196q0 62 -18 82t-60 20t-77 -16t-39 -66q-10 -124 -52 -172t-124 -48q-74 0 -113 43t-39 103q0 100 163 184
t365 84q184 0 251 -92t61 -250l-10 -348q-4 -70 20 -91t46 -21q18 0 34 6t28 16q8 6 27 -15t19 -41zM602 438q-118 -28 -170 -76t-52 -138q0 -50 27 -80t75 -30q40 0 73 25t41 95zM886 1122q0 -8 -7 -20t-15 -18t-16 -10t-14 -4t-14 3t-14 7l-246 152l-248 -152
q-5 -3 -13.5 -6.5t-14.5 -3.5t-13.5 3.5t-16.5 10.5q-10 8 -16 19t-6 19q0 6 2.5 11.5t5.5 8.5l278 332q7 8 19.5 13t22.5 5q12 0 23 -5t17 -13l278 -332q3 -3 5.5 -8.5t2.5 -11.5z" />
    <glyph glyph-name="adieresis" unicode="&#xe4;" horiz-adv-x="1068" 
d="M1094 86q-2 -6 -2 -10t-6 -8q-38 -44 -118 -72t-164 -28q-82 0 -133 37t-67 99q-46 -70 -117 -103t-175 -33q-114 0 -193 52t-79 158q0 118 130 192t436 142l6 196q0 62 -18 82t-60 20t-77 -16t-39 -66q-10 -124 -52 -172t-124 -48q-74 0 -113 43t-39 103q0 100 163 184
t365 84q184 0 251 -92t61 -250l-10 -348q-4 -70 20 -91t46 -21q18 0 34 6t28 16q8 6 27 -15t19 -41zM602 438q-118 -28 -170 -76t-52 -138q0 -50 27 -80t75 -30q40 0 73 25t41 95zM953 1198q0 -72 -52 -124t-124 -52t-120 52t-48 124t48 125t120 53t124 -53t52 -125z
M513 1198q0 -70 -56 -123t-130 -53q-72 0 -125 52t-53 124t53 125t125 53t129 -54t57 -124z" />
    <glyph glyph-name="atilde" unicode="&#xe3;" horiz-adv-x="1068" 
d="M1094 86q-2 -6 -2 -10t-6 -8q-38 -44 -118 -72t-164 -28q-82 0 -133 37t-67 99q-46 -70 -117 -103t-175 -33q-114 0 -193 52t-79 158q0 118 130 192t436 142l6 196q0 62 -18 82t-60 20t-77 -16t-39 -66q-10 -124 -52 -172t-124 -48q-74 0 -113 43t-39 103q0 100 163 184
t365 84q184 0 251 -92t61 -250l-10 -348q-4 -70 20 -91t46 -21q18 0 34 6t28 16q8 6 27 -15t19 -41zM602 438q-118 -28 -170 -76t-52 -138q0 -50 27 -80t75 -30q40 0 73 25t41 95zM940 1416q-28 -180 -90 -238.5t-160 -49.5l-270 26q-64 6 -108 -24t-76 -88q-2 -4 -6 -6
t-12 -2q-20 0 -39 14t-13 48q28 148 99 228.5t205 65.5l232 -26q72 -8 109 21t59 85q1 4 7.5 6t12.5 2q16 0 35.5 -16t14.5 -46z" />
    <glyph glyph-name="aring" unicode="&#xe5;" horiz-adv-x="1068" 
d="M1094 86q-2 -6 -2 -10t-6 -8q-38 -44 -118 -72t-164 -28q-82 0 -133 37t-67 99q-46 -70 -117 -103t-175 -33q-114 0 -193 52t-79 158q0 118 130 192t436 142l6 196q0 62 -18 82t-60 20t-77 -16t-39 -66q-10 -124 -52 -172t-124 -48q-74 0 -113 43t-39 103q0 100 163 184
t365 84q184 0 251 -92t61 -250l-10 -348q-4 -70 20 -91t46 -21q18 0 34 6t28 16q8 6 27 -15t19 -41zM602 438q-118 -28 -170 -76t-52 -138q0 -50 27 -80t75 -30q40 0 73 25t41 95zM797 1230q0 -86 -62 -152t-166 -66q-100 0 -165 67t-65 151t65 150t165 66q98 0 163 -66
t65 -150zM689 1230q0 56 -33 94t-87 38q-48 0 -84 -38t-36 -94q0 -58 34 -96t86 -38t86 38t34 96z" />
    <glyph glyph-name="ccedilla" unicode="&#xe7;" horiz-adv-x="1042" 
d="M996 676q0 -54 -34 -99t-100 -45q-76 0 -107 44t-47 100q-14 50 -36 97t-78 47q-78 0 -123 -73t-45 -291q0 -152 44 -246t186 -94q78 0 156 31t118 71q2 4 13 -3t17 -15q10 -10 17 -21t7 -19q0 -4 -1 -8t-3 -8q-54 -76 -162 -130t-244 -54q-202 0 -356 130t-154 350
t153 347t377 127q148 0 275 -69t127 -169zM746 -284q0 -84 -86 -132t-170 -48q-74 0 -109 25t-35 55q0 24 14 43t46 19q38 0 66 -30t60 -30q24 0 35 14t11 50t-44 67t-80 49q-8 4 -14 12t-6 18q0 4 2 9t4 9l124 182h112l-56 -98q-4 -4 -5 -9t-1 -9q0 -8 4 -15t16 -15
q48 -30 80 -63t32 -103z" />
    <glyph glyph-name="eacute" unicode="&#xe9;" horiz-adv-x="1078" 
d="M1024 526q0 -14 -10 -22t-28 -8h-552q-2 -14 -2 -37v-43q0 -168 55 -234t159 -66q72 0 162 36t130 90q2 4 12 -3t18 -13q10 -10 17 -21t7 -21q0 -4 -1 -8t-5 -8q-50 -72 -148 -140t-262 -68q-214 0 -360 138t-146 326q0 212 139 351t367 139q208 0 328 -112t120 -276z
M692 676q0 60 -27 102t-81 42q-66 0 -98 -64t-42 -168l164 4q44 2 64 17t20 67zM920 1324q0 -20 -11.5 -44.5t-30.5 -33.5l-378 -180q-2 -1 -4 -2.5t-8 -1.5l-6 2t-12 6t-11 8t-9 8q-4 6 -9 16t-5 20q0 4 1.5 9.5t4.5 8.5l270 322q9 11 25.5 18.5t30.5 7.5q28 0 64 -19
t54 -45q15 -22 24.5 -51t9.5 -49z" />
    <glyph glyph-name="egrave" unicode="&#xe8;" horiz-adv-x="1078" 
d="M1024 526q0 -14 -10 -22t-28 -8h-552q-2 -14 -2 -37v-43q0 -168 55 -234t159 -66q72 0 162 36t130 90q2 4 12 -3t18 -13q10 -10 17 -21t7 -21q0 -4 -1 -8t-5 -8q-50 -72 -148 -140t-262 -68q-214 0 -360 138t-146 326q0 212 139 351t367 139q208 0 328 -112t120 -276z
M692 676q0 60 -27 102t-81 42q-66 0 -98 -64t-42 -168l164 4q44 2 64 17t20 67zM694 1124q0 -10 -4 -22t-10 -16q-6 -8 -20 -16t-20 -8q-4 0 -7 1l-3 1l-376 180q-24 11 -34 32.5t-10 45.5q0 28 9.5 53.5t24.5 48.5q16 24 54 44t66 20q18 0 32.5 -5.5t25.5 -18.5l266 -322
q3 -3 4.5 -8.5t1.5 -9.5z" />
    <glyph glyph-name="ecircumflex" unicode="&#xea;" horiz-adv-x="1078" 
d="M1024 526q0 -14 -10 -22t-28 -8h-552q-2 -14 -2 -37v-43q0 -168 55 -234t159 -66q72 0 162 36t130 90q2 4 12 -3t18 -13q10 -10 17 -21t7 -21q0 -4 -1 -8t-5 -8q-50 -72 -148 -140t-262 -68q-214 0 -360 138t-146 326q0 212 139 351t367 139q208 0 328 -112t120 -276z
M692 676q0 60 -27 102t-81 42q-66 0 -98 -64t-42 -168l164 4q44 2 64 17t20 67zM939 1122q0 -8 -7 -20t-15 -18t-16 -10t-14 -4t-14 3t-14 7l-246 152l-248 -152q-5 -3 -13.5 -6.5t-14.5 -3.5t-13.5 3.5t-16.5 10.5q-10 8 -16 19t-6 19q0 6 2.5 11.5t5.5 8.5l278 332
q7 8 19.5 13t22.5 5q12 0 23 -5t17 -13l278 -332q3 -3 5.5 -8.5t2.5 -11.5z" />
    <glyph glyph-name="edieresis" unicode="&#xeb;" horiz-adv-x="1078" 
d="M1024 526q0 -14 -10 -22t-28 -8h-552q-2 -14 -2 -37v-43q0 -168 55 -234t159 -66q72 0 162 36t130 90q2 4 12 -3t18 -13q10 -10 17 -21t7 -21q0 -4 -1 -8t-5 -8q-50 -72 -148 -140t-262 -68q-214 0 -360 138t-146 326q0 212 139 351t367 139q208 0 328 -112t120 -276z
M692 676q0 60 -27 102t-81 42q-66 0 -98 -64t-42 -168l164 4q44 2 64 17t20 67zM977 1198q0 -72 -52 -124t-124 -52t-120 52t-48 124t48 125t120 53t124 -53t52 -125zM537 1198q0 -70 -56 -123t-130 -53q-72 0 -125 52t-53 124t53 125t125 53t129 -54t57 -124z" />
    <glyph glyph-name="iacute" unicode="&#xed;" horiz-adv-x="658" 
d="M674 34q0 -12 -5 -28t-11 -16q-62 0 -155 5t-163 5q-68 0 -150 -5t-142 -5q-6 0 -11 16t-5 28q0 10 5 26t11 18q74 8 105 40t31 128v300q0 80 -31 104t-105 32q-6 2 -11 17t-5 25t5 26t11 16q96 20 216 65t186 77q6 4 20 10t24 6q24 0 35 -8t9 -18q-4 -70 -10 -170
t-6 -168v-314q0 -94 32 -128t104 -40q6 0 11 -17t5 -27zM701 1324q0 -20 -11.5 -44.5t-30.5 -33.5l-378 -180q-2 -1 -4 -2.5t-8 -1.5l-6 2t-12 6t-11 8t-9 8q-4 6 -9 16t-5 20q0 4 1.5 9.5t4.5 8.5l270 322q9 11 25.5 18.5t30.5 7.5q28 0 64 -19t54 -45q15 -22 24.5 -51
t9.5 -49z" />
    <glyph glyph-name="igrave" unicode="&#xec;" horiz-adv-x="658" 
d="M674 34q0 -12 -5 -28t-11 -16q-62 0 -155 5t-163 5q-68 0 -150 -5t-142 -5q-6 0 -11 16t-5 28q0 10 5 26t11 18q74 8 105 40t31 128v300q0 80 -31 104t-105 32q-6 2 -11 17t-5 25t5 26t11 16q96 20 216 65t186 77q6 4 20 10t24 6q24 0 35 -8t9 -18q-4 -70 -10 -170
t-6 -168v-314q0 -94 32 -128t104 -40q6 0 11 -17t5 -27zM549 1124q0 -10 -4 -22t-10 -16q-6 -8 -20 -16t-20 -8q-4 0 -7 1l-3 1l-376 180q-24 11 -34 32.5t-10 45.5q0 28 9.5 53.5t24.5 48.5q16 24 54 44t66 20q18 0 32.5 -5.5t25.5 -18.5l266 -322q3 -3 4.5 -8.5t1.5 -9.5z
" />
    <glyph glyph-name="icircumflex" unicode="&#xee;" horiz-adv-x="658" 
d="M674 34q0 -12 -5 -28t-11 -16q-62 0 -155 5t-163 5q-68 0 -150 -5t-142 -5q-6 0 -11 16t-5 28q0 10 5 26t11 18q74 8 105 40t31 128v300q0 80 -31 104t-105 32q-6 2 -11 17t-5 25t5 26t11 16q96 20 216 65t186 77q6 4 20 10t24 6q24 0 35 -8t9 -18q-4 -70 -10 -170
t-6 -168v-314q0 -94 32 -128t104 -40q6 0 11 -17t5 -27zM680 1122q0 -8 -7 -20t-15 -18t-16 -10t-14 -4t-14 3t-14 7l-246 152l-248 -152q-5 -3 -13.5 -6.5t-14.5 -3.5t-13.5 3.5t-16.5 10.5q-10 8 -16 19t-6 19q0 6 2.5 11.5t5.5 8.5l278 332q7 8 19.5 13t22.5 5
q12 0 23 -5t17 -13l278 -332q3 -3 5.5 -8.5t2.5 -11.5z" />
    <glyph glyph-name="idieresis" unicode="&#xef;" horiz-adv-x="658" 
d="M674 34q0 -12 -5 -28t-11 -16q-62 0 -155 5t-163 5q-68 0 -150 -5t-142 -5q-6 0 -11 16t-5 28q0 10 5 26t11 18q74 8 105 40t31 128v300q0 80 -31 104t-105 32q-6 2 -11 17t-5 25t5 26t11 16q96 20 216 65t186 77q6 4 20 10t24 6q24 0 35 -8t9 -18q-4 -70 -10 -170
t-6 -168v-314q0 -94 32 -128t104 -40q6 0 11 -17t5 -27zM756 1198q0 -72 -52 -124t-124 -52t-120 52t-48 124t48 125t120 53t124 -53t52 -125zM316 1198q0 -70 -56 -123t-130 -53q-72 0 -125 52t-53 124t53 125t125 53t129 -54t57 -124z" />
    <glyph glyph-name="ntilde" unicode="&#xf1;" horiz-adv-x="1252" 
d="M1286 32q0 -12 -5 -28t-11 -16q-62 0 -143 6t-151 6q-68 0 -134 -6t-126 -6q-6 0 -11 16t-5 28t5 27t11 17q40 6 60 39t20 129v318q0 100 -23 142t-93 42q-58 0 -94 -39t-72 -125v-338q0 -88 19 -126t59 -42q6 0 11 -15t5 -29t-5 -29t-11 -15q-62 0 -126 6t-134 6
t-151 -6t-141 -6q-6 0 -11 15t-5 29t5 28t11 16q88 12 111 41t23 127v314q0 84 -18 107t-92 31q-6 0 -11 16t-5 26t5 25t11 15q68 18 187 63t175 73q6 4 20 10t24 6q24 0 35 -9t9 -17l-8 -192q40 98 127 150t183 52q150 0 234 -94t84 -210v-366q0 -96 24 -127t112 -41
q6 0 11 -17t5 -27zM1037 1416q-28 -180 -90 -238.5t-160 -49.5l-270 26q-64 6 -108 -24t-76 -88q-2 -4 -6 -6t-12 -2q-20 0 -39 14t-13 48q28 148 99 228.5t205 65.5l232 -26q72 -8 109 21t59 85q1 4 7.5 6t12.5 2q16 0 35.5 -16t14.5 -46z" />
    <glyph glyph-name="oacute" unicode="&#xf3;" horiz-adv-x="1190" 
d="M1126 430q0 -190 -135 -331t-395 -141q-258 0 -395 140t-137 332q0 190 136 337t396 147q254 0 392 -145t138 -339zM762 432q0 192 -32 289t-134 97t-135 -99t-33 -287q0 -194 33 -286t135 -92q100 0 133 93t33 285zM996 1324q0 -20 -11.5 -44.5t-30.5 -33.5l-378 -180
q-2 -1 -4 -2.5t-8 -1.5l-6 2t-12 6t-11 8t-9 8q-4 6 -9 16t-5 20q0 4 1.5 9.5t4.5 8.5l270 322q9 11 25.5 18.5t30.5 7.5q28 0 64 -19t54 -45q15 -22 24.5 -51t9.5 -49z" />
    <glyph glyph-name="ograve" unicode="&#xf2;" horiz-adv-x="1190" 
d="M1126 430q0 -190 -135 -331t-395 -141q-258 0 -395 140t-137 332q0 190 136 337t396 147q254 0 392 -145t138 -339zM762 432q0 192 -32 289t-134 97t-135 -99t-33 -287q0 -194 33 -286t135 -92q100 0 133 93t33 285zM703 1124q0 -10 -4 -22t-10 -16q-6 -8 -20 -16t-20 -8
q-4 0 -7 1l-3 1l-376 180q-24 11 -34 32.5t-10 45.5q0 28 9.5 53.5t24.5 48.5q16 24 54 44t66 20q18 0 32.5 -5.5t25.5 -18.5l266 -322q3 -3 4.5 -8.5t1.5 -9.5z" />
    <glyph glyph-name="ocircumflex" unicode="&#xf4;" horiz-adv-x="1190" 
d="M1126 430q0 -190 -135 -331t-395 -141q-258 0 -395 140t-137 332q0 190 136 337t396 147q254 0 392 -145t138 -339zM762 432q0 192 -32 289t-134 97t-135 -99t-33 -287q0 -194 33 -286t135 -92q100 0 133 93t33 285zM922 1122q0 -8 -7 -20t-15 -18t-16 -10t-14 -4t-14 3
t-14 7l-246 152l-248 -152q-5 -3 -13.5 -6.5t-14.5 -3.5t-13.5 3.5t-16.5 10.5q-10 8 -16 19t-6 19q0 6 2.5 11.5t5.5 8.5l278 332q7 8 19.5 13t22.5 5q12 0 23 -5t17 -13l278 -332q3 -3 5.5 -8.5t2.5 -11.5z" />
    <glyph glyph-name="odieresis" unicode="&#xf6;" horiz-adv-x="1190" 
d="M1126 430q0 -190 -135 -331t-395 -141q-258 0 -395 140t-137 332q0 190 136 337t396 147q254 0 392 -145t138 -339zM762 432q0 192 -32 289t-134 97t-135 -99t-33 -287q0 -194 33 -286t135 -92q100 0 133 93t33 285zM1001 1198q0 -72 -52 -124t-124 -52t-120 52t-48 124
t48 125t120 53t124 -53t52 -125zM561 1198q0 -70 -56 -123t-130 -53q-72 0 -125 52t-53 124t53 125t125 53t129 -54t57 -124z" />
    <glyph glyph-name="otilde" unicode="&#xf5;" horiz-adv-x="1190" 
d="M1126 430q0 -190 -135 -331t-395 -141q-258 0 -395 140t-137 332q0 190 136 337t396 147q254 0 392 -145t138 -339zM762 432q0 192 -32 289t-134 97t-135 -99t-33 -287q0 -194 33 -286t135 -92q100 0 133 93t33 285zM987 1416q-28 -180 -90 -238.5t-160 -49.5l-270 26
q-64 6 -108 -24t-76 -88q-2 -4 -6 -6t-12 -2q-20 0 -39 14t-13 48q28 148 99 228.5t205 65.5l232 -26q72 -8 109 21t59 85q1 4 7.5 6t12.5 2q16 0 35.5 -16t14.5 -46z" />
    <glyph glyph-name="uacute" unicode="&#xfa;" horiz-adv-x="1252" 
d="M1250 80q0 -14 -5 -26t-11 -12q-62 -6 -182 -28t-184 -42q-6 0 -20 -5t-28 -5q-16 0 -25 9t-9 15l-10 140q-46 -82 -122 -123t-184 -41q-156 0 -240 90t-84 254v322q0 90 -31 119t-111 27q-6 0 -11 14t-5 28t5 30t11 16q68 0 214 14t222 32q18 6 32 -8t14 -20v-614
q0 -78 33 -117t101 -39q48 0 86 38t62 98v382q0 86 -31 117t-113 29q-6 0 -11 15t-5 27q0 14 5 30t11 16q66 0 214 12t224 30q18 6 31 -8t13 -20v-610q0 -86 23 -111t105 -31q6 0 11 -17t5 -27zM990 1324q0 -20 -11.5 -44.5t-30.5 -33.5l-378 -180q-2 -1 -4 -2.5t-8 -1.5
l-6 2t-12 6t-11 8t-9 8q-4 6 -9 16t-5 20q0 4 1.5 9.5t4.5 8.5l270 322q9 11 25.5 18.5t30.5 7.5q28 0 64 -19t54 -45q15 -22 24.5 -51t9.5 -49z" />
    <glyph glyph-name="ugrave" unicode="&#xf9;" horiz-adv-x="1252" 
d="M1250 80q0 -14 -5 -26t-11 -12q-62 -6 -182 -28t-184 -42q-6 0 -20 -5t-28 -5q-16 0 -25 9t-9 15l-10 140q-46 -82 -122 -123t-184 -41q-156 0 -240 90t-84 254v322q0 90 -31 119t-111 27q-6 0 -11 14t-5 28t5 30t11 16q68 0 214 14t222 32q18 6 32 -8t14 -20v-614
q0 -78 33 -117t101 -39q48 0 86 38t62 98v382q0 86 -31 117t-113 29q-6 0 -11 15t-5 27q0 14 5 30t11 16q66 0 214 12t224 30q18 6 31 -8t13 -20v-610q0 -86 23 -111t105 -31q6 0 11 -17t5 -27zM727 1124q0 -10 -4 -22t-10 -16q-6 -8 -20 -16t-20 -8q-4 0 -7 1l-3 1
l-376 180q-24 11 -34 32.5t-10 45.5q0 28 9.5 53.5t24.5 48.5q16 24 54 44t66 20q18 0 32.5 -5.5t25.5 -18.5l266 -322q3 -3 4.5 -8.5t1.5 -9.5z" />
    <glyph glyph-name="ucircumflex" unicode="&#xfb;" horiz-adv-x="1252" 
d="M1250 80q0 -14 -5 -26t-11 -12q-62 -6 -182 -28t-184 -42q-6 0 -20 -5t-28 -5q-16 0 -25 9t-9 15l-10 140q-46 -82 -122 -123t-184 -41q-156 0 -240 90t-84 254v322q0 90 -31 119t-111 27q-6 0 -11 14t-5 28t5 30t11 16q68 0 214 14t222 32q18 6 32 -8t14 -20v-614
q0 -78 33 -117t101 -39q48 0 86 38t62 98v382q0 86 -31 117t-113 29q-6 0 -11 15t-5 27q0 14 5 30t11 16q66 0 214 12t224 30q18 6 31 -8t13 -20v-610q0 -86 23 -111t105 -31q6 0 11 -17t5 -27zM940 1122q0 -8 -7 -20t-15 -18t-16 -10t-14 -4t-14 3t-14 7l-246 152
l-248 -152q-5 -3 -13.5 -6.5t-14.5 -3.5t-13.5 3.5t-16.5 10.5q-10 8 -16 19t-6 19q0 6 2.5 11.5t5.5 8.5l278 332q7 8 19.5 13t22.5 5q12 0 23 -5t17 -13l278 -332q3 -3 5.5 -8.5t2.5 -11.5z" />
    <glyph glyph-name="udieresis" unicode="&#xfc;" horiz-adv-x="1252" 
d="M1250 80q0 -14 -5 -26t-11 -12q-62 -6 -182 -28t-184 -42q-6 0 -20 -5t-28 -5q-16 0 -25 9t-9 15l-10 140q-46 -82 -122 -123t-184 -41q-156 0 -240 90t-84 254v322q0 90 -31 119t-111 27q-6 0 -11 14t-5 28t5 30t11 16q68 0 214 14t222 32q18 6 32 -8t14 -20v-614
q0 -78 33 -117t101 -39q48 0 86 38t62 98v382q0 86 -31 117t-113 29q-6 0 -11 15t-5 27q0 14 5 30t11 16q66 0 214 12t224 30q18 6 31 -8t13 -20v-610q0 -86 23 -111t105 -31q6 0 11 -17t5 -27zM1032 1198q0 -72 -52 -124t-124 -52t-120 52t-48 124t48 125t120 53t124 -53
t52 -125zM592 1198q0 -70 -56 -123t-130 -53q-72 0 -125 52t-53 124t53 125t125 53t129 -54t57 -124z" />
    <glyph glyph-name="dagger" unicode="&#x2020;" horiz-adv-x="1320" 
d="M660 -594q-16 0 -33 6t-17 22q0 324 -61 646t-97 408l96 104q-22 50 -66 71t-88 21q-34 0 -57 -21t-43 -37q-26 -24 -51 -41t-77 -17q-74 0 -115 39t-41 99q0 52 39 96t107 44q52 0 88 -31t40 -77q12 58 46 97t84 39q44 0 75 -18t63 -64q0 42 -35 93t-35 95q0 48 28 95
t96 63q-46 16 -66 51t-20 77q0 58 35 99t105 41q64 0 102 -42t38 -98q0 -40 -21 -77t-65 -51q64 -14 94 -62t30 -96q0 -50 -35 -96t-35 -92q32 44 64 63t76 19q52 0 84 -39t44 -97q4 46 40 77t90 31q68 0 106 -44t38 -96q0 -62 -40 -100t-114 -38q-46 0 -78 19t-52 39
t-46 39t-54 19q-50 0 -89 -18t-63 -74l96 -104q-20 -48 -46 -156t-52 -258q-24 -132 -42 -311t-18 -329q0 -14 -17 -21t-35 -7z" />
    <glyph glyph-name="degree" unicode="&#xb0;" horiz-adv-x="522" 
d="M490 1196q0 -86 -62 -152t-166 -66q-100 0 -165 67t-65 151t65 150t165 66q98 0 163 -66t65 -150zM382 1196q0 56 -33 94t-87 38q-48 0 -84 -38t-36 -94q0 -58 34 -96t86 -38t86 38t34 96z" />
    <glyph glyph-name="cent" unicode="&#xa2;" horiz-adv-x="1042" 
d="M996 674q0 -54 -34 -98t-100 -44q-62 0 -93 29t-47 69q-14 36 -25 81t-31 73l-11 -106t-27 -226q-16 -146 -27 -239l-11 -93q12 -2 29 -4t37 -2q78 0 156 32t118 72q2 4 13 -4t17 -14q10 -10 17 -22t7 -18q0 -4 -1 -9t-3 -7q-54 -76 -162 -130t-244 -54h-2l-1 -18t-5 -40
q-2 -22 -4 -39l-2 -17q0 -12 -14 -15t-26 -3t-26 5t-14 17l12 116q-176 24 -302 151t-126 323q0 216 153 345t377 129h6l12 108q0 12 15 15t25 3t25 -6t15 -16l-12 -110q130 -18 223 -83t93 -151zM552 488q10 92 23 211l13 119q-74 0 -118 -74t-44 -288q0 -100 18 -180
t70 -120l12 106t26 226z" />
    <glyph glyph-name="sterling" horiz-adv-x="1266" 
d="M1198 292q-34 -142 -134 -238t-256 -96q-96 0 -169 28t-121 64q-38 -38 -109 -65t-131 -27q-102 0 -161 46t-59 116q0 92 65 152t157 60q50 0 89 -10t79 -26q6 22 9 41t3 43q0 40 -13 84t-37 84l-248 -4q-12 0 -18 20t-6 38t6 39t18 21l196 -4q-48 50 -72 103t-24 117
q0 156 140 269t360 113q182 0 277 -97t95 -189q0 -88 -43 -129t-101 -41q-64 0 -100 33t-36 97q0 38 25 60t25 72q0 42 -29 70t-85 28q-84 0 -128 -57t-44 -155q0 -70 44 -151t60 -145l246 6q10 0 17 -20t7 -40q0 -18 -7 -38t-17 -20l-224 4q4 -20 8 -42t4 -50
q0 -40 -21 -108t-59 -114q82 -20 134 -31t104 -11q74 0 120 34t88 104q2 6 19 3t25 -7q10 -4 22 -16t10 -18zM402 140q-30 24 -66 37t-76 13q-48 0 -71 -20t-23 -48q0 -34 20 -51t78 -17q52 0 84 22t54 64z" />
    <glyph glyph-name="section" unicode="&#xa7;" horiz-adv-x="1306" 
d="M658 -338q0 100 -91 205t-187 203q-104 104 -192 220t-88 244q0 152 105 291t231 211q24 152 153 264t313 112q132 0 209 -59t77 -143q0 -74 -44 -123t-110 -49q-58 0 -88 37t-52 83q-18 40 -44 81t-58 41q-64 0 -95 -30t-31 -120q0 -96 97 -205t191 -205
q96 -100 191 -231t95 -253q0 -150 -112 -277t-232 -193q-26 -158 -161 -271t-313 -113q-140 0 -221 56t-81 140q0 68 47 119t131 51q60 0 89 -38t45 -80q18 -42 38 -79t60 -37q60 0 94 33t34 115zM980 46q0 102 -86 212t-188 212q-122 124 -204 212t-100 202
q-30 -22 -44 -55t-14 -83q0 -116 86 -227t188 -211q102 -98 196 -201t108 -199q36 40 47 64t11 74z" />
    <glyph glyph-name="bullet" unicode="&#x2022;" horiz-adv-x="750" 
d="M698 678q0 -134 -94 -228t-228 -94t-229 95t-95 227q0 134 95 229t229 95q132 0 227 -95t95 -229z" />
    <glyph glyph-name="paragraph" unicode="&#xb6;" horiz-adv-x="1296" 
d="M1340 1326q0 -12 -5 -28t-11 -16h-208v-1820q0 -6 -18 -11t-30 -5t-30 5t-18 11v1820h-120v-1514q0 -138 -87 -237t-225 -99q-146 0 -220 73t-74 193q0 92 64 169t166 77q82 0 132 -50t50 -132q0 -42 -26 -84t-86 -42q-44 0 -71 28t-27 68q0 48 25 62t25 34q0 10 -7 15
t-21 5q-58 0 -93 -43t-35 -107q0 -82 52 -129t142 -47q102 0 161 72t59 174v456h-136q-148 0 -259 48t-183 126q-72 80 -107 183t-35 215q0 118 33 215t109 183q68 78 183 127t259 49h656q6 0 11 -16t5 -28z" />
    <glyph glyph-name="germandbls" unicode="&#xdf;" horiz-adv-x="1386" 
d="M1322 424q0 -178 -123 -321t-327 -143q-96 0 -155 60t-59 150q0 68 38 114t92 46q44 0 73 -27t29 -69q0 -54 -37 -64t-37 -46q0 -26 14 -47t34 -21q16 0 39 9t35 37q18 40 28 95t10 195q0 162 -74 290t-226 128q-6 0 -11 17t-5 27q0 14 5 29t11 15q106 0 161 60t55 166
q0 108 -36 162t-106 54q-84 0 -147 -71t-63 -219v-836q0 -74 23 -103t63 -33q6 0 11 -17t5 -27q0 -14 -5 -29t-11 -15q-62 0 -124 5t-132 5t-157 -5t-149 -5q-6 0 -11 16t-5 28q0 10 5 26t11 18q90 10 113 39t23 129v462q0 10 -6 19t-18 9h-110q-8 0 -14 17t-6 25t6 26
t12 20q32 8 84 24t52 32q0 234 157 399t395 165q202 0 324 -94t122 -204t-67 -177t-235 -101q220 -34 323 -160t103 -284z" />
    <glyph glyph-name="registered" unicode="&#xae;" horiz-adv-x="1630" 
d="M1538 686q0 -298 -214 -513t-512 -215q-300 0 -514 214t-214 514q0 298 215 512t513 214q302 0 514 -215t212 -511zM1474 686q0 274 -195 468t-467 194q-274 0 -469 -195t-195 -467q0 -274 196 -469t468 -195q274 0 468 196t194 468zM1320 316q0 -8 -3 -18t-7 -10
q-40 0 -80 5t-70 5q-40 0 -76 -4t-74 -4l-142 272q-28 48 -53 65t-73 17v-188q0 -52 19 -79t83 -35q2 0 5 -10t3 -18q0 -6 -3 -16t-5 -10q-56 0 -101 4t-109 4q-66 0 -116 -4t-106 -4q-2 0 -5 10t-3 16q0 8 3 17t5 11q86 12 101 38t15 86v428q0 64 -16 87t-100 37
q-2 0 -5 10t-3 16q0 8 3 18t5 10q56 0 115 -5t123 -5q50 0 110 4t114 4q144 0 224 -51t80 -145q0 -60 -43 -112t-125 -82l158 -248q28 -44 51 -62t93 -28q2 0 5 -9t3 -17zM958 860q0 74 -29 111t-107 37q-44 0 -62 -14t-18 -66v-224q12 0 24 -2t32 -2q84 0 122 35t38 125z
" />
    <glyph glyph-name="copyright" unicode="&#xa9;" horiz-adv-x="1630" 
d="M1538 686q0 -298 -214 -513t-512 -215q-300 0 -514 214t-214 514q0 298 215 512t513 214q302 0 514 -215t212 -511zM1474 686q0 274 -195 468t-467 194q-274 0 -469 -195t-195 -467q0 -274 196 -469t468 -195q274 0 468 196t194 468zM1182 546q-10 -44 -21 -118t-21 -126
q-56 0 -137 -17t-155 -17q-248 0 -365 128t-117 286q0 162 128 292t364 130q74 0 142 -10t122 -10q4 -48 12 -121t14 -123q0 -4 -10 -7t-16 -3t-13 3t-9 7q-18 74 -87 139t-159 65q-132 0 -196 -100t-64 -262q0 -160 63 -257t191 -97q102 0 175 62t111 156q2 4 10 6t14 2
t15 -3t9 -5z" />
    <glyph glyph-name="trademark" unicode="&#x2122;" horiz-adv-x="2364" 
d="M2250 628q0 -6 -3 -19t-5 -13q-56 0 -116 4t-110 4t-109 -4t-111 -4q-4 0 -7 13t-3 19q0 8 3 20t5 14q64 10 78 34t8 86l-24 382l-238 -578q-2 -6 -14 -9t-28 -3t-28 4t-14 8l-254 568l-24 -372q-6 -60 12 -85t96 -35q4 0 6 -13t2 -21q0 -6 -4 -19t-6 -13q-42 0 -78 4
t-74 4q-40 0 -88 -4t-84 -4q-4 0 -6 13t-2 19q0 8 3 20t7 14q76 12 99 31t27 89l36 412q4 58 -18 84t-88 36q-2 0 -5 13t-3 19q0 8 4 21t8 13q32 0 93 -5t89 -5q32 0 85 5t91 5l208 -454l192 450q30 4 89 -1t95 -5q34 0 86 5t86 5q4 0 7 -13t3 -21q0 -6 -3 -19t-5 -13
q-68 -8 -83 -32t-13 -74l28 -426q4 -66 21 -90t71 -30q4 0 7 -13t3 -21zM1000 1082q0 -6 -11 -12t-25 -6q-6 0 -16 3t-10 5q-28 82 -89 155t-107 73q-32 0 -40 -13t-8 -41v-464q0 -68 17 -90t89 -30q2 0 6 -13t4 -21q0 -6 -4 -19t-6 -13q-56 0 -117 4t-125 4t-126 -4
t-116 -4q-4 0 -7 13t-3 19q0 8 3 20t7 14q72 10 88 31t16 89v464q0 34 -8 44t-38 10q-42 0 -110 -75t-98 -153q-4 -4 -13 -6t-15 -2q-10 0 -23 6t-13 12q14 90 25 158t19 150q46 -8 116 -14t296 -6q182 0 282 6t138 14q0 -60 8 -150t14 -158z" />
    <glyph glyph-name="acute" unicode="&#xb4;" 
d="M660 1324q0 -20 -11.5 -44.5t-30.5 -33.5l-378 -180q-2 -1 -4 -2.5t-8 -1.5l-6 2t-12 6t-11 8t-9 8q-4 6 -9 16t-5 20q0 4 1.5 9.5t4.5 8.5l270 322q9 11 25.5 18.5t30.5 7.5q28 0 64 -19t54 -45q15 -22 24.5 -51t9.5 -49z" />
    <glyph glyph-name="dieresis" unicode="&#xa8;" 
d="M802 1198q0 -72 -52 -124t-124 -52t-120 52t-48 124t48 125t120 53t124 -53t52 -125zM362 1198q0 -70 -56 -123t-130 -53q-72 0 -125 52t-53 124t53 125t125 53t129 -54t57 -124z" />
    <glyph glyph-name="notequal" unicode="&#x2260;" horiz-adv-x="874" 
d="M804 290q0 -22 -7 -46t-19 -24h-328l-72 -244q-6 -10 -30 -15t-48 -5q-26 0 -48 5t-18 15l72 244h-210q-12 0 -19 24t-7 46t7 47t19 25h252l46 158h-298q-12 0 -19 24t-7 46t7 47t19 25h340l84 288q4 12 31 16t47 4q22 0 46 -5t20 -15l-84 -288h198q12 0 19 -26t7 -46
q0 -22 -7 -46t-19 -24h-240l-46 -158h286q12 0 19 -26t7 -46z" />
    <glyph glyph-name="AE" unicode="&#xc6;" horiz-adv-x="2272" 
d="M2162 458q-14 -112 -27 -237t-19 -231q-126 4 -316 7t-306 3t-330 -4t-320 -6q-6 0 -11 16t-5 28q0 10 5 26t11 18q118 14 155 50t37 118v204h-464l-110 -172q-30 -48 -42 -78t-12 -48q0 -28 25 -50t111 -24q6 0 9 -17t3 -27q0 -14 -5 -29t-11 -15q-86 0 -142 5t-138 5
q-66 0 -122 -5t-126 -5q-6 0 -10 15t-4 29q0 10 9 26t15 18q86 8 149 52t135 148l554 830q48 72 16 124t-174 60q-6 2 -11 18t-5 26q0 14 5 29t11 15q48 0 156 -3t228 -3q84 0 205 -2t183 -2q110 0 309 3t315 7q-2 -82 5 -219t11 -227q0 -8 -16 -17t-40 -9q-14 0 -24 4
t-10 8q-16 126 -105 239t-251 113h-120q-40 0 -78 -20t-38 -98v-414h68q100 0 161 60t71 158q0 6 17 11t27 5q14 0 29 -5t15 -11q0 -74 -5 -138t-5 -132q0 -70 5 -131t5 -133q0 -6 -15 -11t-29 -5q-10 0 -26 5t-18 11q-12 104 -67 161t-165 57h-68v-426q0 -72 38 -95t78 -23
h104q152 0 270 110t148 270q0 4 9 6t21 2q22 0 43 -8t19 -20zM1036 546v636l-406 -636h406z" />
    <glyph glyph-name="Oslash" unicode="&#xd8;" horiz-adv-x="1740" 
d="M1192 1066l-96 -135t-210 -289q-114 -158 -210 -291l-96 -133q46 -82 112 -123t178 -41q212 0 292 174t80 450q0 110 -12 212t-38 176zM546 298l610 848q-44 82 -112 126t-174 44q-214 0 -293 -183t-79 -455q0 -128 10 -211t38 -169zM392 84q-150 98 -229 253t-79 341
q0 298 206 516t580 218q124 0 223 -24t187 -70l96 134q4 10 18 6t24 -12q12 -8 19 -17t-1 -21l-27 -38t-65 -90q150 -100 230 -258t80 -344q0 -300 -205 -510t-579 -210q-118 0 -222 23t-190 67q-40 -56 -66 -93l-26 -37q-6 -10 -17 -8t-25 14q-14 8 -19 17t-1 19z" />
    <glyph glyph-name="infinity" unicode="&#x221e;" horiz-adv-x="1592" 
d="M1492 442q0 -124 -97 -206t-233 -82q-104 0 -201 52t-165 136q-72 -86 -164 -137t-202 -51q-136 0 -233 82t-97 206t97 206t233 82q100 0 200 -53t166 -135q64 82 164 135t202 53q136 0 233 -82t97 -206zM1344 442q0 66 -47 107t-133 41q-80 0 -147 -34t-135 -114
q60 -74 130 -110t152 -36q86 0 133 40t47 106zM710 442q-62 76 -132 112t-150 36q-86 0 -133 -41t-47 -107t47 -106t133 -40q78 0 151 37t131 109z" />
    <glyph glyph-name="plusminus" unicode="&#xb1;" horiz-adv-x="896" 
d="M820 590q0 -22 -7 -46t-19 -24h-272v-268q0 -12 -24 -19t-48 -7q-20 0 -45 7t-25 19v268h-268q-12 0 -19 24t-7 46t7 47t19 25h268v266q0 10 24 17t46 7q24 0 48 -6t24 -18v-266h272q12 0 19 -26t7 -46zM820 70q0 -22 -7 -46t-19 -24h-682q-12 0 -19 24t-7 46t7 46t19 24
h682q12 0 19 -25t7 -45z" />
    <glyph glyph-name="lessequal" unicode="&#x2264;" horiz-adv-x="888" 
d="M762 352q12 -4 7 -30t-15 -44t-27 -38t-27 -14l-594 304q-14 8 -20 25t-6 35q0 22 6 37t20 23l594 304q10 6 27 -12t27 -38q10 -22 15 -47t-7 -29l-468 -238zM764 70q0 -28 -6 -49t-20 -21h-632q-12 0 -19 24t-7 46t7 46t19 24h634q10 0 17 -23t7 -47z" />
    <glyph glyph-name="greaterequal" unicode="&#x2265;" horiz-adv-x="888" 
d="M806 590q0 -16 -7 -35t-19 -25l-594 -304q-10 -4 -27 14t-27 38t-14 45t6 29l468 238l-468 238q-12 6 -7 29t15 47q10 20 27 38t27 12l594 -304q14 -6 20 -22t6 -38zM806 70q0 -22 -7 -46t-19 -24h-632q-14 0 -20 25t-6 45q0 24 7 47t17 23h634q12 0 19 -25t7 -45z" />
    <glyph glyph-name="yen" horiz-adv-x="1382" 
d="M1394 1206q0 -10 -7 -27t-13 -17q-62 -4 -119 -53t-97 -109l-28 -49t-62 -103q-28 -46 -59 -98l-31 -52h254q12 0 18 -17t6 -29q0 -14 -6 -31t-18 -17h-308l-30 -50v-86h338q12 0 18 -17t6 -29t-6 -29t-18 -17h-338v-136q0 -84 25 -118t133 -46q6 0 10 -17t4 -27t-4 -26
t-10 -16q-90 0 -174 5t-174 5q-88 0 -180 -5t-180 -5q-6 0 -11 16t-5 26q0 12 5 27t11 17q108 14 140 49t32 115v136h-342q-12 0 -19 17t-7 29t7 29t19 17h342v84l-28 52h-314q-12 0 -19 17t-7 31q0 12 7 29t19 17h264l-164 302q-40 78 -92 115t-136 47q-6 2 -10 18t-4 26
q0 12 4 28t10 16q66 0 158 -6t170 -6q76 0 192 6t200 6q6 0 10 -17t4 -27t-4 -27t-10 -17q-64 -8 -89 -24t-25 -44q0 -30 6 -49t18 -45l170 -336l180 336q14 28 16 43t2 39q0 32 -22 51t-100 29q-4 2 -7 18t-3 26q0 12 5 28t11 16q78 0 130 -6t128 -6q56 0 99 6t93 6
q6 0 11 -16t5 -28z" />
    <glyph glyph-name="mu" unicode="&#xb5;" horiz-adv-x="1252" 
d="M1250 78q0 -12 -5 -26t-11 -14q-64 -6 -185 -28t-181 -40q-6 -2 -20 -7t-28 -5q-16 0 -25 9t-9 17l-10 140q-46 -82 -108 -124t-132 -42q-20 0 -40 3t-30 9q-8 4 -16 6t-16 2t-14 -6t-6 -20q0 -112 12 -168t28 -84t28 -37t12 -27q0 -56 -134 -125t-194 -69q-22 0 -33 16
t-11 36q0 14 4 34t8 82q4 50 8 161t4 265v588q0 90 -31 120t-111 28q-6 0 -11 14t-5 28q0 10 5 28t11 18q64 0 211 13t225 33q18 6 32 -8t14 -20v-616q0 -78 33 -117t101 -39q48 0 86 39t62 97v382q0 86 -31 118t-113 30q-6 0 -11 15t-5 27q0 10 5 28t11 18q66 0 217 12
t221 30q16 4 30 -9t14 -19v-612q0 -86 23 -110t105 -30q6 0 11 -17t5 -27z" />
    <glyph glyph-name="partialdiff" unicode="&#x2202;" horiz-adv-x="1210" 
d="M1130 576q0 -294 -146 -455t-416 -161q-222 0 -363 135t-141 315q0 228 160 366t368 138q64 0 101 -12t73 -36q-20 236 -64 335t-132 99q-38 0 -59 -28t-47 -64t-54 -63t-100 -27q-82 0 -127 40t-45 98q0 74 78 132t204 58q316 0 513 -244t197 -626zM772 574
q0 120 -37 182t-113 62q-102 0 -149 -107t-47 -301q0 -176 36 -265t122 -89q114 0 151 138t37 380z" />
    <glyph glyph-name="summation" unicode="&#x2211;" horiz-adv-x="1448" 
d="M1382 522q-14 -112 -26 -274t-18 -266q-56 12 -209 15t-389 3q-296 0 -435 -2t-209 -16q-14 -2 -22 9t-8 27q0 2 2 8l2 6l612 596l-584 710q-2 2 -3 7t-1 7q0 16 8 26t22 10q64 -12 209 -15t425 -3q234 0 371 3t191 15q0 -82 13 -223t19 -231q0 -10 -15 -18t-39 -8
q-14 0 -24 4t-12 8q-20 126 -113 239t-255 113h-286l394 -488l-520 -494h438q162 0 252 47t120 205q0 4 7 6t21 2q22 0 43 -8t19 -20z" />
    <glyph glyph-name="product" unicode="&#x220f;" horiz-adv-x="1856" 
d="M1768 34q0 -14 -5 -29t-11 -15q-96 0 -197 5t-191 5q-92 0 -168 -5t-174 -5q-6 0 -11 16t-5 28q0 10 5 26t11 18q96 12 120 44t24 124v892q0 72 -39 95t-79 23h-242q-40 0 -79 -20t-39 -98v-892q0 -92 20 -125t124 -43q6 0 11 -17t5 -27q0 -12 -5 -28t-11 -16
q-98 0 -174 5t-166 5q-92 0 -192 -5t-198 -5q-6 0 -11 16t-5 28q0 10 5 26t11 18q118 14 155 50t37 118v878q0 82 -37 118t-155 50q-6 2 -11 18t-5 26q0 12 5 28t11 16q36 0 138 -3t242 -3q94 0 230 -2t216 -2q154 0 449 4t375 6q6 0 11 -15t5 -29q0 -10 -5 -27t-11 -17
q-114 -12 -152 -50t-38 -118v-878q0 -80 38 -118t152 -50q6 0 11 -17t5 -27z" />
    <glyph glyph-name="pi" unicode="&#x3c0;" horiz-adv-x="1508" 
d="M1490 980q-6 -136 -67 -234t-185 -98h-8q-24 -124 -33 -192t-9 -136q0 -116 26 -157t56 -41q32 0 56 38t24 92q0 6 17 10t25 4t27 -5t19 -13q0 -6 1 -14t1 -14q-6 -110 -84 -185t-202 -75q-128 0 -195 70t-67 274q0 86 7 144t31 200h-138v-168q0 -174 -131 -347
t-355 -173q-104 0 -157 47t-53 111q0 66 42 111t104 45q48 0 75 -28t39 -56q12 -24 25 -53t33 -29q36 0 53 48t17 178v314h-58q-62 0 -92 -24t-56 -90q-2 -4 -9 -7t-13 -3q-16 0 -40 10t-24 20q32 182 109 263t265 81h682q66 0 105 21t51 79q0 4 9 8t19 4q26 0 42 -10
t16 -20z" />
    <glyph glyph-name="integral" unicode="&#x222b;" horiz-adv-x="742" 
d="M1008 1236q0 -58 -38 -103t-112 -45q-54 0 -86 32t-54 72q-18 36 -41 71t-51 35q-40 0 -62 -23t-22 -111v-1096q0 -282 -153 -451t-351 -169q-150 0 -227 61t-77 149q0 56 37 102t115 46q52 0 84 -32t54 -74q18 -34 42 -70t52 -36q38 0 60 24t22 112v1098q0 276 152 447
t352 171q150 0 227 -61t77 -149z" />
    <glyph glyph-name="ordfeminine" unicode="&#xaa;" horiz-adv-x="720" 
d="M718 894q0 -6 -1 -9t-3 -5q-24 -28 -73 -44t-109 -16q-54 0 -84 22t-40 60q-36 -48 -72 -66t-110 -18t-124 31t-50 101q0 72 72 120t288 94l2 106q0 34 -8 43t-38 9q-24 0 -46 -5t-26 -35q-6 -78 -32 -106t-80 -28q-50 0 -74 28t-24 68q0 62 101 115t233 53
q118 0 159 -55t41 -161l-6 -192q-6 -46 10 -59t28 -13q10 0 16 -1t12 3q8 4 23 -13t15 -27zM412 1004v98q-76 -18 -108 -43t-32 -81q0 -32 16 -40t46 -8q24 0 48 14t30 60z" />
    <glyph glyph-name="ordmasculine" unicode="&#xba;" horiz-adv-x="772" 
d="M738 1106q0 -120 -87 -208t-247 -88q-166 0 -250 89t-84 207q0 114 83 207t251 93q162 0 248 -93t86 -207zM500 1106q0 122 -18 173t-78 51t-78 -50t-18 -174q0 -130 16 -175t80 -45q60 0 78 49t18 171z" />
    <glyph glyph-name="Omega" unicode="&#x2126;" horiz-adv-x="1744" 
d="M1740 418l-2 -6q-26 -68 -61 -199t-55 -225q-32 8 -133 10t-249 2q-126 0 -183 -2t-89 -8q-6 0 -13 25t-13 57t-10 65t-4 43q0 8 2 15t6 9q150 80 205 258t55 322q0 244 -74 388t-250 144q-174 0 -249 -145t-75 -387q0 -138 58 -322t204 -258q2 0 4 -8t2 -16
q0 -14 -3 -43t-11 -65q-6 -32 -13 -58t-13 -24q-26 6 -100 8t-176 2q-168 0 -272 -3t-134 -9q-6 76 -33 221t-41 185q-4 6 -5 12t-1 10q0 14 31 28t45 14q6 0 12 -3t6 -7q24 -80 70 -137t122 -59l282 -6q-192 50 -317 206t-125 356q0 248 200 426t532 178q334 0 533 -179
t199 -425q0 -196 -126 -355t-316 -207l272 6q82 2 135 63t81 133q0 4 7 7t11 3q12 0 42 -16t30 -24z" />
    <glyph glyph-name="ae" unicode="&#xe6;" horiz-adv-x="1590" 
d="M1536 568q0 -14 -11 -24t-25 -12l-532 -84q-2 -10 -3 -14t-1 -18q0 -168 56 -234t158 -66q72 0 162 36t130 90q2 4 12 -3t18 -13q10 -10 17 -21t7 -21v-8t-4 -8q-58 -80 -143 -144t-269 -64q-142 0 -248 63t-160 169q-40 -118 -127 -175t-227 -57q-146 0 -226 53t-80 157
q0 120 114 195t452 139l6 196q0 62 -18 82t-60 20q-38 0 -75 -18t-41 -64q-10 -120 -51 -170t-125 -50q-74 0 -113 43t-39 103q0 100 162 184t338 84q102 0 148 -24t84 -92q58 54 141 85t161 31q184 0 290 -101t120 -207q0 -10 1 -20t1 -18zM1214 662q0 58 -23 108t-75 50
q-62 0 -96 -80t-44 -202l154 28q48 10 66 32t18 64zM602 422q-124 -24 -172 -72t-48 -134q0 -50 26 -80t74 -30q40 0 73 25t41 95z" />
    <glyph glyph-name="oslash" unicode="&#xf8;" horiz-adv-x="1190" 
d="M756 592l-48 -67t-102 -143q-68 -94 -110 -154l-42 -60q18 -58 51 -86t91 -28q100 0 133 93t33 285q0 36 -1 78t-5 82zM434 272l304 424q-18 60 -52 91t-90 31q-102 0 -135 -99t-33 -287q0 -52 2 -92t4 -68zM270 42q-102 66 -154 167t-52 221q0 190 136 337t396 147
q68 0 136 -13t124 -39l64 90q4 10 18 6t24 -12q12 -8 19 -17t-1 -21l-17 -24t-41 -58q100 -66 152 -173t52 -223q0 -190 -135 -331t-395 -141q-74 0 -139 13t-119 37q-24 -34 -44 -62l-20 -28q-6 -10 -17 -8t-25 14q-14 8 -19 17t-1 19z" />
    <glyph glyph-name="questiondown" horiz-adv-x="786" 
d="M30 -74q0 172 70 237t154 95q34 14 76 25t72 33q30 20 45 45t5 81l-2 8q-2 6 15 14t31 12q14 2 31 -2t19 -10l38 -264q12 -92 -51 -131t-139 -59q-66 -20 -140 -54t-74 -88q0 -34 29 -66t113 -32q44 0 106 14t100 14q78 0 126 -48t48 -114q0 -78 -54 -127t-154 -49
q-154 0 -309 144t-155 322zM330 750q0 66 49 115t115 49t115 -49t49 -115q0 -70 -47 -117t-117 -47q-66 0 -115 49t-49 115z" />
    <glyph glyph-name="exclamdown" horiz-adv-x="556" 
d="M102 -350l154 780q0 14 17 20t31 6t32 -6t18 -20l152 -780q14 -64 -32 -126t-170 -62q-110 0 -162 61t-40 127zM140 750q0 66 49 115t115 49t115 -49t49 -115q0 -70 -47 -117t-117 -47q-66 0 -115 49t-49 115z" />
    <glyph glyph-name="logicalnot" unicode="&#xac;" horiz-adv-x="976" 
d="M906 58q0 -12 -24 -19t-46 -7q-24 0 -48 7t-24 17v318h-700q-12 0 -18 23t-6 47t7 47t17 23h802q18 0 29 -13t11 -33v-410z" />
    <glyph glyph-name="radical" unicode="&#x221a;" horiz-adv-x="1202" 
d="M1158 1414l-478 -1438q-4 -6 -13 -11t-31 -5q-20 0 -30 5t-14 11l-394 698q-46 -26 -95 -47t-69 -21q-14 0 -30 35t-16 49q0 4 3 8t9 6q84 28 224 101t192 109q4 4 10 6t10 2q6 0 12 -4t10 -12l248 -480l346 1000q0 6 12 10t30 4q28 0 48 -9t16 -17z" />
    <glyph glyph-name="florin" horiz-adv-x="1302" 
d="M1470 1120q0 -60 -42 -105t-104 -45q-48 0 -69 32t-33 72t-27 72t-53 32q-80 0 -114 -65t-92 -323h206q12 0 15 -14t3 -32q0 -20 -12 -47t-22 -25l-214 6l-114 -470q-78 -318 -233 -438t-325 -120q-130 0 -211 63t-81 143q0 66 40 105t114 39q56 0 86 -40t46 -84
q14 -36 35 -79t49 -43q46 0 73 60t51 180l140 660q0 10 -3 17t-17 7h-166q-8 0 -12 16t-4 22q0 14 7 27t15 15q130 16 175 31t47 31q44 180 212 333t382 153q122 0 187 -58t65 -128z" />
    <glyph glyph-name="approxequal" unicode="&#x2248;" horiz-adv-x="902" 
d="M840 660l-2 -4q-48 -82 -104 -130t-116 -48q-18 0 -26 1t-22 7l-252 80q-18 6 -34 9t-28 3q-28 0 -61 -21t-71 -61q-2 -2 -6 -3t-6 -1q-6 0 -28 15t-22 27l2 4q48 84 106 131t114 47q18 0 26 -2t22 -6l254 -80q20 -6 34 -9t28 -3q30 0 65 23t67 59q0 2 4 3t6 1
q6 0 28 -15t22 -27zM840 362l-2 -4q-48 -82 -104 -130t-116 -48q-14 0 -24 2t-24 6l-252 80q-18 6 -34 9t-28 3q-28 0 -61 -21t-71 -61l-5 -2t-7 -2q-6 0 -28 15t-22 27l2 4q48 84 106 131t114 47q18 0 26 -2t22 -6l254 -80q20 -6 34 -9t28 -3q30 0 65 23t67 59q0 2 4 3t6 1
q6 0 28 -15t22 -27z" />
    <glyph glyph-name="Delta" unicode="&#x2206;" horiz-adv-x="1542" 
d="M1512 48q0 -12 -21 -36t-31 -22q-24 4 -96 5t-180 3q-132 2 -258 2h-210q-256 0 -417 -2t-215 -8q-16 0 -35 19t-19 33q0 4 2 9t2 9l724 1336q2 6 22 11t38 5q16 0 37 -5t21 -11l632 -1336q0 -2 2 -6t2 -6zM1002 290l-336 726l-384 -726h720z" />
    <glyph glyph-name="guillemotleft" unicode="&#xab;" horiz-adv-x="974" 
d="M878 122q4 -10 -2 -26t-16 -24l-21 -15t-21 -5q-2 0 -5 1l-3 1l-324 320q-4 4 -9 15t-5 21q0 8 6 20l8 16l324 318l3 2t5 2q12 0 22 -7t20 -15q8 -6 16 -23t2 -27l-126 -286zM494 122q4 -10 -2 -26t-18 -24q-10 -8 -18 -14t-22 -6q-2 0 -6 1l-4 1l-322 320q-4 4 -9 15
t-5 21q0 8 6 20l8 16l322 318l4 2t6 2q14 0 21 -6t19 -16q10 -8 18 -24t2 -26l-128 -286z" />
    <glyph glyph-name="guillemotright" unicode="&#xbb;" horiz-adv-x="974" 
d="M922 410q0 -10 -5 -22t-9 -14l-322 -320l-4 -1t-6 -1q-12 0 -19 4t-21 16q-12 10 -18 25t-2 25l128 288l-128 286q-6 10 2 25t18 25t20 16t20 6q2 0 6 -2l4 -2l322 -318l8 -16t6 -20zM538 410q0 -10 -5 -22t-9 -14l-324 -320l-3 -1t-5 -1q-10 0 -20 5t-22 15
q-12 12 -17 26t-1 24l126 288l-126 286q-6 10 2 26t16 24q14 12 23 17t19 5q2 0 5 -2l3 -2l324 -318l8 -16t6 -20z" />
    <glyph glyph-name="ellipsis" unicode="&#x2026;" horiz-adv-x="1764" 
d="M476 140q0 -74 -53 -128t-129 -54q-74 0 -128 54t-54 128t54 128t128 54q76 0 129 -54t53 -128zM1064 140q0 -74 -53 -128t-129 -54q-74 0 -128 54t-54 128t54 128t128 54q76 0 129 -54t53 -128zM1652 140q0 -74 -53 -128t-129 -54q-74 0 -128 54t-54 128t54 128t128 54
q76 0 129 -54t53 -128z" />
    <glyph glyph-name="nonbreakingspace" unicode="&#xa0;" horiz-adv-x="1594" 
 />
    <glyph glyph-name="Agrave" unicode="&#xc0;" horiz-adv-x="1594" 
d="M1582 34q0 -12 -5 -28t-11 -16q-96 0 -194 5t-180 5q-92 0 -197 -5t-203 -5q-6 0 -11 15t-5 29q0 10 3 26t9 18q96 6 127 25t31 59q0 16 -7 40t-15 44l-54 140h-420l-48 -116q-12 -28 -19 -53t-7 -43q0 -42 23 -67t127 -29q6 0 8 -17t2 -27q0 -14 -5 -29t-11 -15
q-86 0 -134 5t-128 5q-66 0 -116 -5t-118 -5q-6 0 -10 17t-4 27t9 26t15 18q86 8 134 52t98 148l496 1118q2 6 22 11t38 5t38 -5t22 -11l444 -1118q36 -100 86 -145t150 -55q6 0 13 -17t7 -27zM832 482l-168 440l-176 -440h344zM962 1560q0 -12 -5 -23t-9 -17q-8 -8 -22 -16
t-20 -8h-8t-4 2l-394 188q-24 10 -36 33t-12 49q0 30 10 57t26 51q16 22 57 44t71 22q18 0 35 -6t27 -20l278 -338q2 -2 4 -8t2 -10z" />
    <glyph glyph-name="Atilde" unicode="&#xc3;" horiz-adv-x="1594" 
d="M1582 34q0 -12 -5 -28t-11 -16q-96 0 -194 5t-180 5q-92 0 -197 -5t-203 -5q-6 0 -11 15t-5 29q0 10 3 26t9 18q96 6 127 25t31 59q0 16 -7 40t-15 44l-54 140h-420l-48 -116q-12 -28 -19 -53t-7 -43q0 -42 23 -67t127 -29q6 0 8 -17t2 -27q0 -14 -5 -29t-11 -15
q-86 0 -134 5t-128 5q-66 0 -116 -5t-118 -5q-6 0 -10 17t-4 27t9 26t15 18q86 8 134 52t98 148l496 1118q2 6 22 11t38 5t38 -5t22 -11l444 -1118q36 -100 86 -145t150 -55q6 0 13 -17t7 -27zM832 482l-168 440l-176 -440h344zM1265 1934q12 -6 23 -23t7 -37
q-28 -182 -93 -250t-171 -52l-396 56q-60 8 -107 -18t-87 -100q-10 -18 -46 -5t-28 61q32 164 111 247t209 63l358 -56q62 -8 105 17t71 93q4 8 17 9t27 -5z" />
    <glyph glyph-name="Otilde" unicode="&#xd5;" horiz-adv-x="1740" 
d="M1300 1934q12 -6 23 -23t7 -37q-28 -182 -93 -250t-171 -52l-396 56q-60 8 -107 -18t-87 -100q-10 -18 -46 -5t-28 61q32 164 111 247t209 63l358 -56q62 -8 105 17t71 93q4 8 17 9t27 -5zM1654 678q0 -300 -205 -510t-579 -210t-580 211t-206 509t206 516t580 218
q366 0 575 -215t209 -519zM1242 678q0 276 -80 457t-292 181q-214 0 -293 -183t-79 -455q0 -278 79 -451t293 -173q212 0 292 174t80 450z" />
    <glyph glyph-name="OE" unicode="&#x152;" horiz-adv-x="2334" 
d="M2224 458q-14 -112 -27 -237t-19 -231q-126 4 -316 7t-306 3q-118 0 -328 -5t-326 -5q-208 0 -363 55t-257 151t-150 219t-48 263q0 290 213 496t605 206q110 0 314 -5t320 -5q108 0 306 3t320 7q-4 -82 3 -212t11 -234q0 -8 -15 -17t-41 -9q-14 0 -24 4t-10 8
q-16 126 -105 239t-251 113h-120q-40 0 -78 -20t-38 -98v-414h68q100 0 161 60t71 158q0 6 17 11t27 5q14 0 29 -5t15 -11q0 -74 -5 -138t-5 -132q0 -70 5 -131t5 -133q0 -6 -15 -11t-29 -5q-10 0 -26 5t-18 11q-12 104 -67 161t-165 57h-68v-426q0 -72 38 -95t78 -23h104
q152 0 270 110t148 270q0 4 9 6t21 2q22 0 43 -8t19 -20zM1098 208v954q0 70 -41 95t-153 25q-202 0 -305 -164t-103 -440q0 -270 105 -430t303 -160q100 0 147 19t47 101z" />
    <glyph glyph-name="oe" unicode="&#x153;" horiz-adv-x="1770" 
d="M1716 526q0 -14 -9 -22t-27 -8h-552q-2 -14 -3 -37t-1 -43q0 -168 56 -234t158 -66q72 0 162 36t130 90q2 4 13 -3t17 -13q10 -8 18 -20t8 -22q0 -4 -1 -8t-5 -8q-50 -72 -149 -140t-263 -68q-92 0 -176 40t-144 108q-64 -70 -146 -109t-208 -39q-260 0 -395 142
t-135 330q0 192 136 337t394 145q110 0 198 -37t150 -107q56 66 143 105t183 39q208 0 328 -112t120 -276zM1386 676q0 60 -28 102t-82 42q-62 0 -95 -62t-45 -170l164 4q46 2 66 17t20 67zM762 432q0 192 -33 290t-135 98q-100 0 -134 -98t-34 -290t33 -284t135 -92t135 93
t33 283z" />
    <glyph glyph-name="endash" horiz-adv-x="1196" 
d="M1114 442q0 -22 -6 -46t-18 -24h-998q-12 0 -19 24t-7 46q0 24 7 47t17 23h1000q10 0 17 -23t7 -47z" />
    <glyph glyph-name="emdash" horiz-adv-x="2196" 
d="M2114 442q0 -22 -6 -46t-18 -24h-1998q-12 0 -19 24t-7 46q0 24 7 47t17 23h2000q10 0 17 -23t7 -47z" />
    <glyph glyph-name="quotedblleft" unicode="&#x201c;" horiz-adv-x="1002" 
d="M560 958q0 152 80 267t222 197q6 4 20 -7t20 -19t13 -25t1 -19q-58 -36 -112 -99t-54 -143q0 -24 3 -34t11 -10q6 0 13 3t17 3q58 0 102 -41t44 -129q0 -74 -51 -135t-131 -61q-90 0 -144 72t-54 180zM98 958q0 152 80 267t222 197q6 4 20 -7t20 -19t13 -25t1 -19
q-58 -36 -112 -99t-54 -143q0 -24 3 -34t11 -10q6 0 13 3t17 3q58 0 102 -41t44 -129q0 -74 -51 -135t-131 -61q-90 0 -144 72t-54 180z" />
    <glyph glyph-name="quotedblright" unicode="&#x201d;" horiz-adv-x="1002" 
d="M468 1160q0 -152 -82 -269t-220 -195q-6 -2 -19 7t-21 19t-14 25t0 19q68 46 117 94t49 148q0 24 -3 34t-11 10q-6 0 -13 -3t-17 -3q-58 0 -102 41t-44 129q0 74 51 135t131 61q90 0 144 -72t54 -180zM930 1160q0 -152 -82 -269t-220 -195q-6 -2 -19 7t-21 19t-14 25
t0 19q68 46 117 94t49 148q0 24 -3 34t-11 10q-6 0 -13 -3t-17 -3q-58 0 -102 41t-44 129q0 74 51 135t131 61q90 0 144 -72t54 -180z" />
    <glyph glyph-name="quoteleft" unicode="&#x2018;" horiz-adv-x="540" 
d="M98 958q0 152 80 267t222 197q6 4 20 -7t20 -19t13 -25t1 -19q-58 -36 -112 -99t-54 -143q0 -24 3 -34t11 -10q6 0 13 3t17 3q58 0 102 -41t44 -129q0 -74 -51 -135t-131 -61q-90 0 -144 72t-54 180z" />
    <glyph glyph-name="quoteright" unicode="&#x2019;" horiz-adv-x="540" 
d="M468 1160q0 -152 -82 -269t-220 -195q-6 -2 -19 7t-21 19t-14 25t0 19q68 46 117 94t49 148q0 24 -3 34t-11 10q-6 0 -13 -3t-17 -3q-58 0 -102 41t-44 129q0 74 51 135t131 61q90 0 144 -72t54 -180z" />
    <glyph glyph-name="divide" unicode="&#xf7;" horiz-adv-x="786" 
d="M480 690q0 -36 -26 -61t-62 -25q-34 0 -60 25t-26 61t26 61t60 25q36 0 62 -25t26 -61zM746 444q0 -28 -6 -49t-20 -21h-656q-12 0 -18 23t-6 47t7 47t17 23h658q10 0 17 -23t7 -47zM480 198q0 -34 -26 -60t-62 -26q-34 0 -60 26t-26 60q0 36 26 61t60 25q36 0 62 -25
t26 -61z" />
    <glyph glyph-name="lozenge" unicode="&#x25ca;" horiz-adv-x="988" 
d="M908 672l-354 -690q-8 -14 -24 -20t-36 -6q-18 0 -35 6t-25 20l-354 690l354 690q6 12 23 19t37 7t36 -6t24 -20zM754 672l-260 536l-260 -536l260 -534z" />
    <glyph glyph-name="ydieresis" unicode="&#xff;" horiz-adv-x="1090" 
d="M1017 1198q0 -72 -52 -124t-124 -52t-120 52t-48 124t48 125t120 53t124 -53t52 -125zM577 1198q0 -70 -56 -123t-130 -53q-72 0 -125 52t-53 124t53 125t125 53t129 -54t57 -124zM1118 840q0 -14 -5 -29t-11 -15q-68 -6 -112 -41t-72 -97l-376 -808q-108 -228 -176 -317
t-180 -89q-78 0 -122 38t-44 102q0 62 44 105t110 43q52 0 83 -19t57 -19q24 0 55 37t89 173l28 64l-348 690q-32 66 -65 97t-111 41q-6 2 -11 16t-5 28t5 29t11 15q62 0 144 -6t152 -6t157 6t149 6q6 0 11 -16t5 -28q0 -10 -5 -27t-11 -17q-46 -4 -73 -18t-27 -44
q0 -22 7 -40t15 -36l160 -338l150 338q8 20 11 30t3 28q0 32 -22 52t-80 28q-6 2 -11 16t-5 28t5 29t11 15q62 0 109 -6t105 -6q34 0 82 6t98 6q6 0 11 -15t5 -29z" />
    <glyph glyph-name="Ydieresis" unicode="&#x178;" horiz-adv-x="1558" 
d="M1332 1702q0 -74 -56 -130t-130 -56q-76 0 -131 56t-55 130t55 130t131 56q74 0 130 -56t56 -130zM828 1702q0 -74 -56 -130t-130 -56q-76 0 -131 56t-55 130t55 130t131 56q74 0 130 -56t56 -130zM1626 1336q0 -10 -8 -27t-14 -17q-82 -8 -141 -46t-119 -122l-352 -510
v-368q0 -80 30 -118t146 -50q6 0 11 -17t5 -27q0 -12 -5 -28t-11 -16q-98 0 -190 5t-184 5t-191 -5t-197 -5q-6 0 -11 15t-5 29q0 10 5 26t11 18q116 14 153 50t37 118v366l-324 512q-54 84 -109 120t-165 48q-6 2 -11 18t-5 26q0 12 5 28t11 16q70 0 171 -5t179 -5
q80 0 207 5t225 5q6 0 11 -15t5 -29q0 -10 -5 -27t-11 -17q-72 -8 -102 -27t-30 -45q0 -20 12 -44t30 -52l254 -394l264 394q16 24 26 45t10 41q0 30 -28 51t-112 31q-6 2 -8 18t-2 26q0 14 5 29t11 15q86 0 142 -5t138 -5q62 0 114 5t106 5q6 0 11 -16t5 -28z" />
    <glyph glyph-name="fraction" unicode="&#x2044;" horiz-adv-x="92" 
d="M552 1388l-934 -1430q-6 -10 -17 -8t-25 12q-16 8 -21 17t-1 19l936 1432q4 10 17 7t25 -11q14 -8 21 -17t-1 -21z" />
    <glyph glyph-name="currency" unicode="&#xa4;" horiz-adv-x="1252" 
d="M1124 28q0 -10 -9 -28t-23 -30q-16 -14 -30 -22t-28 -8q-2 0 -7 2l-5 2l-108 110q-60 -46 -133 -71t-155 -25q-76 0 -153 25t-133 71l-110 -110l-4 -2t-8 -2q-12 0 -28 8t-30 22t-22 31t-8 27q0 4 2 8l2 4l108 108q-42 56 -67 131t-25 157t25 157t67 131l-108 108l-2 4
t-2 8q0 14 8 28t22 30q12 14 30 22t28 8q4 0 8 -1t4 -3l110 -108q50 42 132 68t154 26q84 0 161 -27t127 -67l108 108q0 2 5 3t7 1q14 0 29 -8t29 -22t23 -30t9 -28q0 -4 -2 -8l-2 -4l-110 -108q44 -54 68 -133t24 -155q0 -80 -25 -158t-67 -130l110 -108l2 -4t2 -8z
M962 436q0 166 -101 261t-235 95q-136 0 -236 -94t-100 -262q0 -166 101 -261t235 -95q136 0 236 94t100 262z" />
    <glyph glyph-name="guilsinglleft" unicode="&#x2039;" horiz-adv-x="588" 
d="M494 122q4 -10 -2 -26t-16 -24l-21 -15t-21 -5q-2 0 -5 1l-3 1l-324 320q-4 4 -9 15t-5 21q0 8 6 20l8 16l324 318l3 2t5 2q12 0 22 -7t20 -15q8 -6 16 -23t2 -27l-126 -286z" />
    <glyph glyph-name="guilsinglright" unicode="&#x203a;" horiz-adv-x="588" 
d="M538 410q0 -10 -5 -22t-9 -14l-324 -320l-3 -1t-5 -1q-10 0 -20 5t-22 15q-12 12 -17 26t-1 24l126 288l-126 286q-6 10 2 26t16 24q14 12 23 17t19 5q2 0 5 -2l3 -2l324 -318l8 -16t6 -20z" />
    <glyph glyph-name="daggerdbl" unicode="&#x2021;" horiz-adv-x="1166" 
d="M582 -594q-60 0 -89 35t-29 85q0 32 14 57t52 45q-42 20 -62 55t-20 79q-36 -42 -58 -55t-66 -13q-34 0 -64 42t-46 84q-8 -34 -30 -56t-64 -22q-48 0 -79 34t-31 78q0 46 25 81t81 35q38 0 61 -19t39 -41q18 -22 37 -40t61 -18q54 0 92 22t76 62l-56 66q44 74 71 167
t35 177q0 14 18 21t32 7q16 0 34 -7t18 -21q8 -86 35 -180t71 -164l-56 -66q42 -44 74 -64t94 -20q38 0 62 20t38 38q14 20 41 40t57 20q52 0 79 -36t27 -80t-29 -78t-81 -34q-42 0 -66 26t-28 52q-16 -40 -44 -83t-66 -43q-40 0 -67 14t-57 54q0 -46 -22 -81t-60 -53
q34 -16 50 -44t16 -58q0 -48 -29 -84t-91 -36zM582 438q-16 0 -32 6t-18 22q-10 84 -35 177t-71 167l56 66q-44 44 -77 64t-91 20q-38 0 -58 -19t-40 -41t-38 -40t-62 -18q-52 0 -79 36t-27 80q0 48 27 80t83 32q36 0 62 -23t32 -55q12 34 46 80t64 46q46 0 72 -17t52 -51
q0 52 19 82t63 52q-36 18 -51 45t-15 57q0 50 28 85t90 35t91 -36t29 -84q0 -26 -15 -56t-51 -46q34 -16 58 -50t24 -84q28 38 57 53t67 15q36 0 68 -48t42 -78q4 34 28 56t66 22q48 0 79 -35t31 -77q0 -46 -25 -81t-81 -35q-36 0 -58 18t-40 40q-18 24 -41 42t-59 18
q-56 0 -92 -22t-76 -62l56 -66q-46 -72 -71 -163t-35 -181q-2 -14 -18 -21t-34 -7z" />
    <glyph glyph-name="periodcentered" unicode="&#xb7;" horiz-adv-x="640" 
d="M502 676q0 -74 -53 -128t-129 -54q-74 0 -128 54t-54 128t54 128t128 54q76 0 129 -54t53 -128z" />
    <glyph glyph-name="quotesinglbase" unicode="&#x201a;" horiz-adv-x="600" 
d="M498 70q0 -152 -82 -269t-220 -195q-6 -2 -19 7t-21 19t-14 25t0 19q68 46 117 94t49 148q0 24 -3 34t-11 10q-6 0 -13 -3t-17 -3q-58 0 -102 41t-44 129q0 74 51 135t131 61q90 0 144 -72t54 -180z" />
    <glyph glyph-name="quotedblbase" unicode="&#x201e;" horiz-adv-x="1032" 
d="M498 70q0 -152 -82 -269t-220 -195q-6 -2 -19 7t-21 19t-14 25t0 19q68 46 117 94t49 148q0 24 -3 34t-11 10q-6 0 -13 -3t-17 -3q-58 0 -102 41t-44 129q0 74 51 135t131 61q90 0 144 -72t54 -180zM960 70q0 -152 -82 -269t-220 -195q-6 -2 -19 7t-21 19t-14 25t0 19
q68 46 117 94t49 148q0 24 -3 34t-11 10q-6 0 -13 -3t-17 -3q-58 0 -102 41t-44 129q0 74 51 135t131 61q90 0 144 -72t54 -180z" />
    <glyph glyph-name="perthousand" horiz-adv-x="2994" 
d="M2884 498q0 -194 -144 -367t-396 -173q-146 0 -232 85t-86 213q0 194 144 367t396 173q146 0 232 -85t86 -213zM1954 498q0 -94 -37 -195t-105 -173q-76 -82 -168 -127t-230 -45q-146 0 -231 86t-85 212q0 194 143 367t395 173q146 0 232 -85t86 -213zM1516 1228
l-868 -1304q-6 -8 -24 -2t-30 14q-16 10 -27 23t-7 23l730 1094q-68 -36 -130 -50t-120 -14q-18 0 -40 2t-38 6q2 -10 3 -28t1 -34q-2 -198 -144 -367t-394 -169q-146 0 -232 85t-86 213q0 194 144 367t396 173q100 0 168 -37t102 -91q36 -14 65 -20t71 -6q90 0 188 46
t184 134q6 10 26 2t28 -14q12 -6 26 -21t8 -25zM2532 268q40 98 63 193t23 171q0 36 -13 55t-41 19q-44 0 -92 -57t-94 -163q-34 -74 -60 -189t-26 -175q0 -36 13 -55t41 -19q50 0 100 65t86 155zM1688 632q0 36 -13 55t-41 19q-98 0 -184 -227t-86 -357q0 -36 12 -55
t42 -19q98 0 184 227t86 357zM702 1098q-30 16 -45 30t-27 40q-92 -20 -173 -236t-81 -346q0 -36 13 -55t41 -19q98 0 184 225t86 353z" />
    <glyph glyph-name="Acircumflex" unicode="&#xc2;" horiz-adv-x="1594" 
d="M1582 34q0 -12 -5 -28t-11 -16q-96 0 -194 5t-180 5q-92 0 -197 -5t-203 -5q-6 0 -11 15t-5 29q0 10 3 26t9 18q96 6 127 25t31 59q0 16 -7 40t-15 44l-54 140h-420l-48 -116q-12 -28 -19 -53t-7 -43q0 -42 23 -67t127 -29q6 0 8 -17t2 -27q0 -14 -5 -29t-11 -15
q-86 0 -134 5t-128 5q-66 0 -116 -5t-118 -5q-6 0 -10 17t-4 27t9 26t15 18q86 8 134 52t98 148l496 1118q2 6 22 11t38 5t38 -5t22 -11l444 -1118q36 -100 86 -145t150 -55q6 0 13 -17t7 -27zM832 482l-168 440l-176 -440h344zM1228 1552q0 -10 -7 -22t-15 -18t-16 -10
t-16 -4t-15 3t-13 7l-324 142l-324 -142q-6 -2 -14 -6t-14 -4q-8 0 -16 3t-18 11t-16 19t-6 21q0 4 3 10l5 10l356 332q6 8 19 14t25 6q16 0 26 -6t16 -14l356 -332q2 -2 5 -9t3 -11z" />
    <glyph glyph-name="Ecircumflex" unicode="&#xca;" horiz-adv-x="1530" 
d="M1172 1552q0 -10 -7 -22t-15 -18t-16 -10t-16 -4t-15 3t-13 7l-324 142l-324 -142q-6 -2 -14 -6t-14 -4q-8 0 -16 3t-18 11t-16 19t-6 21q0 4 3 10l5 10l356 332q6 8 19 14t25 6q16 0 26 -6t16 -14l356 -332q2 -2 5 -9t3 -11zM1420 458q-14 -112 -27 -237t-19 -231
q-126 4 -316 7t-306 3t-330 -4t-320 -6q-6 0 -11 16t-5 28q0 10 5 26t11 18q118 14 155 50t37 118v878q0 82 -37 118t-155 50q-6 2 -11 18t-5 26q0 12 5 28t11 16q106 -2 304 -6t326 -4q108 0 306 3t320 7q-4 -82 3 -212t11 -234q0 -8 -15 -17t-41 -9q-14 0 -24 4t-10 8
q-16 126 -105 239t-251 113h-120q-40 0 -78 -20t-38 -98v-414h68q100 0 161 60t71 158q0 6 17 11t27 5q14 0 29 -5t15 -11q0 -74 -5 -138t-5 -132q0 -70 5 -131t5 -133q0 -6 -15 -11t-29 -5q-10 0 -26 5t-18 11q-12 104 -67 161t-165 57h-68v-426q0 -72 38 -95t78 -23h104
q152 0 270 110t148 270q0 4 9 6t21 2q22 0 43 -8t19 -20z" />
    <glyph glyph-name="Aacute" unicode="&#xc1;" horiz-adv-x="1594" 
d="M1582 34q0 -12 -5 -28t-11 -16q-96 0 -194 5t-180 5q-92 0 -197 -5t-203 -5q-6 0 -11 15t-5 29q0 10 3 26t9 18q96 6 127 25t31 59q0 16 -7 40t-15 44l-54 140h-420l-48 -116q-12 -28 -19 -53t-7 -43q0 -42 23 -67t127 -29q6 0 8 -17t2 -27q0 -14 -5 -29t-11 -15
q-86 0 -134 5t-128 5q-66 0 -116 -5t-118 -5q-6 0 -10 17t-4 27t9 26t15 18q86 8 134 52t98 148l496 1118q2 6 22 11t38 5t38 -5t22 -11l444 -1118q36 -100 86 -145t150 -55q6 0 13 -17t7 -27zM832 482l-168 440l-176 -440h344zM1258 1770q0 -24 -10 -47t-34 -35l-396 -190
q-2 0 -5 -1t-7 -1q-6 0 -20 7t-22 17q-4 6 -9 17t-5 21q0 4 2 10t4 10l284 338q8 12 26 19t34 7q32 0 68 -20t56 -46q18 -24 26 -53t8 -53z" />
    <glyph glyph-name="Edieresis" unicode="&#xcb;" horiz-adv-x="1530" 
d="M1420 458q-14 -112 -27 -237t-19 -231q-126 4 -316 7t-306 3t-330 -4t-320 -6q-6 0 -11 16t-5 28q0 10 5 26t11 18q118 14 155 50t37 118v878q0 82 -37 118t-155 50q-6 2 -11 18t-5 26q0 12 5 28t11 16q106 -2 304 -6t326 -4q108 0 306 3t320 7q-4 -82 3 -212t11 -234
q0 -8 -15 -17t-41 -9q-14 0 -24 4t-10 8q-16 126 -105 239t-251 113h-120q-40 0 -78 -20t-38 -98v-414h68q100 0 161 60t71 158q0 6 17 11t27 5q14 0 29 -5t15 -11q0 -74 -5 -138t-5 -132q0 -70 5 -131t5 -133q0 -6 -15 -11t-29 -5q-10 0 -26 5t-18 11q-12 104 -67 161
t-165 57h-68v-426q0 -72 38 -95t78 -23h104q152 0 270 110t148 270q0 4 9 6t21 2q22 0 43 -8t19 -20zM1238 1702q0 -74 -56 -130t-130 -56q-76 0 -131 56t-55 130t55 130t131 56q74 0 130 -56t56 -130zM734 1702q0 -74 -56 -130t-130 -56q-76 0 -131 56t-55 130t55 130
t131 56q74 0 130 -56t56 -130z" />
    <glyph glyph-name="Egrave" unicode="&#xc8;" horiz-adv-x="1530" 
d="M1420 458q-14 -112 -27 -237t-19 -231q-126 4 -316 7t-306 3t-330 -4t-320 -6q-6 0 -11 16t-5 28q0 10 5 26t11 18q118 14 155 50t37 118v878q0 82 -37 118t-155 50q-6 2 -11 18t-5 26q0 12 5 28t11 16q106 -2 304 -6t326 -4q108 0 306 3t320 7q-4 -82 3 -212t11 -234
q0 -8 -15 -17t-41 -9q-14 0 -24 4t-10 8q-16 126 -105 239t-251 113h-120q-40 0 -78 -20t-38 -98v-414h68q100 0 161 60t71 158q0 6 17 11t27 5q14 0 29 -5t15 -11q0 -74 -5 -138t-5 -132q0 -70 5 -131t5 -133q0 -6 -15 -11t-29 -5q-10 0 -26 5t-18 11q-12 104 -67 161
t-165 57h-68v-426q0 -72 38 -95t78 -23h104q152 0 270 110t148 270q0 4 9 6t21 2q22 0 43 -8t19 -20zM1005 1560q0 -12 -5 -23t-9 -17q-8 -8 -22 -16t-20 -8h-8t-4 2l-394 188q-24 10 -36 33t-12 49q0 30 10 57t26 51q16 22 57 44t71 22q18 0 35 -6t27 -20l278 -338
q2 -2 4 -8t2 -10z" />
    <glyph glyph-name="Iacute" unicode="&#xcd;" horiz-adv-x="984" 
d="M896 34q0 -14 -5 -29t-11 -15q-98 0 -197 5t-191 5t-192 -5t-198 -5q-6 0 -11 16t-5 28q0 10 5 26t11 18q118 14 155 50t37 118v878q0 82 -37 118t-155 50q-6 2 -11 18t-5 26q0 12 5 28t11 16q98 0 198 -5t192 -5t191 5t197 5q6 0 11 -15t5 -29q0 -10 -5 -27t-11 -17
q-114 -12 -152 -50t-38 -118v-878q0 -80 38 -118t152 -50q6 0 11 -17t5 -27zM859 1770q0 -24 -10 -47t-34 -35l-396 -190q-2 0 -5 -1t-7 -1q-6 0 -20 7t-22 17q-4 6 -9 17t-5 21q0 4 2 10t4 10l284 338q8 12 26 19t34 7q32 0 68 -20t56 -46q18 -24 26 -53t8 -53z" />
    <glyph glyph-name="Icircumflex" unicode="&#xce;" horiz-adv-x="984" 
d="M896 34q0 -14 -5 -29t-11 -15q-98 0 -197 5t-191 5t-192 -5t-198 -5q-6 0 -11 16t-5 28q0 10 5 26t11 18q118 14 155 50t37 118v878q0 82 -37 118t-155 50q-6 2 -11 18t-5 26q0 12 5 28t11 16q98 0 198 -5t192 -5t191 5t197 5q6 0 11 -15t5 -29q0 -10 -5 -27t-11 -17
q-114 -12 -152 -50t-38 -118v-878q0 -80 38 -118t152 -50q6 0 11 -17t5 -27zM897 1552q0 -10 -7 -22t-15 -18t-16 -10t-16 -4t-15 3t-13 7l-324 142l-324 -142q-6 -2 -14 -6t-14 -4q-8 0 -16 3t-18 11t-16 19t-6 21q0 4 3 10l5 10l356 332q6 8 19 14t25 6q16 0 26 -6t16 -14
l356 -332q2 -2 5 -9t3 -11z" />
    <glyph glyph-name="Idieresis" unicode="&#xcf;" horiz-adv-x="984" 
d="M896 34q0 -14 -5 -29t-11 -15q-98 0 -197 5t-191 5t-192 -5t-198 -5q-6 0 -11 16t-5 28q0 10 5 26t11 18q118 14 155 50t37 118v878q0 82 -37 118t-155 50q-6 2 -11 18t-5 26q0 12 5 28t11 16q98 0 198 -5t192 -5t191 5t197 5q6 0 11 -15t5 -29q0 -10 -5 -27t-11 -17
q-114 -12 -152 -50t-38 -118v-878q0 -80 38 -118t152 -50q6 0 11 -17t5 -27zM952 1702q0 -74 -56 -130t-130 -56q-76 0 -131 56t-55 130t55 130t131 56q74 0 130 -56t56 -130zM448 1702q0 -74 -56 -130t-130 -56q-76 0 -131 56t-55 130t55 130t131 56q74 0 130 -56t56 -130z
" />
    <glyph glyph-name="Igrave" unicode="&#xcc;" horiz-adv-x="984" 
d="M896 34q0 -14 -5 -29t-11 -15q-98 0 -197 5t-191 5t-192 -5t-198 -5q-6 0 -11 16t-5 28q0 10 5 26t11 18q118 14 155 50t37 118v878q0 82 -37 118t-155 50q-6 2 -11 18t-5 26q0 12 5 28t11 16q98 0 198 -5t192 -5t191 5t197 5q6 0 11 -15t5 -29q0 -10 -5 -27t-11 -17
q-114 -12 -152 -50t-38 -118v-878q0 -80 38 -118t152 -50q6 0 11 -17t5 -27zM726 1560q0 -12 -5 -23t-9 -17q-8 -8 -22 -16t-20 -8h-8t-4 2l-394 188q-24 10 -36 33t-12 49q0 30 10 57t26 51q16 22 57 44t71 22q18 0 35 -6t27 -20l278 -338q2 -2 4 -8t2 -10z" />
    <glyph glyph-name="Oacute" unicode="&#xd3;" horiz-adv-x="1740" 
d="M1654 678q0 -300 -205 -510t-579 -210t-580 211t-206 509t206 516t580 218q366 0 575 -215t209 -519zM1242 678q0 276 -80 457t-292 181q-214 0 -293 -183t-79 -455q0 -278 79 -451t293 -173q212 0 292 174t80 450zM1273 1770q0 -24 -10 -47t-34 -35l-396 -190
q-2 0 -5 -1t-7 -1q-6 0 -20 7t-22 17q-4 6 -9 17t-5 21q0 4 2 10t4 10l284 338q8 12 26 19t34 7q32 0 68 -20t56 -46q18 -24 26 -53t8 -53z" />
    <glyph glyph-name="Ocircumflex" unicode="&#xd4;" horiz-adv-x="1740" 
d="M1654 678q0 -300 -205 -510t-579 -210t-580 211t-206 509t206 516t580 218q366 0 575 -215t209 -519zM1242 678q0 276 -80 457t-292 181q-214 0 -293 -183t-79 -455q0 -278 79 -451t293 -173q212 0 292 174t80 450zM1274 1552q0 -10 -7 -22t-15 -18t-16 -10t-16 -4t-15 3
t-13 7l-324 142l-324 -142q-6 -2 -14 -6t-14 -4q-8 0 -16 3t-18 11t-16 19t-6 21q0 4 3 10l5 10l356 332q6 8 19 14t25 6q16 0 26 -6t16 -14l356 -332q2 -2 5 -9t3 -11z" />
    <glyph glyph-name="apple" unicode="&#xf8ff;" horiz-adv-x="1659" 
d="M703 1206q53 -15 88.5 -22.5t52.5 -7.5q22 0 57.5 8t83.5 25q49 16 92.5 24.5t81.5 8.5q92 0 171.5 -41t145.5 -123q-102 -86 -140.5 -161.5t-38.5 -165.5q0 -122 68.5 -221t158.5 -126q-49 -157 -159 -302t-222 -145q-24 0 -59 8t-81 25q-43 15 -80.5 23t-69.5 8t-68 -8
t-76 -24q-41 -17 -74.5 -25.5t-59.5 -8.5q-150 0 -298 258t-148 508q0 225 112 369.5t287 144.5q38 0 81.5 -7.5t93.5 -21.5zM1145 1598q1 -3 1.5 -8t0.5 -12q0 -53 -23 -119t-67 -118q-46 -55 -92 -84.5t-151 -41.5q1 148 76.5 256.5t250.5 148.5q1 -4 2 -9.5t2 -12.5z" />
    <glyph glyph-name="Ograve" unicode="&#xd2;" horiz-adv-x="1740" 
d="M1654 678q0 -300 -205 -510t-579 -210t-580 211t-206 509t206 516t580 218q366 0 575 -215t209 -519zM1242 678q0 276 -80 457t-292 181q-214 0 -293 -183t-79 -455q0 -278 79 -451t293 -173q212 0 292 174t80 450zM1084 1560q0 -12 -5 -23t-9 -17q-8 -8 -22 -16t-20 -8
h-8t-4 2l-394 188q-24 10 -36 33t-12 49q0 30 10 57t26 51q16 22 57 44t71 22q18 0 35 -6t27 -20l278 -338q2 -2 4 -8t2 -10z" />
    <glyph glyph-name="Uacute" unicode="&#xda;" horiz-adv-x="1664" 
d="M1662 1336q0 -10 -5 -27t-11 -17q-116 -12 -156 -48t-40 -120v-630q0 -218 -134 -377t-408 -159q-332 0 -505 147t-173 453v566q0 82 -37 118t-155 50q-6 2 -11 18t-5 26q0 12 5 28t11 16q98 0 198 -5t192 -5q90 0 191 5t197 5q6 0 11 -16t5 -28q0 -10 -5 -27t-11 -17
q-116 -12 -154 -50t-38 -118v-634q0 -204 76 -300t272 -96q178 0 263 112t85 308v610q0 82 -39 118t-155 50q-6 2 -11 18t-5 26q0 14 5 29t11 15q66 0 128 -5t132 -5t129 5t131 5q6 0 11 -16t5 -28zM1363 1770q0 -24 -10 -47t-34 -35l-396 -190q-2 0 -5 -1t-7 -1q-6 0 -20 7
t-22 17q-4 6 -9 17t-5 21q0 4 2 10t4 10l284 338q8 12 26 19t34 7q32 0 68 -20t56 -46q18 -24 26 -53t8 -53z" />
    <glyph glyph-name="Ucircumflex" unicode="&#xdb;" horiz-adv-x="1664" 
d="M1662 1336q0 -10 -5 -27t-11 -17q-116 -12 -156 -48t-40 -120v-630q0 -218 -134 -377t-408 -159q-332 0 -505 147t-173 453v566q0 82 -37 118t-155 50q-6 2 -11 18t-5 26q0 12 5 28t11 16q98 0 198 -5t192 -5q90 0 191 5t197 5q6 0 11 -16t5 -28q0 -10 -5 -27t-11 -17
q-116 -12 -154 -50t-38 -118v-634q0 -204 76 -300t272 -96q178 0 263 112t85 308v610q0 82 -39 118t-155 50q-6 2 -11 18t-5 26q0 14 5 29t11 15q66 0 128 -5t132 -5t129 5t131 5q6 0 11 -16t5 -28zM1385 1552q0 -10 -7 -22t-15 -18t-16 -10t-16 -4t-15 3t-13 7l-324 142
l-324 -142q-6 -2 -14 -6t-14 -4q-8 0 -16 3t-18 11t-16 19t-6 21q0 4 3 10l5 10l356 332q6 8 19 14t25 6q16 0 26 -6t16 -14l356 -332q2 -2 5 -9t3 -11z" />
    <glyph glyph-name="Ugrave" unicode="&#xd9;" horiz-adv-x="1664" 
d="M1662 1336q0 -10 -5 -27t-11 -17q-116 -12 -156 -48t-40 -120v-630q0 -218 -134 -377t-408 -159q-332 0 -505 147t-173 453v566q0 82 -37 118t-155 50q-6 2 -11 18t-5 26q0 12 5 28t11 16q98 0 198 -5t192 -5q90 0 191 5t197 5q6 0 11 -16t5 -28q0 -10 -5 -27t-11 -17
q-116 -12 -154 -50t-38 -118v-634q0 -204 76 -300t272 -96q178 0 263 112t85 308v610q0 82 -39 118t-155 50q-6 2 -11 18t-5 26q0 14 5 29t11 15q66 0 128 -5t132 -5t129 5t131 5q6 0 11 -16t5 -28zM1076 1560q0 -12 -5 -23t-9 -17q-8 -8 -22 -16t-20 -8h-8t-4 2l-394 188
q-24 10 -36 33t-12 49q0 30 10 57t26 51q16 22 57 44t71 22q18 0 35 -6t27 -20l278 -338q2 -2 4 -8t2 -10z" />
    <glyph glyph-name="dotlessi" unicode="&#x131;" horiz-adv-x="658" 
d="M674 34q0 -12 -5 -28t-11 -16q-62 0 -155 5t-163 5q-68 0 -150 -5t-142 -5q-6 0 -11 16t-5 28q0 10 5 26t11 18q74 8 105 40t31 128v300q0 80 -31 104t-105 32q-6 2 -11 17t-5 25t5 26t11 16q96 20 216 65t186 77q6 4 20 10t24 6q24 0 35 -8t9 -18q-4 -70 -10 -170
t-6 -168v-314q0 -94 32 -128t104 -40q6 0 11 -17t5 -27z" />
    <glyph glyph-name="circumflex" unicode="&#x2c6;" 
d="M726 1122q0 -8 -7 -20t-15 -18t-16 -10t-14 -4t-14 3t-14 7l-246 152l-248 -152q-5 -3 -13.5 -6.5t-14.5 -3.5t-13.5 3.5t-16.5 10.5q-10 8 -16 19t-6 19q0 6 2.5 11.5t5.5 8.5l278 332q7 8 19.5 13t22.5 5q12 0 23 -5t17 -13l278 -332q3 -3 5.5 -8.5t2.5 -11.5z" />
    <glyph glyph-name="tilde" unicode="&#x2dc;" 
d="M784 1416q-28 -180 -90 -238.5t-160 -49.5l-270 26q-64 6 -108 -24t-76 -88q-2 -4 -6 -6t-12 -2q-20 0 -39 14t-13 48q28 148 99 228.5t205 65.5l232 -26q72 -8 109 21t59 85q1 4 7.5 6t12.5 2q16 0 35.5 -16t14.5 -46z" />
    <glyph glyph-name="macron" unicode="&#xaf;" 
d="M734 1290q0 -30 -12 -58t-30 -28h-584q-20 0 -31 31t-11 55t10 56t32 32h584q18 0 30 -31t12 -57z" />
    <glyph glyph-name="breve" unicode="&#x2d8;" 
d="M730 1410q0 -162 -92 -256t-238 -94t-238 94t-92 256q0 6 11 11t33 5q16 0 29.5 -5t14.5 -11q14 -62 74 -106t168 -44q104 0 166 44t76 106q1 6 14.5 11t29.5 5q20 0 32 -5t12 -11z" />
    <glyph glyph-name="dotaccent" unicode="&#x2d9;" 
d="M578 1282q0 -72 -53 -124t-125 -52t-124 52t-52 124t52 125t124 53t125 -53t53 -125z" />
    <glyph glyph-name="ring" unicode="&#x2da;" 
d="M628 1150q0 -86 -62 -152t-166 -66q-100 0 -165 67t-65 151t65 150t165 66q98 0 163 -66t65 -150zM520 1150q0 56 -33 94t-87 38q-48 0 -84 -38t-36 -94q0 -58 34 -96t86 -38t86 38t34 96z" />
    <glyph glyph-name="cedilla" unicode="&#xb8;" 
d="M548 -284q0 -84 -86 -132t-170 -48q-74 0 -109 25t-35 55q0 24 14 43t46 19q38 0 66 -30t60 -30q24 0 35 14t11 50t-44 67t-80 49q-8 4 -14 12t-6 18q0 4 2 9t4 9l124 182h112l-56 -98q-4 -4 -5 -9t-1 -9q0 -8 4 -15t16 -15q48 -30 80 -63t32 -103z" />
    <glyph glyph-name="hungarumlaut" unicode="&#x2dd;" horiz-adv-x="900" 
d="M914 1334q0 -20 -12.5 -44.5t-31.5 -33.5l-362 -180l-3 -2t-7 -2q-6 0 -19 7t-21 17q-4 6 -8 16t-4 20q0 4 1 10t3 8l254 322q9 11 26.5 18.5t31.5 7.5q30 0 63 -18t55 -46q17 -22 25.5 -47t8.5 -53zM506 1334q0 -20 -11.5 -44.5t-30.5 -33.5l-378 -180l-3 -2t-7 -2
q-6 0 -20 7t-20 17q-4 6 -9 16t-5 20q0 4 1.5 9.5t4.5 8.5l270 322q9 11 25.5 18.5t30.5 7.5q30 0 64 -18t56 -46q17 -22 24.5 -47t7.5 -53z" />
    <glyph glyph-name="ogonek" unicode="&#x2db;" 
d="M574 -384q-36 -32 -77 -56t-129 -24q-108 0 -166 51t-58 125q0 106 95 190t223 156q6 4 19 -4t19 -16t12 -20t0 -14q-70 -46 -110 -111t-40 -131q0 -48 27 -75t71 -27q12 0 40 7t46 15q6 2 14 -9t12 -19q4 -12 5 -23t-3 -15z" />
    <glyph glyph-name="caron" unicode="&#x2c7;" 
d="M726 1408q0 -4 -2.5 -10t-5.5 -10l-278 -332q-6 -8 -16 -13t-24 -5q-12 0 -23.5 5t-18.5 13l-278 332q-3 4 -5.5 10t-2.5 10q0 8 6 18t16 20q7 7 15.5 10.5t14.5 3.5t14.5 -3.5t13.5 -6.5l248 -150l246 150q6 4 14 7t14 3t14.5 -4.5t15.5 -9.5q10 -8 16 -19t6 -19z" />
    <glyph glyph-name="spacingcommaaccent" horiz-adv-x="900" 
d="M616 -334q0 -112 -60 -200t-176 -154q-6 -2 -17 5t-17 15t-11 21t-1 17q56 36 89 71t33 97q0 20 -2 29t-8 9t-12 -2t-14 -2q-48 0 -85 34t-37 106q0 64 40 114t112 50q76 0 121 -59t45 -151z" />
    <glyph glyph-name="brokenbar" unicode="&#xa6;" horiz-adv-x="344" 
d="M244 766q0 -12 -25 -16t-47 -4q-20 0 -46 5t-26 15v596q0 12 26 16t46 4q22 0 47 -4t25 -16v-596zM244 -30q0 -12 -25 -16t-47 -4q-20 0 -46 5t-26 15v596q0 12 26 16t46 4q22 0 47 -4t25 -16v-596z" />
    <glyph glyph-name="minus" unicode="&#x2212;" horiz-adv-x="824" 
d="M716 442q0 -40 -7 -63t-19 -23h-520q-12 0 -19 23t-7 63q0 38 7 62t19 24h520q12 0 19 -24t7 -62z" />
    <glyph glyph-name="multiply" unicode="&#xd7;" horiz-adv-x="768" 
d="M678 240q0 -8 -13 -27t-23 -27q-12 -12 -28 -24t-24 -12q-4 0 -8 2l-4 2l-194 198l-194 -198l-4 -2t-8 -2q-8 0 -24 11t-30 25q-12 12 -23 29t-11 25q0 2 2 6l2 4l196 194l-196 194l-2 4t-2 8q0 8 13 26t21 28q10 10 28 22t26 12q4 0 8 -1t4 -3l194 -196l194 196q0 2 4 3
t8 1q8 0 25 -12t27 -22q12 -12 24 -29t12 -25q0 -4 -2 -8l-2 -4l-198 -194l198 -194l2 -4t2 -6z" />
    <glyph glyph-name="colonmonetary" horiz-adv-x="1462" 
d="M1324 430q-12 -80 -28 -210t-24 -192q-82 0 -202 -35t-252 -35q-18 0 -41 1t-53 3l-28 -88q-2 -2 -6 -4t-10 -2q-10 0 -35 9t-31 19l-2 6l24 70q-32 6 -65 14t-61 18l-44 -130q-2 -2 -6 -4t-10 -2q-10 0 -35 9t-31 19l-2 6l44 134q-182 86 -271 241t-89 325
q0 258 203 458t565 200h2l34 102q0 4 7 6t13 2q18 0 38 -9t26 -21v-6l-26 -78q40 -2 73 -8t57 -10l42 124q0 4 7 6t13 2q18 0 38 -9t26 -21v-6l-38 -110q32 -6 58 -9t54 -3q4 -86 14 -216t14 -186q0 -6 -17 -10t-27 -4t-23 4t-15 10q-12 60 -44 121t-76 107l-52 -156
t-112 -334q-74 -220 -119 -356l-45 -136q12 0 28 -2t34 -2q162 0 267 115t157 263q2 6 16 10t24 4t26 -4t16 -10zM1014 1102q-30 22 -57 34t-61 22l-332 -992q18 -24 48 -48t60 -38zM804 1166h-6q-182 -10 -262 -161t-80 -403q0 -112 10 -183t38 -149z" />
    <glyph glyph-name="cruzeiro" horiz-adv-x="1474" 
d="M1370 376q-12 -80 -26 -174t-26 -186q-82 0 -206 -29t-256 -29q-374 0 -582 193t-208 451q0 274 227 466t579 192q140 0 245 -18t187 -18q4 -82 15 -192t15 -166q0 -6 -17 -10t-27 -4t-23 4t-15 10q-34 122 -149 211t-239 89q-206 0 -308 -157t-102 -407q0 -184 57 -319
t171 -193v384q0 66 -16 87t-76 27q-4 2 -8 15t-4 19q0 8 4 21t8 13q60 16 151 51t143 61q6 4 17 9t21 5q20 0 28 -8t8 -14l-6 -164q32 80 95 125t125 45q78 0 123 -41t45 -99t-32 -96t-86 -38q-34 0 -56 15t-38 33q-16 20 -33 35t-39 15q-36 0 -59 -34t-39 -88v-406
q114 28 198 111t132 203q2 6 16 10t24 4t26 -5t16 -9z" />
    <glyph glyph-name="franc" horiz-adv-x="1376" 
d="M1314 828q0 -10 -18 -18t-34 -8q-6 0 -20 3t-14 7q-18 122 -102 227t-226 105h-108q-38 0 -75 -21t-37 -95v-352h80q92 0 147 50t65 140q0 6 16 11t28 5q10 0 26 -5t16 -11q0 -66 -6 -122t-6 -118q0 -64 6 -116t6 -120q0 -6 -16 -10t-26 -4q-12 0 -28 4t-16 10
q-12 92 -66 142t-146 50h-80v-184h196q10 0 17 -21t7 -41q0 -24 -7 -44t-17 -20l-196 8v-48q0 -78 39 -111t143 -45q6 0 10 -17t4 -27t-4 -26t-10 -16q-90 0 -186 5t-186 5t-181 -5t-181 -5q-6 0 -10 16t-4 26q0 12 4 27t10 17q106 14 139 45t33 111v48l-214 -8
q-10 0 -17 20t-7 44q0 20 7 41t17 21h214v602q0 82 -32 115t-140 47q-6 2 -10 18t-4 26q0 12 4 28t10 16q102 -4 285 -8t305 -4q98 0 279 3t293 9q2 -80 9 -207t15 -215z" />
    <glyph glyph-name="peseta" horiz-adv-x="1538" 
d="M1552 848q0 -24 -6 -44t-16 -20l-170 6q-28 -154 -168 -239t-376 -85q-34 0 -71 3t-65 11v-240q0 -84 32 -118t140 -46q6 0 10 -16t4 -26q0 -12 -4 -28t-10 -16q-90 0 -181 6t-181 6t-181 -6t-181 -6q-6 0 -10 17t-4 27t4 26t10 16q108 14 140 49t32 115v552l-214 -8
q-10 0 -17 20t-7 44q0 20 7 41t15 21h216v112q0 68 -32 98t-140 44q-6 0 -10 16t-4 26q0 12 4 28t10 16q88 0 187 -6t185 -6q84 0 161 6t167 6q262 0 390 -91t144 -249h168q10 0 16 -21t6 -41zM976 910q-8 144 -59 193t-131 49q-56 0 -81 -26t-25 -82v-134h296zM972 792
h-292v-166q0 -42 35 -54t61 -12q86 0 135 57t61 175z" />
    <glyph glyph-name="rupiah.bar" horiz-adv-x="2582" 
d="M2516 414q0 -186 -120 -321t-342 -135q-60 0 -104 10t-80 30v-258q0 -92 29 -120t111 -38q6 0 10 -14t4 -26q0 -10 -4 -24t-10 -14q-58 0 -148 5t-154 5q-66 0 -152 -5t-142 -5q-6 0 -10 14t-4 24q0 12 4 26t10 14q78 12 102 36t24 122v248q-62 2 -125 7t-105 5
q-48 0 -122 -5t-120 -5l-220 458q-28 58 -68 78t-102 20v-316q0 -74 28 -109t124 -47q6 0 10 -16t4 -26q0 -12 -4 -28t-10 -16q-88 0 -171 6t-169 6q-90 0 -181 -6t-181 -6q-6 0 -10 17t-4 27t4 26t10 16q108 14 140 49t32 115v760q0 84 -32 117t-140 47q-6 0 -10 16t-4 26
q0 12 4 28t10 16q88 0 188 -6t186 -6q84 0 161 5t167 5q282 0 414 -92t132 -228q0 -120 -61 -196t-193 -118l250 -412q32 -54 66 -82t102 -40v68v146v143v71q0 76 -18 96t-86 28q-6 0 -10 14t-4 22q0 10 4 24t10 14q64 18 184 56t172 66q6 4 18 10t22 6q22 0 31 -8t9 -16
l-8 -142q30 58 105 105t175 47q170 0 271 -117t101 -297zM2174 400q0 150 -42 215t-108 65q-58 0 -87 -25t-67 -89v-378q0 -64 34 -102t104 -38q120 0 143 102t23 250zM986 890q0 136 -49 198t-155 62q-60 0 -82 -25t-22 -89v-396q12 -2 32 -4t40 -2q124 0 180 57t56 199z
" />
    <glyph glyph-name="Amacron" unicode="&#x100;" horiz-adv-x="1594" 
d="M1582 34q0 -12 -5 -28t-11 -16q-96 0 -194 5t-180 5q-92 0 -197 -5t-203 -5q-6 0 -11 15t-5 29q0 10 3 26t9 18q96 6 127 25t31 59q0 16 -7 40t-15 44l-54 140h-420l-48 -116q-12 -28 -19 -53t-7 -43q0 -42 23 -67t127 -29q6 0 8 -17t2 -27q0 -14 -5 -29t-11 -15
q-86 0 -134 5t-128 5q-66 0 -116 -5t-118 -5q-6 0 -10 17t-4 27t9 26t15 18q86 8 134 52t98 148l496 1118q2 6 22 11t38 5t38 -5t22 -11l444 -1118q36 -100 86 -145t150 -55q6 0 13 -17t7 -27zM832 482l-168 440l-176 -440h344zM1294 1692q0 -24 -16 -57t-28 -33h-790
q-20 0 -32 32t-12 58t12 59t32 33h790q12 0 28 -34t16 -58z" />
    <glyph glyph-name="Abreve" unicode="&#x102;" horiz-adv-x="1594" 
d="M1582 34q0 -12 -5 -28t-11 -16q-96 0 -194 5t-180 5q-92 0 -197 -5t-203 -5q-6 0 -11 15t-5 29q0 10 3 26t9 18q96 6 127 25t31 59q0 16 -7 40t-15 44l-54 140h-420l-48 -116q-12 -28 -19 -53t-7 -43q0 -42 23 -67t127 -29q6 0 8 -17t2 -27q0 -14 -5 -29t-11 -15
q-86 0 -134 5t-128 5q-66 0 -116 -5t-118 -5q-6 0 -10 17t-4 27t9 26t15 18q86 8 134 52t98 148l496 1118q2 6 22 11t38 5t38 -5t22 -11l444 -1118q36 -100 86 -145t150 -55q6 0 13 -17t7 -27zM832 482l-168 440l-176 -440h344zM1180 1880q0 -168 -95 -268t-251 -100
t-252 101t-96 267q0 6 12 11t34 5q18 0 33 -5t15 -11q14 -66 75 -112t179 -46q112 0 176 47t78 111q0 6 15 11t31 5q20 0 33 -5t13 -11z" />
    <glyph glyph-name="Aogonek" unicode="&#x104;" horiz-adv-x="1594" 
d="M1582 34q0 -12 -5 -28t-11 -16q-96 0 -194 5t-180 5q-92 0 -197 -5t-203 -5q-6 0 -11 15t-5 29q0 10 3 26t9 18q96 6 127 25t31 59q0 16 -7 40t-15 44l-54 140h-420l-48 -116q-12 -28 -19 -53t-7 -43q0 -42 23 -67t127 -29q6 0 8 -17t2 -27q0 -14 -5 -29t-11 -15
q-86 0 -134 5t-128 5q-66 0 -116 -5t-118 -5q-6 0 -10 17t-4 27t9 26t15 18q86 8 134 52t98 148l496 1118q2 6 22 11t38 5t38 -5t22 -11l444 -1118q36 -100 86 -145t150 -55q6 0 13 -17t7 -27zM832 482l-168 440l-176 -440h344zM1552 -384q-36 -32 -77 -56t-129 -24
q-108 0 -166 51t-58 125q0 106 95 190t223 156q6 4 19 -4t19 -16t12 -20t0 -14q-70 -46 -110 -111t-40 -131q0 -48 27 -75t71 -27q12 0 40 7t46 15q6 2 14 -9t12 -19q4 -12 5 -23t-3 -15z" />
    <glyph glyph-name="Cacute" unicode="&#x106;" horiz-adv-x="1586" 
d="M1474 480q-12 -92 -29 -229t-25 -207q-90 0 -223 -43t-285 -43q-204 0 -361 61t-261 161t-155 229t-51 269q0 290 229 512t615 222q170 0 280 -30t202 -30q4 -96 12 -216t16 -220q0 -6 -18 -11t-32 -5q-10 0 -23 4t-17 12q-26 146 -149 273t-279 127q-236 0 -330 -181
t-94 -457q0 -270 93 -447t323 -177q184 0 300 128t174 298q2 8 17 12t25 4t28 -5t18 -11zM1200 1770q0 -24 -10 -47t-34 -35l-396 -190q-2 0 -5 -1t-7 -1q-6 0 -20 7t-22 17q-4 6 -9 17t-5 21q0 4 2 10t4 10l284 338q8 12 26 19t34 7q32 0 68 -20t56 -46q18 -24 26 -53
t8 -53z" />
    <glyph glyph-name="Ccaron" unicode="&#x10c;" horiz-adv-x="1586" 
d="M1474 480q-12 -92 -29 -229t-25 -207q-90 0 -223 -43t-285 -43q-204 0 -361 61t-261 161t-155 229t-51 269q0 290 229 512t615 222q170 0 280 -30t202 -30q4 -96 12 -216t16 -220q0 -6 -18 -11t-32 -5q-10 0 -23 4t-17 12q-26 146 -149 273t-279 127q-236 0 -330 -181
t-94 -457q0 -270 93 -447t323 -177q184 0 300 128t174 298q2 8 17 12t25 4t28 -5t18 -11zM1274 1870q0 -6 -2 -13t-6 -9l-356 -332q-8 -6 -17 -12t-25 -6q-14 0 -24 5t-20 13l-356 332q-4 4 -6 10t-2 12q0 8 6 18t16 20q8 8 17 11t17 3q6 0 14 -3t14 -5l324 -144l324 144
q6 4 13 6t15 2t17 -4t15 -10q10 -8 16 -19t6 -19z" />
    <glyph glyph-name="Dcaron" unicode="&#x10e;" horiz-adv-x="1790" 
d="M1232 1870q0 -6 -2 -13t-6 -9l-356 -332q-8 -6 -17 -12t-25 -6q-14 0 -24 5t-20 13l-356 332q-4 4 -6 10t-2 12q0 8 6 18t16 20q8 8 17 11t17 3q6 0 14 -3t14 -5l324 -144l324 144q6 4 13 6t15 2t17 -4t15 -10q10 -8 16 -19t6 -19zM1510 1176q100 -98 147 -223t47 -275
q0 -134 -42 -261t-140 -221q-104 -100 -247 -153t-383 -53q-76 0 -189 3t-189 3q-86 0 -214 -2t-198 -4q-6 0 -11 16t-5 28q0 10 5 26t11 18q118 14 155 50t37 118v878q0 82 -37 118t-155 50q-6 2 -11 18t-5 26q0 12 5 28t11 16q70 -2 198 -4t214 -2q76 0 190 3t188 3
q204 0 360 -53t258 -151zM1292 678q0 280 -85 443t-323 161l-78 -4q-40 0 -78 -22t-38 -94v-954q0 -72 38 -94t78 -22l78 -4q226 0 317 157t91 433z" />
    <glyph glyph-name="Dcroat" unicode="&#x110;" horiz-adv-x="1790" 
d="M690 724h196q10 0 17 -25t7 -45q0 -24 -7 -48t-17 -24l-196 8v-382q0 -72 38 -94t78 -22l78 -4q226 0 317 157t91 433q0 280 -85 443t-323 161l-78 -4q-40 0 -78 -22t-38 -94v-438zM294 590l-214 -8q-10 0 -17 24t-7 48q0 20 7 45t17 25h214v400q0 82 -37 118t-155 50
q-6 2 -11 18t-5 26q0 12 5 28t11 16q70 -2 198 -4t214 -2q76 0 190 3t188 3q204 0 360 -53t258 -151q100 -98 147 -223t47 -275q0 -134 -42 -261t-140 -221q-104 -100 -247 -153t-383 -53q-76 0 -189 3t-189 3q-86 0 -214 -2t-198 -4q-6 0 -11 16t-5 28q0 10 5 26t11 18
q118 14 155 50t37 118v344z" />
    <glyph glyph-name="Eth" unicode="&#xd0;" horiz-adv-x="1790" 
d="M690 724h196q10 0 17 -25t7 -45q0 -24 -7 -48t-17 -24l-196 8v-382q0 -72 38 -94t78 -22l78 -4q226 0 317 157t91 433q0 280 -85 443t-323 161l-78 -4q-40 0 -78 -22t-38 -94v-438zM294 590l-214 -8q-10 0 -17 24t-7 48q0 20 7 45t17 25h214v400q0 82 -37 118t-155 50
q-6 2 -11 18t-5 26q0 12 5 28t11 16q70 -2 198 -4t214 -2q76 0 190 3t188 3q204 0 360 -53t258 -151q100 -98 147 -223t47 -275q0 -134 -42 -261t-140 -221q-104 -100 -247 -153t-383 -53q-76 0 -189 3t-189 3q-86 0 -214 -2t-198 -4q-6 0 -11 16t-5 28q0 10 5 26t11 18
q118 14 155 50t37 118v344z" />
    <glyph glyph-name="Emacron" unicode="&#x112;" horiz-adv-x="1530" 
d="M1420 458q-14 -112 -27 -237t-19 -231q-126 4 -316 7t-306 3t-330 -4t-320 -6q-6 0 -11 16t-5 28q0 10 5 26t11 18q118 14 155 50t37 118v878q0 82 -37 118t-155 50q-6 2 -11 18t-5 26q0 12 5 28t11 16q106 -2 304 -6t326 -4q108 0 306 3t320 7q-4 -82 3 -212t11 -234
q0 -8 -15 -17t-41 -9q-14 0 -24 4t-10 8q-16 126 -105 239t-251 113h-120q-40 0 -78 -20t-38 -98v-414h68q100 0 161 60t71 158q0 6 17 11t27 5q14 0 29 -5t15 -11q0 -74 -5 -138t-5 -132q0 -70 5 -131t5 -133q0 -6 -15 -11t-29 -5q-10 0 -26 5t-18 11q-12 104 -67 161
t-165 57h-68v-426q0 -72 38 -95t78 -23h104q152 0 270 110t148 270q0 4 9 6t21 2q22 0 43 -8t19 -20zM1225 1692q0 -24 -16 -57t-28 -33h-790q-20 0 -32 32t-12 58t12 59t32 33h790q12 0 28 -34t16 -58z" />
    <glyph glyph-name="Edotaccent" unicode="&#x116;" horiz-adv-x="1530" 
d="M1420 458q-14 -112 -27 -237t-19 -231q-126 4 -316 7t-306 3t-330 -4t-320 -6q-6 0 -11 16t-5 28q0 10 5 26t11 18q118 14 155 50t37 118v878q0 82 -37 118t-155 50q-6 2 -11 18t-5 26q0 12 5 28t11 16q106 -2 304 -6t326 -4q108 0 306 3t320 7q-4 -82 3 -212t11 -234
q0 -8 -15 -17t-41 -9q-14 0 -24 4t-10 8q-16 126 -105 239t-251 113h-120q-40 0 -78 -20t-38 -98v-414h68q100 0 161 60t71 158q0 6 17 11t27 5q14 0 29 -5t15 -11q0 -74 -5 -138t-5 -132q0 -70 5 -131t5 -133q0 -6 -15 -11t-29 -5q-10 0 -26 5t-18 11q-12 104 -67 161
t-165 57h-68v-426q0 -72 38 -95t78 -23h104q152 0 270 110t148 270q0 4 9 6t21 2q22 0 43 -8t19 -20zM978 1712q0 -74 -56 -130t-130 -56q-76 0 -131 56t-55 130q0 76 55 131t131 55q74 0 130 -55t56 -131z" />
    <glyph glyph-name="Eogonek" unicode="&#x118;" horiz-adv-x="1530" 
d="M1420 458q-14 -112 -27 -237t-19 -231q-126 4 -316 7t-306 3t-330 -4t-320 -6q-6 0 -11 16t-5 28q0 10 5 26t11 18q118 14 155 50t37 118v878q0 82 -37 118t-155 50q-6 2 -11 18t-5 26q0 12 5 28t11 16q106 -2 304 -6t326 -4q108 0 306 3t320 7q-4 -82 3 -212t11 -234
q0 -8 -15 -17t-41 -9q-14 0 -24 4t-10 8q-16 126 -105 239t-251 113h-120q-40 0 -78 -20t-38 -98v-414h68q100 0 161 60t71 158q0 6 17 11t27 5q14 0 29 -5t15 -11q0 -74 -5 -138t-5 -132q0 -70 5 -131t5 -133q0 -6 -15 -11t-29 -5q-10 0 -26 5t-18 11q-12 104 -67 161
t-165 57h-68v-426q0 -72 38 -95t78 -23h104q152 0 270 110t148 270q0 4 9 6t21 2q22 0 43 -8t19 -20zM1387 -384q-36 -32 -77 -56t-129 -24q-108 0 -166 51t-58 125q0 106 95 190t223 156q6 4 19 -4t19 -16t12 -20t0 -14q-70 -46 -110 -111t-40 -131q0 -48 27 -75t71 -27
q12 0 40 7t46 15q6 2 14 -9t12 -19q4 -12 5 -23t-3 -15z" />
    <glyph glyph-name="Ecaron" unicode="&#x11a;" horiz-adv-x="1530" 
d="M1420 458q-14 -112 -27 -237t-19 -231q-126 4 -316 7t-306 3t-330 -4t-320 -6q-6 0 -11 16t-5 28q0 10 5 26t11 18q118 14 155 50t37 118v878q0 82 -37 118t-155 50q-6 2 -11 18t-5 26q0 12 5 28t11 16q106 -2 304 -6t326 -4q108 0 306 3t320 7q-4 -82 3 -212t11 -234
q0 -8 -15 -17t-41 -9q-14 0 -24 4t-10 8q-16 126 -105 239t-251 113h-120q-40 0 -78 -20t-38 -98v-414h68q100 0 161 60t71 158q0 6 17 11t27 5q14 0 29 -5t15 -11q0 -74 -5 -138t-5 -132q0 -70 5 -131t5 -133q0 -6 -15 -11t-29 -5q-10 0 -26 5t-18 11q-12 104 -67 161
t-165 57h-68v-426q0 -72 38 -95t78 -23h104q152 0 270 110t148 270q0 4 9 6t21 2q22 0 43 -8t19 -20zM1224 1870q0 -6 -2 -13t-6 -9l-356 -332q-8 -6 -17 -12t-25 -6q-14 0 -24 5t-20 13l-356 332q-4 4 -6 10t-2 12q0 8 6 18t16 20q8 8 17 11t17 3q6 0 14 -3t14 -5l324 -144
l324 144q6 4 13 6t15 2t17 -4t15 -10q10 -8 16 -19t6 -19z" />
    <glyph glyph-name="Gbreve" unicode="&#x11e;" horiz-adv-x="1656" 
d="M1642 604q0 -10 -5 -27t-11 -17q-96 -10 -132 -52t-36 -116v-202q0 -50 5 -72t17 -48q-120 -42 -276 -77t-324 -35q-194 0 -346 60t-252 162q-98 98 -148 228t-50 270q0 150 55 279t167 235q110 102 277 161t371 59q116 0 242 -34t218 -34q0 -82 4 -211t6 -217
q0 -6 -17 -11t-31 -5t-25 4t-15 12q-46 166 -165 282t-285 116q-180 0 -285 -178t-105 -458q0 -270 102 -447t282 -177q122 0 165 32t43 96v238q0 68 -36 96t-160 42q-6 0 -11 16t-5 30t5 29t11 15q98 0 172 -6t164 -6q92 0 196 6t202 6q6 0 11 -16t5 -28zM1267 1880
q0 -168 -95 -268t-251 -100t-252 101t-96 267q0 6 12 11t34 5q18 0 33 -5t15 -11q14 -66 75 -112t179 -46q112 0 176 47t78 111q0 6 15 11t31 5q20 0 33 -5t13 -11z" />
    <glyph glyph-name="Gcedilla" horiz-adv-x="1656" 
d="M1642 604q0 -10 -5 -27t-11 -17q-96 -10 -132 -52t-36 -116v-202q0 -50 5 -72t17 -48q-120 -42 -276 -77t-324 -35q-194 0 -346 60t-252 162q-98 98 -148 228t-50 270q0 150 55 279t167 235q110 102 277 161t371 59q116 0 242 -34t218 -34q0 -82 4 -211t6 -217
q0 -6 -17 -11t-31 -5t-25 4t-15 12q-46 166 -165 282t-285 116q-180 0 -285 -178t-105 -458q0 -270 102 -447t282 -177q122 0 165 32t43 96v238q0 68 -36 96t-160 42q-6 0 -11 16t-5 30t5 29t11 15q98 0 172 -6t164 -6q92 0 196 6t202 6q6 0 11 -16t5 -28zM1043 -284
q0 -84 -86 -132t-170 -48q-74 0 -109 25t-35 55q0 24 14 43t46 19q38 0 66 -30t60 -30q24 0 35 14t11 50t-44 67t-80 49q-8 4 -14 12t-6 18q0 4 2 9t4 9l124 182h112l-56 -98q-4 -4 -5 -9t-1 -9q0 -8 4 -15t16 -15q48 -30 80 -63t32 -103z" />
    <glyph glyph-name="Imacron" unicode="&#x12a;" horiz-adv-x="984" 
d="M896 34q0 -14 -5 -29t-11 -15q-98 0 -197 5t-191 5t-192 -5t-198 -5q-6 0 -11 16t-5 28q0 10 5 26t11 18q118 14 155 50t37 118v878q0 82 -37 118t-155 50q-6 2 -11 18t-5 26q0 12 5 28t11 16q98 0 198 -5t192 -5t191 5t197 5q6 0 11 -15t5 -29q0 -10 -5 -27t-11 -17
q-114 -12 -152 -50t-38 -118v-878q0 -80 38 -118t152 -50q6 0 11 -17t5 -27zM935 1692q0 -24 -16 -57t-28 -33h-790q-20 0 -32 32t-12 58t12 59t32 33h790q12 0 28 -34t16 -58z" />
    <glyph glyph-name="Idotaccent" unicode="&#x130;" horiz-adv-x="984" 
d="M896 34q0 -14 -5 -29t-11 -15q-98 0 -197 5t-191 5t-192 -5t-198 -5q-6 0 -11 16t-5 28q0 10 5 26t11 18q118 14 155 50t37 118v878q0 82 -37 118t-155 50q-6 2 -11 18t-5 26q0 12 5 28t11 16q98 0 198 -5t192 -5t191 5t197 5q6 0 11 -15t5 -29q0 -10 -5 -27t-11 -17
q-114 -12 -152 -50t-38 -118v-878q0 -80 38 -118t152 -50q6 0 11 -17t5 -27zM683 1712q0 -74 -56 -130t-130 -56q-76 0 -131 56t-55 130q0 76 55 131t131 55q74 0 130 -55t56 -131z" />
    <glyph glyph-name="Iogonek" unicode="&#x12e;" horiz-adv-x="984" 
d="M896 34q0 -14 -5 -29t-11 -15q-98 0 -197 5t-191 5t-192 -5t-198 -5q-6 0 -11 16t-5 28q0 10 5 26t11 18q118 14 155 50t37 118v878q0 82 -37 118t-155 50q-6 2 -11 18t-5 26q0 12 5 28t11 16q98 0 198 -5t192 -5t191 5t197 5q6 0 11 -15t5 -29q0 -10 -5 -27t-11 -17
q-114 -12 -152 -50t-38 -118v-878q0 -80 38 -118t152 -50q6 0 11 -17t5 -27zM784 -384q-36 -32 -77 -56t-129 -24q-108 0 -166 51t-58 125q0 106 95 190t223 156q6 4 19 -4t19 -16t12 -20t0 -14q-70 -46 -110 -111t-40 -131q0 -48 27 -75t71 -27q12 0 40 7t46 15q6 2 14 -9
t12 -19q4 -12 5 -23t-3 -15z" />
    <glyph glyph-name="dotlessIturk" horiz-adv-x="984" 
d="M896 34q0 -14 -5 -29t-11 -15q-98 0 -197 5t-191 5t-192 -5t-198 -5q-6 0 -11 16t-5 28q0 10 5 26t11 18q118 14 155 50t37 118v878q0 82 -37 118t-155 50q-6 2 -11 18t-5 26q0 12 5 28t11 16q98 0 198 -5t192 -5t191 5t197 5q6 0 11 -15t5 -29q0 -10 -5 -27t-11 -17
q-114 -12 -152 -50t-38 -118v-878q0 -80 38 -118t152 -50q6 0 11 -17t5 -27z" />
    <glyph glyph-name="Kcedilla" horiz-adv-x="1774" 
d="M1776 34q0 -14 -5 -29t-11 -15q-98 0 -165 5t-159 5t-204 -5t-210 -5q-6 0 -11 16t-5 28q0 10 4 26t10 18q50 6 74 21t24 43q0 12 -7 29t-25 43l-258 356q-22 32 -50 46t-86 14v-384q0 -80 30 -118t146 -50q6 0 11 -17t5 -27q0 -12 -5 -28t-11 -16q-98 0 -190 5t-184 5
t-191 -5t-197 -5q-6 0 -11 15t-5 29q0 10 5 26t11 18q116 14 153 50t37 118v878q0 82 -25 116t-181 52q-6 2 -11 18t-5 26q0 14 5 29t11 15q98 0 205 -5t199 -5t200 5t206 5q6 0 11 -16t5 -28q0 -10 -5 -27t-11 -17q-138 -14 -173 -49t-35 -119v-384q38 0 63 10t57 42
l382 364q18 18 28 33t10 35q0 26 -28 43t-98 25q-6 2 -11 18t-5 26q0 12 5 28t11 16q72 0 172 -5t178 -5q64 0 121 5t99 5q6 0 11 -15t5 -29q0 -12 -6 -28t-12 -16q-112 -12 -199 -59t-149 -107l-242 -240l470 -678q44 -64 94 -94t112 -36q6 0 11 -17t5 -27zM649 -284
q0 -84 -86 -132t-170 -48q-74 0 -109 25t-35 55q0 24 14 43t46 19q38 0 66 -30t60 -30q24 0 35 14t11 50t-44 67t-80 49q-8 4 -14 12t-6 18q0 4 2 9t4 9l124 182h112l-56 -98q-4 -4 -5 -9t-1 -9q0 -8 4 -15t16 -15q48 -30 80 -63t32 -103z" />
    <glyph glyph-name="Lacute" unicode="&#x139;" horiz-adv-x="1452" 
d="M1400 506q-14 -112 -27 -274t-17 -242q-126 4 -314 7t-306 3q-128 0 -330 -4t-302 -6q-6 0 -11 15t-5 29q0 10 5 26t11 18q116 14 153 50t37 118v878q0 82 -37 118t-153 50q-6 2 -11 18t-5 26q0 14 5 29t11 15q96 0 197 -5t191 -5q92 0 192 5t198 5q6 0 11 -16t5 -28
q0 -10 -5 -27t-11 -17q-116 -12 -154 -50t-38 -118v-908q0 -72 39 -95t79 -23h114q140 0 249 132t139 296q0 4 7 6t21 2q22 0 43 -8t19 -20zM918 1770q0 -24 -10 -47t-34 -35l-396 -190q-2 0 -5 -1t-7 -1q-6 0 -20 7t-22 17q-4 6 -9 17t-5 21q0 4 2 10t4 10l284 338
q8 12 26 19t34 7q32 0 68 -20t56 -46q18 -24 26 -53t8 -53z" />
    <glyph glyph-name="Lcedilla" horiz-adv-x="1452" 
d="M1400 506q-14 -112 -27 -274t-17 -242q-126 4 -314 7t-306 3q-128 0 -330 -4t-302 -6q-6 0 -11 15t-5 29q0 10 5 26t11 18q116 14 153 50t37 118v878q0 82 -37 118t-153 50q-6 2 -11 18t-5 26q0 14 5 29t11 15q96 0 197 -5t191 -5q92 0 192 5t198 5q6 0 11 -16t5 -28
q0 -10 -5 -27t-11 -17q-116 -12 -154 -50t-38 -118v-908q0 -72 39 -95t79 -23h114q140 0 249 132t139 296q0 4 7 6t21 2q22 0 43 -8t19 -20zM999 -284q0 -84 -86 -132t-170 -48q-74 0 -109 25t-35 55q0 24 14 43t46 19q38 0 66 -30t60 -30q24 0 35 14t11 50t-44 67t-80 49
q-8 4 -14 12t-6 18q0 4 2 9t4 9l124 182h112l-56 -98q-4 -4 -5 -9t-1 -9q0 -8 4 -15t16 -15q48 -30 80 -63t32 -103z" />
    <glyph glyph-name="Lcaron" unicode="&#x13d;" horiz-adv-x="1452" 
d="M1429 1160q0 -152 -82 -269t-220 -195q-6 -2 -19 7t-21 19t-14 25t0 19q68 46 117 94t49 148q0 24 -3 34t-11 10q-6 0 -13 -3t-17 -3q-58 0 -102 41t-44 129q0 74 51 135t131 61q90 0 144 -72t54 -180zM1400 506q-14 -112 -27 -274t-17 -242q-126 4 -314 7t-306 3
q-128 0 -330 -4t-302 -6q-6 0 -11 15t-5 29q0 10 5 26t11 18q116 14 153 50t37 118v878q0 82 -37 118t-153 50q-6 2 -11 18t-5 26q0 14 5 29t11 15q96 0 197 -5t191 -5q92 0 192 5t198 5q6 0 11 -16t5 -28q0 -10 -5 -27t-11 -17q-116 -12 -154 -50t-38 -118v-908
q0 -72 39 -95t79 -23h114q140 0 249 132t139 296q0 4 7 6t21 2q22 0 43 -8t19 -20z" />
    <glyph glyph-name="Ldot" unicode="&#x13f;" horiz-adv-x="1452" 
d="M1400 506q-14 -112 -27 -274t-17 -242q-126 4 -314 7t-306 3q-128 0 -330 -4t-302 -6q-6 0 -11 15t-5 29q0 10 5 26t11 18q116 14 153 50t37 118v878q0 82 -37 118t-153 50q-6 2 -11 18t-5 26q0 14 5 29t11 15q96 0 197 -5t191 -5q92 0 192 5t198 5q6 0 11 -16t5 -28
q0 -10 -5 -27t-11 -17q-116 -12 -154 -50t-38 -118v-908q0 -72 39 -95t79 -23h114q140 0 249 132t139 296q0 4 7 6t21 2q22 0 43 -8t19 -20zM1290 835q0 -74 -56 -130t-130 -56q-76 0 -131 56t-55 130q0 76 55 131t131 55q74 0 130 -55t56 -131z" />
    <glyph glyph-name="Lslash" unicode="&#x141;" horiz-adv-x="1452" 
d="M690 718v-502q0 -72 39 -95t79 -23h114q140 0 249 132t139 296q0 4 7 6t21 2q22 0 43 -8t19 -20q-14 -112 -27 -274t-17 -242q-126 4 -314 7t-306 3q-128 0 -330 -4t-302 -6q-6 0 -11 15t-5 29q0 10 5 26t11 18q116 14 153 50t37 118v244l-186 -108l-6 -2q-12 0 -28 15
t-26 31q-6 12 -11 31t-5 29q0 6 1 9t3 5l258 148v76v162v159v79q0 82 -37 118t-153 50q-6 2 -11 18t-5 26q0 14 5 29t11 15q96 0 197 -5t191 -5q92 0 192 5t198 5q6 0 11 -16t5 -28q0 -10 -5 -27t-11 -17q-116 -12 -154 -50t-38 -118v-246l274 158h6q10 0 24 -15t22 -33
q8 -14 16 -30t8 -28q0 -6 -2 -10t-4 -4z" />
    <glyph glyph-name="Nacute" unicode="&#x143;" horiz-adv-x="1766" 
d="M1766 1336q0 -10 -5 -27t-11 -17q-112 -12 -157 -49t-47 -119l-22 -1142q0 -6 -13 -13t-43 -7q-22 0 -38 3t-24 13l-972 982l-12 -714q-4 -78 42 -117t162 -51q6 0 11 -15t5 -29q0 -12 -5 -28t-11 -16q-76 0 -140 5t-134 5q-72 0 -133 -5t-129 -5q-6 0 -11 16t-5 28
q0 14 6 28t12 16q114 12 158 50t44 118l32 814q2 108 -44 163t-174 69q-6 2 -10 18t-4 26q0 14 5 29t11 15q48 0 114 -5t108 -5q54 0 102 5t124 5l868 -904v648q0 82 -48 118t-164 50q-6 2 -11 16t-5 28q0 12 5 28t11 16q78 0 133 -6t125 -6q72 0 142 6t136 6q6 0 11 -15
t5 -29zM1296 1770q0 -24 -10 -47t-34 -35l-396 -190q-2 0 -5 -1t-7 -1q-6 0 -20 7t-22 17q-4 6 -9 17t-5 21q0 4 2 10t4 10l284 338q8 12 26 19t34 7q32 0 68 -20t56 -46q18 -24 26 -53t8 -53z" />
    <glyph glyph-name="Ncedilla" horiz-adv-x="1766" 
d="M1766 1336q0 -10 -5 -27t-11 -17q-112 -12 -157 -49t-47 -119l-22 -1142q0 -6 -13 -13t-43 -7q-22 0 -38 3t-24 13l-972 982l-12 -714q-4 -78 42 -117t162 -51q6 0 11 -15t5 -29q0 -12 -5 -28t-11 -16q-76 0 -140 5t-134 5q-72 0 -133 -5t-129 -5q-6 0 -11 16t-5 28
q0 14 6 28t12 16q114 12 158 50t44 118l32 814q2 108 -44 163t-174 69q-6 2 -10 18t-4 26q0 14 5 29t11 15q48 0 114 -5t108 -5q54 0 102 5t124 5l868 -904v648q0 82 -48 118t-164 50q-6 2 -11 16t-5 28q0 12 5 28t11 16q78 0 133 -6t125 -6q72 0 142 6t136 6q6 0 11 -15
t5 -29zM483 -284q0 -84 -86 -132t-170 -48q-74 0 -109 25t-35 55q0 24 14 43t46 19q38 0 66 -30t60 -30q24 0 35 14t11 50t-44 67t-80 49q-8 4 -14 12t-6 18q0 4 2 9t4 9l124 182h112l-56 -98q-4 -4 -5 -9t-1 -9q0 -8 4 -15t16 -15q48 -30 80 -63t32 -103z" />
    <glyph glyph-name="Ncaron" unicode="&#x147;" horiz-adv-x="1766" 
d="M1766 1336q0 -10 -5 -27t-11 -17q-112 -12 -157 -49t-47 -119l-22 -1142q0 -6 -13 -13t-43 -7q-22 0 -38 3t-24 13l-972 982l-12 -714q-4 -78 42 -117t162 -51q6 0 11 -15t5 -29q0 -12 -5 -28t-11 -16q-76 0 -140 5t-134 5q-72 0 -133 -5t-129 -5q-6 0 -11 16t-5 28
q0 14 6 28t12 16q114 12 158 50t44 118l32 814q2 108 -44 163t-174 69q-6 2 -10 18t-4 26q0 14 5 29t11 15q48 0 114 -5t108 -5q54 0 102 5t124 5l868 -904v648q0 82 -48 118t-164 50q-6 2 -11 16t-5 28q0 12 5 28t11 16q78 0 133 -6t125 -6q72 0 142 6t136 6q6 0 11 -15
t5 -29zM1323 1870q0 -6 -2 -13t-6 -9l-356 -332q-8 -6 -17 -12t-25 -6q-14 0 -24 5t-20 13l-356 332q-4 4 -6 10t-2 12q0 8 6 18t16 20q8 8 17 11t17 3q6 0 14 -3t14 -5l324 -144l324 144q6 4 13 6t15 2t17 -4t15 -10q10 -8 16 -19t6 -19z" />
    <glyph glyph-name="Omacron" unicode="&#x14c;" horiz-adv-x="1740" 
d="M1654 678q0 -300 -205 -510t-579 -210t-580 211t-206 509t206 516t580 218q366 0 575 -215t209 -519zM1242 678q0 276 -80 457t-292 181q-214 0 -293 -183t-79 -455q0 -278 79 -451t293 -173q212 0 292 174t80 450zM1312 1692q0 -24 -16 -57t-28 -33h-790q-20 0 -32 32
t-12 58t12 59t32 33h790q12 0 28 -34t16 -58z" />
    <glyph glyph-name="Ohungarumlaut" unicode="&#x150;" horiz-adv-x="1740" 
d="M1654 678q0 -300 -205 -510t-579 -210t-580 211t-206 509t206 516t580 218q366 0 575 -215t209 -519zM1242 678q0 276 -80 457t-292 181q-214 0 -293 -183t-79 -455q0 -278 79 -451t293 -173q212 0 292 174t80 450zM1464 1770q0 -24 -10 -47t-36 -35l-388 -190l-3 -1
t-7 -1q-6 0 -20 7t-22 17q-4 6 -9 17t-5 21q0 4 2 10t4 10l274 338q10 12 26 19t34 7q32 0 68 -20t56 -46q18 -24 27 -50t9 -56zM966 1770q0 -24 -11 -48t-33 -34l-398 -190l-3 -1t-7 -1q-6 0 -20 7t-22 17q-4 6 -9 17t-5 21q0 4 2 10t4 10l282 338q10 12 26 19t34 7
q34 0 70 -20t56 -46q18 -24 26 -53t8 -53z" />
    <glyph glyph-name="Racute" unicode="&#x154;" horiz-adv-x="1618" 
d="M1163 1770q0 -24 -10 -47t-34 -35l-396 -190q-2 0 -5 -1t-7 -1q-6 0 -20 7t-22 17q-4 6 -9 17t-5 21q0 4 2 10t4 10l284 338q8 12 26 19t34 7q32 0 68 -20t56 -46q18 -24 26 -53t8 -53zM1668 34q-2 -12 -9 -28t-13 -16q-56 0 -148 5t-126 5q-48 0 -126 -5t-126 -5
l-252 512q-30 60 -72 83t-114 23v-362q0 -80 30 -118t146 -50q6 0 11 -17t5 -27q0 -12 -5 -28t-11 -16q-98 0 -190 5t-184 5t-191 -5t-197 -5q-6 0 -11 15t-5 29q0 10 5 26t11 18q116 14 153 50t37 118v878q0 82 -37 118t-153 50q-6 2 -11 18t-5 26q0 14 5 29t11 15
q98 0 201 -5t195 -5t164 5t170 5q324 0 468 -107t144 -251q0 -136 -65 -219t-211 -127l274 -458q42 -70 86 -100t136 -40q6 0 9 -17t1 -27zM1026 986q0 154 -56 225t-172 71q-72 0 -94 -28t-22 -98v-452q12 -2 35 -4t43 -2q142 0 204 64t62 224z" />
    <glyph glyph-name="Rcedilla" horiz-adv-x="1618" 
d="M1668 34q-2 -12 -9 -28t-13 -16q-56 0 -148 5t-126 5q-48 0 -126 -5t-126 -5l-252 512q-30 60 -72 83t-114 23v-362q0 -80 30 -118t146 -50q6 0 11 -17t5 -27q0 -12 -5 -28t-11 -16q-98 0 -190 5t-184 5t-191 -5t-197 -5q-6 0 -11 15t-5 29q0 10 5 26t11 18
q116 14 153 50t37 118v878q0 82 -37 118t-153 50q-6 2 -11 18t-5 26q0 14 5 29t11 15q98 0 201 -5t195 -5t164 5t170 5q324 0 468 -107t144 -251q0 -136 -65 -219t-211 -127l274 -458q42 -70 86 -100t136 -40q6 0 9 -17t1 -27zM1026 986q0 154 -56 225t-172 71
q-72 0 -94 -28t-22 -98v-452q12 -2 35 -4t43 -2q142 0 204 64t62 224zM628 -284q0 -84 -86 -132t-170 -48q-74 0 -109 25t-35 55q0 24 14 43t46 19q38 0 66 -30t60 -30q24 0 35 14t11 50t-44 67t-80 49q-8 4 -14 12t-6 18q0 4 2 9t4 9l124 182h112l-56 -98q-4 -4 -5 -9
t-1 -9q0 -8 4 -15t16 -15q48 -30 80 -63t32 -103z" />
    <glyph glyph-name="Rcaron" unicode="&#x158;" horiz-adv-x="1618" 
d="M1668 34q-2 -12 -9 -28t-13 -16q-56 0 -148 5t-126 5q-48 0 -126 -5t-126 -5l-252 512q-30 60 -72 83t-114 23v-362q0 -80 30 -118t146 -50q6 0 11 -17t5 -27q0 -12 -5 -28t-11 -16q-98 0 -190 5t-184 5t-191 -5t-197 -5q-6 0 -11 15t-5 29q0 10 5 26t11 18
q116 14 153 50t37 118v878q0 82 -37 118t-153 50q-6 2 -11 18t-5 26q0 14 5 29t11 15q98 0 201 -5t195 -5t164 5t170 5q324 0 468 -107t144 -251q0 -136 -65 -219t-211 -127l274 -458q42 -70 86 -100t136 -40q6 0 9 -17t1 -27zM1026 986q0 154 -56 225t-172 71
q-72 0 -94 -28t-22 -98v-452q12 -2 35 -4t43 -2q142 0 204 64t62 224zM1196 1870q0 -6 -2 -13t-6 -9l-356 -332q-8 -6 -17 -12t-25 -6q-14 0 -24 5t-20 13l-356 332q-4 4 -6 10t-2 12q0 8 6 18t16 20q8 8 17 11t17 3q6 0 14 -3t14 -5l324 -144l324 144q6 4 13 6t15 2t17 -4
t15 -10q10 -8 16 -19t6 -19z" />
    <glyph glyph-name="Sacute" unicode="&#x15a;" horiz-adv-x="1346" 
d="M1144 1770q0 -24 -10 -47t-34 -35l-396 -190q-2 0 -5 -1t-7 -1q-6 0 -20 7t-22 17q-4 6 -9 17t-5 21q0 4 2 10t4 10l284 338q8 12 26 19t34 7q32 0 68 -20t56 -46q18 -24 26 -53t8 -53zM892 824q118 -70 222 -167t104 -245q0 -212 -153 -333t-385 -121q-142 0 -243 39
t-231 63q-2 72 -2 192t-6 212q0 6 17 11t29 5q14 0 27 -4t15 -12q38 -178 159 -294t235 -116q116 0 167 51t51 139q0 108 -104 182t-224 144q-122 70 -226 166t-104 236q0 186 141 313t387 127q110 0 190 -27t172 -45q2 -72 7 -180t13 -178q0 -6 -17 -11t-27 -5q-14 0 -28 4
t-18 12q-38 156 -112 245t-182 89q-94 0 -148 -50t-54 -126q0 -100 101 -171t227 -145z" />
    <glyph glyph-name="Scedilla" unicode="&#x15e;" horiz-adv-x="1346" 
d="M892 824q118 -70 222 -167t104 -245q0 -212 -153 -333t-385 -121q-142 0 -243 39t-231 63q-2 72 -2 192t-6 212q0 6 17 11t29 5q14 0 27 -4t15 -12q38 -178 159 -294t235 -116q116 0 167 51t51 139q0 108 -104 182t-224 144q-122 70 -226 166t-104 236q0 186 141 313
t387 127q110 0 190 -27t172 -45q2 -72 7 -180t13 -178q0 -6 -17 -11t-27 -5q-14 0 -28 4t-18 12q-38 156 -112 245t-182 89q-94 0 -148 -50t-54 -126q0 -100 101 -171t227 -145zM849 -284q0 -84 -86 -132t-170 -48q-74 0 -109 25t-35 55q0 24 14 43t46 19q38 0 66 -30
t60 -30q24 0 35 14t11 50t-44 67t-80 49q-8 4 -14 12t-6 18q0 4 2 9t4 9l124 182h112l-56 -98q-4 -4 -5 -9t-1 -9q0 -8 4 -15t16 -15q48 -30 80 -63t32 -103z" />
    <glyph glyph-name="Scommaaccent" unicode="&#x218;" horiz-adv-x="1346" 
d="M892 824q118 -70 222 -167t104 -245q0 -212 -153 -333t-385 -121q-142 0 -243 39t-231 63q-2 72 -2 192t-6 212q0 6 17 11t29 5q14 0 27 -4t15 -12q38 -178 159 -294t235 -116q116 0 167 51t51 139q0 108 -104 182t-224 144q-122 70 -226 166t-104 236q0 186 141 313
t387 127q110 0 190 -27t172 -45q2 -72 7 -180t13 -178q0 -6 -17 -11t-27 -5q-14 0 -28 4t-18 12q-38 156 -112 245t-182 89q-94 0 -148 -50t-54 -126q0 -100 101 -171t227 -145zM868 -334q0 -112 -60 -200t-176 -154q-6 -2 -17 5t-17 15t-11 21t-1 17q56 36 89 71t33 97
q0 20 -2 29t-8 9t-12 -2t-14 -2q-48 0 -85 34t-37 106q0 64 40 114t112 50q76 0 121 -59t45 -151z" />
    <glyph glyph-name="Scaron" unicode="&#x160;" horiz-adv-x="1346" 
d="M892 824q118 -70 222 -167t104 -245q0 -212 -153 -333t-385 -121q-142 0 -243 39t-231 63q-2 72 -2 192t-6 212q0 6 17 11t29 5q14 0 27 -4t15 -12q38 -178 159 -294t235 -116q116 0 167 51t51 139q0 108 -104 182t-224 144q-122 70 -226 166t-104 236q0 186 141 313
t387 127q110 0 190 -27t172 -45q2 -72 7 -180t13 -178q0 -6 -17 -11t-27 -5q-14 0 -28 4t-18 12q-38 156 -112 245t-182 89q-94 0 -148 -50t-54 -126q0 -100 101 -171t227 -145zM1166 1870q0 -6 -2 -13t-6 -9l-356 -332q-8 -6 -17 -12t-25 -6q-14 0 -24 5t-20 13l-356 332
q-4 4 -6 10t-2 12q0 8 6 18t16 20q8 8 17 11t17 3q6 0 14 -3t14 -5l324 -144l324 144q6 4 13 6t15 2t17 -4t15 -10q10 -8 16 -19t6 -19z" />
    <glyph glyph-name="Tcommaaccent" unicode="&#x162;" horiz-adv-x="1550" 
d="M1520 912q0 -10 -15 -18t-35 -8q-8 0 -22 3t-16 7q-28 110 -133 243t-197 133h-30q-46 0 -66 -19t-20 -59v-948q0 -80 38 -118t154 -50q6 0 11 -17t5 -27q0 -12 -5 -28t-11 -16q-96 0 -197 5t-191 5q-92 0 -192 -5t-198 -5q-6 0 -11 16t-5 28q0 10 5 26t11 18
q118 14 155 50t37 118v948q0 44 -18 61t-68 17h-16q-82 0 -202 -123t-170 -253q-2 -6 -15 -8t-21 -2q-18 0 -35 8t-17 18q20 100 43 245t33 241q70 -12 218 -20t466 -8q272 0 453 8t239 20q6 -96 16 -228t22 -258zM926 -284q0 -84 -86 -132t-170 -48q-74 0 -109 25t-35 55
q0 24 14 43t46 19q38 0 66 -30t60 -30q24 0 35 14t11 50t-44 67t-80 49q-8 4 -14 12t-6 18q0 4 2 9t4 9l124 182h112l-56 -98q-4 -4 -5 -9t-1 -9q0 -8 4 -15t16 -15q48 -30 80 -63t32 -103z" />
    <glyph glyph-name="uni021A" unicode="&#x21a;" horiz-adv-x="1550" 
d="M1520 912q0 -10 -15 -18t-35 -8q-8 0 -22 3t-16 7q-28 110 -133 243t-197 133h-30q-46 0 -66 -19t-20 -59v-948q0 -80 38 -118t154 -50q6 0 11 -17t5 -27q0 -12 -5 -28t-11 -16q-96 0 -197 5t-191 5q-92 0 -192 -5t-198 -5q-6 0 -11 16t-5 28q0 10 5 26t11 18
q118 14 155 50t37 118v948q0 44 -18 61t-68 17h-16q-82 0 -202 -123t-170 -253q-2 -6 -15 -8t-21 -2q-18 0 -35 8t-17 18q20 100 43 245t33 241q70 -12 218 -20t466 -8q272 0 453 8t239 20q6 -96 16 -228t22 -258zM966 -334q0 -112 -60 -200t-176 -154q-6 -2 -17 5t-17 15
t-11 21t-1 17q56 36 89 71t33 97q0 20 -2 29t-8 9t-12 -2t-14 -2q-48 0 -85 34t-37 106q0 64 40 114t112 50q76 0 121 -59t45 -151z" />
    <glyph glyph-name="Tcaron" unicode="&#x164;" horiz-adv-x="1550" 
d="M1520 912q0 -10 -15 -18t-35 -8q-8 0 -22 3t-16 7q-28 110 -133 243t-197 133h-30q-46 0 -66 -19t-20 -59v-948q0 -80 38 -118t154 -50q6 0 11 -17t5 -27q0 -12 -5 -28t-11 -16q-96 0 -197 5t-191 5q-92 0 -192 -5t-198 -5q-6 0 -11 16t-5 28q0 10 5 26t11 18
q118 14 155 50t37 118v948q0 44 -18 61t-68 17h-16q-82 0 -202 -123t-170 -253q-2 -6 -15 -8t-21 -2q-18 0 -35 8t-17 18q20 100 43 245t33 241q70 -12 218 -20t466 -8q272 0 453 8t239 20q6 -96 16 -228t22 -258zM1187 1870q0 -6 -2 -13t-6 -9l-356 -332q-8 -6 -17 -12
t-25 -6q-14 0 -24 5t-20 13l-356 332q-4 4 -6 10t-2 12q0 8 6 18t16 20q8 8 17 11t17 3q6 0 14 -3t14 -5l324 -144l324 144q6 4 13 6t15 2t17 -4t15 -10q10 -8 16 -19t6 -19z" />
    <glyph glyph-name="Uring" unicode="&#x16e;" horiz-adv-x="1664" 
d="M1662 1336q0 -10 -5 -27t-11 -17q-116 -12 -156 -48t-40 -120v-630q0 -218 -134 -377t-408 -159q-332 0 -505 147t-173 453v566q0 82 -37 118t-155 50q-6 2 -11 18t-5 26q0 12 5 28t11 16q98 0 198 -5t192 -5q90 0 191 5t197 5q6 0 11 -16t5 -28q0 -10 -5 -27t-11 -17
q-116 -12 -154 -50t-38 -118v-634q0 -204 76 -300t272 -96q178 0 263 112t85 308v610q0 82 -39 118t-155 50q-6 2 -11 18t-5 26q0 14 5 29t11 15q66 0 128 -5t132 -5t129 5t131 5q6 0 11 -16t5 -28zM1215 1720q0 -90 -67 -159t-173 -69q-104 0 -172 69t-68 159q0 88 68 157
t172 69q106 0 173 -69t67 -157zM1101 1720q0 60 -35 99t-91 39q-54 0 -90 -40t-36 -98q0 -62 35 -101t91 -39q58 0 92 38t34 102z" />
    <glyph glyph-name="Umacron" unicode="&#x16a;" horiz-adv-x="1664" 
d="M1662 1336q0 -10 -5 -27t-11 -17q-116 -12 -156 -48t-40 -120v-630q0 -218 -134 -377t-408 -159q-332 0 -505 147t-173 453v566q0 82 -37 118t-155 50q-6 2 -11 18t-5 26q0 12 5 28t11 16q98 0 198 -5t192 -5q90 0 191 5t197 5q6 0 11 -16t5 -28q0 -10 -5 -27t-11 -17
q-116 -12 -154 -50t-38 -118v-634q0 -204 76 -300t272 -96q178 0 263 112t85 308v610q0 82 -39 118t-155 50q-6 2 -11 18t-5 26q0 14 5 29t11 15q66 0 128 -5t132 -5t129 5t131 5q6 0 11 -16t5 -28zM1394 1692q0 -24 -16 -57t-28 -33h-790q-20 0 -32 32t-12 58t12 59t32 33
h790q12 0 28 -34t16 -58z" />
    <glyph glyph-name="Uogonek" unicode="&#x172;" horiz-adv-x="1664" 
d="M1662 1336q0 -10 -5 -27t-11 -17q-116 -12 -156 -48t-40 -120v-630q0 -218 -134 -377t-408 -159q-332 0 -505 147t-173 453v566q0 82 -37 118t-155 50q-6 2 -11 18t-5 26q0 12 5 28t11 16q98 0 198 -5t192 -5q90 0 191 5t197 5q6 0 11 -16t5 -28q0 -10 -5 -27t-11 -17
q-116 -12 -154 -50t-38 -118v-634q0 -204 76 -300t272 -96q178 0 263 112t85 308v610q0 82 -39 118t-155 50q-6 2 -11 18t-5 26q0 14 5 29t11 15q66 0 128 -5t132 -5t129 5t131 5q6 0 11 -16t5 -28zM1214 -384q-36 -32 -77 -56t-129 -24q-108 0 -166 51t-58 125
q0 106 95 190t223 156q6 4 19 -4t19 -16t12 -20t0 -14q-70 -46 -110 -111t-40 -131q0 -48 27 -75t71 -27q12 0 40 7t46 15q6 2 14 -9t12 -19q4 -12 5 -23t-3 -15z" />
    <glyph glyph-name="Uhungarumlaut" unicode="&#x170;" horiz-adv-x="1664" 
d="M1662 1336q0 -10 -5 -27t-11 -17q-116 -12 -156 -48t-40 -120v-630q0 -218 -134 -377t-408 -159q-332 0 -505 147t-173 453v566q0 82 -37 118t-155 50q-6 2 -11 18t-5 26q0 12 5 28t11 16q98 0 198 -5t192 -5q90 0 191 5t197 5q6 0 11 -16t5 -28q0 -10 -5 -27t-11 -17
q-116 -12 -154 -50t-38 -118v-634q0 -204 76 -300t272 -96q178 0 263 112t85 308v610q0 82 -39 118t-155 50q-6 2 -11 18t-5 26q0 14 5 29t11 15q66 0 128 -5t132 -5t129 5t131 5q6 0 11 -16t5 -28zM1553 1770q0 -24 -10 -47t-36 -35l-388 -190l-3 -1t-7 -1q-6 0 -20 7
t-22 17q-4 6 -9 17t-5 21q0 4 2 10t4 10l274 338q10 12 26 19t34 7q32 0 68 -20t56 -46q18 -24 27 -50t9 -56zM1055 1770q0 -24 -11 -48t-33 -34l-398 -190l-3 -1t-7 -1q-6 0 -20 7t-22 17q-4 6 -9 17t-5 21q0 4 2 10t4 10l282 338q10 12 26 19t34 7q34 0 70 -20t56 -46
q18 -24 26 -53t8 -53z" />
    <glyph glyph-name="Yacute" unicode="&#xdd;" horiz-adv-x="1558" 
d="M1626 1336q0 -10 -8 -27t-14 -17q-82 -8 -141 -46t-119 -122l-352 -510v-368q0 -80 30 -118t146 -50q6 0 11 -17t5 -27q0 -12 -5 -28t-11 -16q-98 0 -190 5t-184 5t-191 -5t-197 -5q-6 0 -11 15t-5 29q0 10 5 26t11 18q116 14 153 50t37 118v366l-324 512
q-54 84 -109 120t-165 48q-6 2 -11 18t-5 26q0 12 5 28t11 16q70 0 171 -5t179 -5q80 0 207 5t225 5q6 0 11 -15t5 -29q0 -10 -5 -27t-11 -17q-72 -8 -102 -27t-30 -45q0 -20 12 -44t30 -52l254 -394l264 394q16 24 26 45t10 41q0 30 -28 51t-112 31q-6 2 -8 18t-2 26
q0 14 5 29t11 15q86 0 142 -5t138 -5q62 0 114 5t106 5q6 0 11 -16t5 -28zM1347 1770q0 -24 -10 -47t-34 -35l-396 -190q-2 0 -5 -1t-7 -1q-6 0 -20 7t-22 17q-4 6 -9 17t-5 21q0 4 2 10t4 10l284 338q8 12 26 19t34 7q32 0 68 -20t56 -46q18 -24 26 -53t8 -53z" />
    <glyph glyph-name="Zacute" unicode="&#x179;" horiz-adv-x="1484" 
d="M1396 442q-10 -108 -21 -235t-15 -225q-60 12 -236 15t-426 3q-248 0 -396 -3t-204 -15q-14 -2 -22 9t-8 27q0 4 2 8t2 6l870 1240h-328q-152 0 -253 -108t-149 -252q-4 -6 -17 -9t-21 -3q-20 0 -36 9t-16 19q16 86 36 218t28 242q52 -10 201 -14t391 -4q230 0 396 3
t214 15q12 4 21 -10t9 -26q0 -4 -1 -8t-3 -6l-868 -1240h348q142 0 263 116t151 244q0 6 14 9t24 3q20 0 36 -9t14 -19zM1134 1770q0 -24 -10 -47t-34 -35l-396 -190q-2 0 -5 -1t-7 -1q-6 0 -20 7t-22 17q-4 6 -9 17t-5 21q0 4 2 10t4 10l284 338q8 12 26 19t34 7
q32 0 68 -20t56 -46q18 -24 26 -53t8 -53z" />
    <glyph glyph-name="Zdotaccent" unicode="&#x17b;" horiz-adv-x="1484" 
d="M1396 442q-10 -108 -21 -235t-15 -225q-60 12 -236 15t-426 3q-248 0 -396 -3t-204 -15q-14 -2 -22 9t-8 27q0 4 2 8t2 6l870 1240h-328q-152 0 -253 -108t-149 -252q-4 -6 -17 -9t-21 -3q-20 0 -36 9t-16 19q16 86 36 218t28 242q52 -10 201 -14t391 -4q230 0 396 3
t214 15q12 4 21 -10t9 -26q0 -4 -1 -8t-3 -6l-868 -1240h348q142 0 263 116t151 244q0 6 14 9t24 3q20 0 36 -9t14 -19zM982 1712q0 -74 -56 -130t-130 -56q-76 0 -131 56t-55 130q0 76 55 131t131 55q74 0 130 -55t56 -131z" />
    <glyph glyph-name="Zcaron" unicode="&#x17d;" horiz-adv-x="1484" 
d="M1396 442q-10 -108 -21 -235t-15 -225q-60 12 -236 15t-426 3q-248 0 -396 -3t-204 -15q-14 -2 -22 9t-8 27q0 4 2 8t2 6l870 1240h-328q-152 0 -253 -108t-149 -252q-4 -6 -17 -9t-21 -3q-20 0 -36 9t-16 19q16 86 36 218t28 242q52 -10 201 -14t391 -4q230 0 396 3
t214 15q12 4 21 -10t9 -26q0 -4 -1 -8t-3 -6l-868 -1240h348q142 0 263 116t151 244q0 6 14 9t24 3q20 0 36 -9t14 -19zM1183 1870q0 -6 -2 -13t-6 -9l-356 -332q-8 -6 -17 -12t-25 -6q-14 0 -24 5t-20 13l-356 332q-4 4 -6 10t-2 12q0 8 6 18t16 20q8 8 17 11t17 3
q6 0 14 -3t14 -5l324 -144l324 144q6 4 13 6t15 2t17 -4t15 -10q10 -8 16 -19t6 -19z" />
    <glyph glyph-name="Thorn" unicode="&#xde;" horiz-adv-x="1478" 
d="M1410 694q0 -192 -159 -298t-441 -106q-40 0 -73 4t-67 12v-60q0 -80 38 -118t154 -50q6 0 11 -17t5 -27q0 -12 -5 -28t-11 -16q-98 0 -198 5t-192 5t-191 -5t-197 -5q-6 0 -11 15t-5 29q0 10 5 26t11 18q116 14 153 50t37 118v878q0 82 -37 118t-153 50q-6 2 -11 18
t-5 26q0 14 5 29t11 15q98 0 197 -5t191 -5t192 5t198 5q6 0 11 -16t5 -28q0 -10 -5 -27t-11 -17q-116 -12 -154 -50t-38 -118v-16q36 2 73 3t71 1q324 0 460 -108t136 -310zM998 722q0 174 -54 233t-154 59q-64 0 -92 -30t-28 -96v-428q0 -46 41 -59t57 -13q120 0 175 79
t55 255z" />
    <glyph glyph-name="Grave" horiz-adv-x="900" 
d="M720 1560q0 -12 -5 -23t-9 -17q-8 -8 -22 -16t-20 -8h-8t-4 2l-394 188q-24 10 -36 33t-12 49q0 30 10 57t26 51q16 22 57 44t71 22q18 0 35 -6t27 -20l278 -338q2 -2 4 -8t2 -10z" />
    <glyph glyph-name="Acute" horiz-adv-x="900" 
d="M800 1770q0 -24 -10 -47t-34 -35l-396 -190q-2 0 -5 -1t-7 -1q-6 0 -20 7t-22 17q-4 6 -9 17t-5 21q0 4 2 10t4 10l284 338q8 12 26 19t34 7q32 0 68 -20t56 -46q18 -24 26 -53t8 -53z" />
    <glyph glyph-name="Dieresis" horiz-adv-x="900" 
d="M888 1702q0 -74 -56 -130t-130 -56q-76 0 -131 56t-55 130t55 130t131 56q74 0 130 -56t56 -130zM384 1702q0 -74 -56 -130t-130 -56q-76 0 -131 56t-55 130t55 130t131 56q74 0 130 -56t56 -130z" />
    <glyph glyph-name="Circumflex" horiz-adv-x="900" 
d="M856 1552q0 -10 -7 -22t-15 -18t-16 -10t-16 -4t-15 3t-13 7l-324 142l-324 -142q-6 -2 -14 -6t-14 -4q-8 0 -16 3t-18 11t-16 19t-6 21q0 4 3 10l5 10l356 332q6 8 19 14t25 6q16 0 26 -6t16 -14l356 -332q2 -2 5 -9t3 -11z" />
    <glyph glyph-name="Tilde" horiz-adv-x="900" 
d="M892 1934q12 -6 23 -23t7 -37q-28 -182 -93 -250t-171 -52l-396 56q-60 8 -107 -18t-87 -100q-10 -18 -46 -5t-28 61q32 164 111 247t209 63l358 -56q62 -8 105 17t71 93q4 8 17 9t27 -5z" />
    <glyph glyph-name="Macron" horiz-adv-x="900" 
d="M890 1692q0 -24 -16 -57t-28 -33h-790q-20 0 -32 32t-12 58t12 59t32 33h790q12 0 28 -34t16 -58z" />
    <glyph glyph-name="Breve" horiz-adv-x="900" 
d="M796 1880q0 -168 -95 -268t-251 -100t-252 101t-96 267q0 6 12 11t34 5q18 0 33 -5t15 -11q14 -66 75 -112t179 -46q112 0 176 47t78 111q0 6 15 11t31 5q20 0 33 -5t13 -11z" />
    <glyph glyph-name="Dotaccent" horiz-adv-x="900" 
d="M636 1712q0 -74 -56 -130t-130 -56q-76 0 -131 56t-55 130q0 76 55 131t131 55q74 0 130 -55t56 -131z" />
    <glyph glyph-name="Ring" horiz-adv-x="900" 
d="M690 1720q0 -90 -67 -159t-173 -69q-104 0 -172 69t-68 159q0 88 68 157t172 69q106 0 173 -69t67 -157zM576 1720q0 60 -35 99t-91 39q-54 0 -90 -40t-36 -98q0 -62 35 -101t91 -39q58 0 92 38t34 102z" />
    <glyph glyph-name="Hungarumlaut" horiz-adv-x="900" 
d="M1036 1770q0 -24 -10 -47t-36 -35l-388 -190l-3 -1t-7 -1q-6 0 -20 7t-22 17q-4 6 -9 17t-5 21q0 4 2 10t4 10l274 338q10 12 26 19t34 7q32 0 68 -20t56 -46q18 -24 27 -50t9 -56zM538 1770q0 -24 -11 -48t-33 -34l-398 -190l-3 -1t-7 -1q-6 0 -20 7t-22 17q-4 6 -9 17
t-5 21q0 4 2 10t4 10l282 338q10 12 26 19t34 7q34 0 70 -20t56 -46q18 -24 26 -53t8 -53z" />
    <glyph glyph-name="Caron" horiz-adv-x="900" 
d="M856 1870q0 -6 -2 -13t-6 -9l-356 -332q-8 -6 -17 -12t-25 -6q-14 0 -24 5t-20 13l-356 332q-4 4 -6 10t-2 12q0 8 6 18t16 20q8 8 17 11t17 3q6 0 14 -3t14 -5l324 -144l324 144q6 4 13 6t15 2t17 -4t15 -10q10 -8 16 -19t6 -19z" />
    <glyph glyph-name="hyphen.standard" unicode="-" horiz-adv-x="824" 
d="M686 676q0 -40 -7 -63t-19 -23h-520q-12 0 -19 23t-7 63q0 38 7 62t19 24h520q12 0 19 -24t7 -62z" />
    <glyph glyph-name="endash.standard" unicode="&#x2013;" horiz-adv-x="1158" 
d="M1150 676q0 -22 -6 -46t-18 -24h-998q-12 0 -19 24t-7 46q0 24 7 47t17 23h1000q10 0 17 -23t7 -47z" />
    <glyph glyph-name="emdash.standard" unicode="&#x2014;" horiz-adv-x="2150" 
d="M2152 676q0 -22 -6 -46t-18 -24h-1998q-12 0 -19 24t-7 46q0 24 7 47t17 23h2000q10 0 17 -23t7 -47z" />
    <glyph glyph-name="questiondown.standard" unicode="&#xbf;" horiz-adv-x="820" 
d="M130 424q0 172 70 237t154 95q34 14 76 25t72 33q30 20 45 45t5 81l-2 8q-2 6 15 14t31 12q14 2 31 -2t19 -10l38 -264q12 -92 -51 -131t-139 -59q-66 -20 -140 -54t-74 -88q0 -34 29 -66t113 -32q44 0 106 14t100 14q78 0 126 -48t48 -114q0 -78 -54 -127t-154 -49
q-154 0 -309 144t-155 322zM430 1248q0 66 49 115t115 49t115 -49t49 -115q0 -70 -47 -117t-117 -47q-66 0 -115 49t-49 115z" />
    <glyph glyph-name="exclamdown.standard" unicode="&#xa1;" horiz-adv-x="510" 
d="M60 148l154 780q0 14 17 20t31 6t32 -6t18 -20l152 -780q14 -64 -32 -126t-170 -62q-110 0 -162 61t-40 127zM98 1248q0 66 49 115t115 49t115 -49t49 -115q0 -70 -47 -117t-117 -47q-66 0 -115 49t-49 115z" />
    <glyph glyph-name="parenleft.standard" unicode="(" horiz-adv-x="782" 
d="M756 -124q4 -4 0 -22t-8 -24q-6 -10 -18 -22t-18 -8q-254 158 -427 363t-173 497q0 286 166 489t434 373q6 4 19 -9t17 -21t9 -26t-1 -22q-152 -136 -211 -327t-59 -457q0 -274 57 -458t213 -326z" />
    <glyph glyph-name="parenright.standard" unicode=")" horiz-adv-x="782" 
d="M22 1446q-6 6 0 23t8 23q6 14 19 23t17 7q254 -158 427 -362t173 -498q0 -292 -173 -498t-427 -364q-6 -2 -18 9t-18 21q-4 8 -8 25t0 23q156 144 213 327t57 457q0 268 -57 456t-213 328z" />
    <glyph glyph-name="bracketleft.standard" unicode="[" horiz-adv-x="986" 
d="M950 -116q2 -6 3 -21t-7 -27q-6 -10 -17 -23t-17 -9q-48 20 -123 32t-155 12q-114 0 -207 -23t-127 -23q-12 0 -24 11t-12 25q0 112 8 354t8 378q0 24 -51 34t-109 18q-6 2 -12 18t-6 22t6 22t12 18q60 8 110 18t50 34q0 130 -8 375t-8 357q0 14 12 26t24 12
q32 0 130 -24t204 -24q80 0 156 12t122 32q6 4 18 -10t16 -22q6 -12 7 -27t-3 -19q-40 -68 -105 -105t-161 -37q-18 0 -36 3t-32 7q-4 -138 -6 -304t-2 -344q0 -236 2 -362t6 -286q14 4 30 7t38 3q92 0 161 -38t105 -102z" />
    <glyph glyph-name="bracketright.standard" unicode="]" horiz-adv-x="986" 
d="M42 1440q-4 6 -3 20t7 28q6 12 17 23t17 9q56 -22 119 -33t159 -11q114 0 207 23t127 23q12 0 24 -11t12 -25q0 -112 -8 -354t-8 -378q0 -24 58 -36t102 -16q6 0 12 -17t6 -23t-6 -23t-12 -17q-50 -6 -105 -19t-55 -33q0 -130 8 -375t8 -357q0 -14 -12 -26t-24 -12
q-32 0 -130 24t-204 24q-100 0 -158 -10t-120 -34q-6 -2 -16 8t-18 24t-7 27t3 19q34 64 106 103t160 39q22 0 36 -3t32 -7q4 152 6 302t2 346t-2 358t-6 290q-16 -4 -31 -7t-37 -3q-88 0 -159 39t-107 101z" />
    <glyph glyph-name="braceleft.standard" unicode="{" horiz-adv-x="884" 
d="M800 -164q0 -12 -5 -28t-11 -16q-266 0 -382 100t-110 252l16 316q4 68 -33 106t-143 46q-6 0 -12 17t-6 23t6 23t12 17q100 8 141 47t35 105l-16 316q-8 156 105 255t387 99q6 0 11 -17t5 -27q0 -12 -5 -28t-11 -16q-96 -14 -124 -51t-26 -129l16 -372q4 -76 -54 -147
t-210 -75q146 -4 208 -77t56 -145l-16 -372q-4 -86 27 -126t123 -52q6 0 11 -17t5 -27z" />
    <glyph glyph-name="braceright.standard" unicode="}" horiz-adv-x="884" 
d="M106 1470q0 12 5 28t11 16q264 0 382 -101t110 -251l-16 -316q-6 -62 38 -104t138 -48q6 0 12 -17t6 -23t-6 -23t-12 -17q-100 -6 -140 -46t-36 -106l16 -316q6 -156 -106 -255t-386 -99q-6 0 -11 17t-5 27q0 12 5 28t11 16q92 14 123 53t27 127l-16 372q-6 76 53 146
t211 76q-142 6 -205 73t-59 149l16 372q2 92 -26 128t-124 50q-6 2 -11 18t-5 26z" />
    <glyph glyph-name="percent.standard" unicode="%" horiz-adv-x="2178" 
d="M2128 582q0 -110 -42 -224t-120 -200q-84 -92 -190 -146t-262 -54q-166 0 -261 93t-95 237q0 118 40 223t122 201q78 90 196 145t258 55q166 0 260 -94t94 -236zM1618 1382l-956 -1460q-6 -10 -23 -4t-31 16q-16 10 -28 23t-6 23l812 1242q-76 -38 -142 -55t-136 -17
q-22 0 -50 3t-46 7q2 -16 5 -37t3 -43q0 -110 -42 -224t-120 -200q-86 -94 -192 -147t-262 -53q-166 0 -260 93t-94 237q0 116 40 224t122 202q76 88 192 144t260 56q102 0 178 -37t120 -101q44 -18 84 -24t78 -6q98 0 208 53t196 143q6 8 26 1t30 -13q12 -8 26 -23t8 -23z
M1732 312q44 106 73 221t29 199q0 42 -15 63t-47 21q-54 0 -110 -70t-106 -186q-46 -108 -74 -226t-28 -196q0 -40 15 -62t47 -22q56 0 114 76t102 182zM622 810q44 106 73 221t29 199v6q-32 18 -48 33t-28 45q-104 -18 -204 -266t-100 -410q0 -42 15 -64t47 -22
q56 0 114 76t102 182z" />
    <glyph glyph-name="perthousand.standard" unicode="&#x2030;" horiz-adv-x="3204" 
d="M3154 582q0 -110 -42 -224t-120 -200q-84 -92 -190 -146t-262 -54q-168 0 -262 94t-94 236q0 118 38 222t124 202q76 88 192 144t260 56q168 0 262 -93t94 -237zM2128 582q0 -110 -42 -224t-120 -200q-84 -92 -190 -146t-262 -54q-166 0 -261 93t-95 237q0 118 40 223
t122 201q78 90 196 145t258 55q166 0 260 -94t94 -236zM1618 1382l-956 -1460q-6 -10 -23 -4t-31 16q-16 10 -28 23t-6 23l812 1242q-76 -38 -142 -55t-136 -17q-22 0 -50 3t-46 7q2 -16 5 -37t3 -43q0 -110 -42 -224t-120 -200q-86 -94 -192 -147t-262 -53q-166 0 -260 93
t-94 237q0 116 40 224t122 202q76 88 192 144t260 56q102 0 178 -37t120 -101q44 -18 84 -24t78 -6q98 0 208 53t196 143q6 8 26 1t30 -13q12 -8 26 -23t8 -23zM2756 312q44 106 73 221t29 199q0 40 -15 62t-45 22q-54 0 -110 -70t-106 -186q-46 -108 -74 -226t-28 -196
q0 -40 14 -62t46 -22q56 0 115 77t101 181zM1732 312q44 106 73 221t29 199q0 42 -15 63t-47 21q-54 0 -110 -70t-106 -186q-46 -108 -74 -226t-28 -196q0 -40 15 -62t47 -22q56 0 114 76t102 182zM622 810q44 106 73 221t29 199v6q-32 18 -48 33t-28 45q-104 -18 -204 -266
t-100 -410q0 -42 15 -64t47 -22q56 0 114 76t102 182z" />
    <glyph glyph-name="dollar.standard" unicode="$" horiz-adv-x="1346" 
d="M1078 696q64 -56 103 -122t39 -162q0 -198 -135 -319t-353 -133l-6 -76q0 -12 -18 -15t-30 -3q-10 0 -29 5t-19 15l4 74q-122 8 -223 45t-203 55q-2 72 -2 192t-6 212q0 6 16 11t30 5t27 -4t15 -12q34 -158 137 -272t215 -134l32 452q-72 44 -147 88t-139 98t-104 119
t-40 157q0 184 127 306t363 132l6 74q0 12 19 16t29 4q12 0 30 -5t18 -17l-4 -72q78 -4 138 -27t164 -43q2 -70 7 -179t13 -179q0 -6 -17 -11t-27 -5q-14 0 -28 4t-18 12q-34 136 -94 220t-146 108l-4 -68t-10 -146q-4 -70 -9 -142l-5 -72q58 -34 145 -87t139 -99zM726 1312
q-74 -10 -117 -58t-43 -114q0 -60 37 -107t99 -93zM900 244q0 64 -38 114t-98 94l-26 -394q92 14 127 62t35 124z" />
    <glyph glyph-name="colonmonetary.standard" unicode="&#x20a1;" horiz-adv-x="1586" 
d="M1474 480q-12 -92 -29 -229t-25 -207q-90 0 -223 -43t-285 -43q-20 0 -48 1t-60 3l-32 -96q-2 -4 -7 -5t-11 -1q-10 0 -38 9t-34 19v6l28 80q-44 10 -71 16t-65 20l-50 -144q-2 -4 -7 -5t-11 -1q-10 0 -39 10t-33 18l-2 6l15 41t37 109q-200 96 -300 267t-100 365
q0 292 229 514t615 222h14h14q16 46 28 80l12 34q0 4 6 6t12 2q20 0 43 -9t29 -21v-8l-32 -90q42 -4 79 -11t63 -11l48 142q0 4 6 6t12 2q20 0 43 -9t29 -21v-8l-44 -130q34 -6 61 -10t59 -4q4 -96 12 -216t16 -220q0 -6 -18 -11t-32 -5q-10 0 -23 4t-17 12q-12 66 -45 131
t-83 121l-60 -177t-130 -377q-66 -190 -129 -372l-63 -182q16 -2 35 -4t39 -2q184 0 300 128t174 298q2 6 17 11t25 5t28 -5t18 -11zM1144 1236q-30 24 -60 39t-66 27l-388 -1130q24 -28 53 -50t65 -38zM924 1316h-4q-234 0 -329 -180t-95 -460q0 -134 14 -222t54 -178
q70 204 176 508t184 532z" />
    <glyph glyph-name="cruzeiro.standard" unicode="&#x20a2;" horiz-adv-x="1614" 
d="M1512 424q-12 -88 -29 -211t-25 -185q-92 0 -226 -35t-290 -35q-204 0 -367 61t-271 159q-110 102 -166 231t-56 267q0 292 245 514t631 222q170 0 284 -22t206 -22q4 -82 15 -202t17 -194q0 -6 -18 -11t-32 -5q-10 0 -23 4t-17 12q-40 140 -170 242t-270 102
q-234 0 -345 -180t-111 -460q0 -208 63 -360t193 -218v444q0 74 -16 95t-84 29q-6 0 -10 14t-4 22t4 23t10 15q64 16 169 55t157 65q4 4 17 10t23 6q22 0 31 -8t9 -16l-8 -176q34 82 102 133t140 51q86 0 136 -45t50 -109t-37 -109t-95 -45q-34 0 -59 18t-43 40
q-18 20 -38 39t-42 19q-38 0 -61 -36t-45 -100v-464q130 32 223 128t145 228q2 6 17 11t25 5t28 -5t18 -11z" />
    <glyph glyph-name="florin.standard" unicode="&#x192;" horiz-adv-x="1222" 
d="M1260 1254q0 -70 -44 -119t-116 -49q-58 0 -85 35t-45 79t-39 80t-67 36q-96 0 -144 -97t-112 -379h216q12 0 15 -16t3 -32q0 -20 -11 -46t-23 -26l-226 8l-164 -690q-72 -298 -231 -449t-379 -151q-126 0 -222 69t-98 157q0 64 46 110t124 46q66 0 105 -41t63 -85
t50 -84t62 -40q46 2 74 65t48 175l192 894q2 8 -2 15t-18 7h-160q-8 0 -13 17t-5 23q0 10 8 25t16 15q124 16 168 31t48 33q66 236 253 416t441 180q104 2 188 -66t84 -146z" />
    <glyph glyph-name="franc.standard" unicode="&#x20a3;" horiz-adv-x="1488" 
d="M1396 918q0 -8 -18 -17t-36 -9q-8 0 -21 4t-15 8q-16 132 -110 250t-268 118h-120q-42 0 -80 -20t-38 -98v-406h100q102 0 162 60t72 158q0 6 15 11t29 5t29 -5t15 -11q0 -74 -6 -138t-6 -132q0 -70 6 -131t6 -133q0 -6 -15 -11t-29 -5t-29 5t-15 11q-14 104 -69 161
t-165 57h-100v-204h226q10 0 17 -23t7 -47q0 -22 -6 -46t-18 -24l-226 6v-66q0 -80 46 -118t162 -50q6 0 11 -17t5 -27q0 -12 -5 -28t-11 -16q-98 0 -206 5t-200 5t-191 -5t-197 -5q-6 0 -11 15t-5 29q0 10 5 26t11 18q116 14 153 50t37 118v66l-238 -6q-12 0 -19 24t-7 46
t7 46t19 24h238v678q0 82 -37 118t-153 50q-6 2 -11 18t-5 26q0 14 5 29t11 15q108 -2 308 -6t328 -4q114 0 314 3t322 7q0 -86 7 -227t13 -235z" />
    <glyph glyph-name="peseta.standard" unicode="&#x20a7;" horiz-adv-x="1574" 
d="M1630 950q0 -22 -6 -46t-18 -24l-178 6q-24 -166 -181 -263t-415 -97q-36 0 -73 5t-67 13v-296q0 -82 39 -120t153 -50q6 0 11 -17t5 -27q0 -12 -5 -28t-11 -16q-98 0 -198 6t-192 6t-192 -6t-198 -6q-6 0 -11 16t-5 28t5 27t11 17q114 14 153 50t39 120v640l-238 -8
q-12 0 -19 24t-7 46q0 24 7 48t17 24h240v134q0 66 -38 95t-154 43q-6 0 -11 16t-5 28t5 28t11 16q98 0 206 -6t200 -6t159 6t167 6q288 0 428 -97t162 -263h180q10 0 17 -24t7 -48zM1018 1022q-8 152 -63 206t-145 54q-62 0 -90 -29t-28 -97v-134h326zM1016 888h-324v-190
q0 -46 41 -60t55 -14q102 0 159 66t69 198z" />
    <glyph glyph-name="sterling.standard" unicode="&#xa3;" horiz-adv-x="1326" 
d="M1280 324q-44 -154 -155 -260t-285 -106q-106 0 -182 33t-122 73q-40 -44 -118 -75t-140 -31q-102 0 -171 47t-69 131q0 102 74 170t170 68q50 0 88 -8t88 -30q4 22 7 43t3 45q0 48 -12 95t-38 97l-282 -6q-12 0 -18 22t-6 44t5 43t19 21l220 -4q-44 46 -74 110t-30 130
q0 180 156 308t402 128q170 0 281 -110t111 -210t-46 -145t-112 -45q-68 0 -108 38t-40 106q0 44 28 67t28 81q0 46 -37 84t-97 38q-100 0 -152 -66t-52 -186q0 -84 48 -157t76 -173l278 6q12 2 19 -22t7 -42q0 -22 -7 -44t-19 -22l-252 6q4 -20 7 -42t3 -52q0 -52 -17 -121
t-59 -129q86 -22 152 -37t124 -15q76 0 126 35t102 111q2 6 19 2t27 -8q8 -4 21 -17t11 -19zM414 162q-34 28 -75 41t-85 13q-52 0 -82 -23t-30 -55q0 -40 25 -62t89 -22q58 0 96 27t62 81z" />
    <glyph glyph-name="rupiah.bar.standard" unicode="&#x20a8;" horiz-adv-x="2712" 
d="M2654 462q0 -206 -134 -356t-372 -150q-60 0 -101 10t-87 36v-276q0 -96 33 -128t119 -40q6 0 11 -17t5 -27q0 -12 -5 -28t-11 -16q-62 0 -157 5t-165 5t-157 -5t-147 -5q-6 0 -11 15t-5 29q0 10 5 26t11 18q88 10 111 39t23 129v262q-64 2 -139 7t-109 5q-48 0 -126 -6
t-126 -6l-252 514q-30 60 -73 82t-113 22v-362q0 -82 29 -119t145 -49q6 0 11 -15t5 -29t-5 -29t-11 -15q-98 0 -189 6t-183 6t-192 -6t-198 -6q-6 0 -11 16t-5 28t5 27t11 17q120 16 156 53t36 115v878q0 82 -37 119t-155 51q-6 0 -11 16t-5 28q0 10 5 27t11 17
q98 0 202 -6t196 -6t163 6t169 6q324 0 469 -108t145 -252q0 -134 -63 -216t-215 -128l276 -460q36 -62 75 -93t109 -41v474q0 84 -18 107t-92 31q-6 2 -11 17t-5 25t5 25t11 15q68 18 187 63t175 73q6 4 20 10t24 6q26 0 36 -9t10 -17l-10 -156q34 64 107 115t191 51
q188 0 296 -130t108 -320zM2266 166q16 48 21 118t5 162q0 162 -46 234t-120 72q-70 0 -97 -25t-69 -99v-424q0 -70 35 -111t113 -41q66 0 104 30t54 84zM1026 984q0 152 -58 224t-172 72q-72 0 -93 -28t-21 -98v-452q12 -2 34 -4t42 -2q142 0 205 64t63 224z" />
    <glyph glyph-name="yen.standard" unicode="&#xa5;" horiz-adv-x="1558" 
d="M1626 1338q0 -12 -8 -29t-14 -17q-82 -8 -141 -46t-119 -122l-238 -344h282q12 0 19 -18t7 -30q0 -14 -7 -32t-19 -18h-350l-46 -66v-86h396q12 0 19 -19t7 -29q0 -14 -7 -32t-19 -18h-396v-186q0 -82 29 -119t147 -49q6 0 11 -17t5 -27q0 -12 -5 -28t-11 -16
q-98 0 -190 6t-184 6t-191 -6t-197 -6q-6 0 -11 15t-5 29q0 10 5 26t11 18q116 14 153 50t37 118v186h-398q-12 0 -18 18t-6 32q0 12 7 30t17 18h398v82l-44 70h-354q-12 0 -18 18t-6 32t7 31t17 17h292l-218 344q-54 84 -109 120t-165 48q-6 2 -11 17t-5 29q0 10 5 27
t11 17q70 0 171 -6t179 -6q80 0 207 6t225 6q6 0 11 -17t5 -27t-5 -28t-11 -18q-72 -8 -102 -27t-30 -45q0 -20 12 -43t30 -53l254 -394l264 394q16 24 26 45t10 41q0 30 -28 51t-112 31q-6 2 -8 18t-2 28q0 10 5 27t11 17q86 0 142 -6t138 -6q62 0 114 6t106 6q6 0 11 -17
t5 -27z" />
    <glyph glyph-name="zero.proportional" horiz-adv-x="1310" 
d="M1224 682q0 -282 -148 -503t-422 -221q-270 0 -420 217t-150 507q0 280 148 501t422 221q272 0 421 -218t149 -504zM862 682q0 370 -40 498t-168 128q-126 0 -167 -134t-41 -492q0 -364 40 -496t168 -132q124 0 166 134t42 494z" />
    <glyph glyph-name="one.proportional" horiz-adv-x="936" 
d="M852 34q0 -12 -5 -28t-11 -16q-64 0 -168 5t-178 5q-70 0 -174 -5t-164 -5q-6 0 -11 15t-5 29q0 10 5 26t11 18q110 14 139 39t29 129v756q0 78 -21 126t-119 48q-10 0 -26 -2t-28 -2q-6 0 -10 16t-4 26t4 25t10 15q82 28 244 64t234 76q12 8 21 12t19 4q12 0 22 -12
t10 -20q-6 -60 -11 -157t-5 -175v-800q0 -96 37 -127t139 -41q6 0 11 -17t5 -27z" />
    <glyph glyph-name="two.proportional" horiz-adv-x="1218" 
d="M1102 404q-24 -70 -57 -197t-51 -219q-18 4 -62 6t-120 4q-82 2 -158 2h-126q-144 0 -276 -3t-162 -9q-8 0 -23 15t-15 23q0 2 2 6l2 4q284 272 467 482t183 410q0 112 -51 175t-151 63q-94 0 -157 -46t-119 -158q-4 -8 -25 -4t-31 12q-14 10 -22 23t-6 19
q44 156 166 273t296 117q188 0 312 -114t124 -274q0 -188 -148 -340t-448 -398h410q62 0 98 54t64 106q2 6 19 6t29 -6q10 -4 24 -15t12 -17z" />
    <glyph glyph-name="three.proportional" horiz-adv-x="1164" 
d="M1034 348q0 -218 -224 -372t-460 -154q-164 0 -248 50t-84 124q0 66 40 102t114 36q44 0 74 -26t60 -62t58 -62t76 -26q120 0 180 98t60 258q0 142 -44 214t-156 72q-52 0 -91 -13t-71 -25q-6 -2 -19 11t-21 27q-6 10 -8 30t4 24q164 68 238 166t74 204q0 90 -37 136
t-115 46q-70 0 -118 -31t-100 -93q-6 -4 -23 1t-25 13q-10 8 -18 21t-6 17q64 106 166 188t252 82q158 0 268 -89t110 -225q0 -142 -90 -235t-244 -135q228 0 328 -99t100 -273z" />
    <glyph glyph-name="four.proportional" horiz-adv-x="1224" 
d="M1146 432q0 -38 -6 -60t-18 -22h-178v-352q0 -18 -42 -29t-128 -11t-128 11t-42 29v352h-556q-8 0 -17 11t-9 33q0 6 5 19t9 19l772 942q14 18 38 27t58 9q26 0 41 -8t15 -22q-8 -66 -12 -165t-4 -169v-538h178q12 0 18 -19t6 -57zM604 508v458l-370 -458h370z" />
    <glyph glyph-name="five.proportional" horiz-adv-x="1126" 
d="M1006 366q0 -226 -180 -385t-438 -159q-164 0 -247 50t-83 124q0 66 39 102t113 36q48 0 78 -28t58 -60q30 -36 57 -62t77 -26q110 0 172 85t62 199q0 154 -115 259t-377 149q-20 6 -33 18t-13 34q0 6 3 17t3 17l166 610q4 10 12 17t24 7h420q34 0 60 25t42 75q4 8 21 9
t31 -1q10 -4 24 -14t14 -16l-70 -284q-20 -62 -45 -82t-77 -20h-420l-26 -94q-4 -10 -5 -18t-1 -14q0 -16 9 -25t25 -11q310 -44 465 -185t155 -349z" />
    <glyph glyph-name="six.proportional" horiz-adv-x="1238" 
d="M1176 430q0 -182 -142 -327t-396 -145q-252 0 -403 149t-151 395q0 162 79 316t211 292q124 128 293 236t347 180q6 2 17 -11t15 -23q4 -12 6 -29t-4 -19q-320 -180 -461 -411t-141 -603q0 -196 36 -286t156 -90q112 0 144 86t32 250q0 180 -23 251t-93 71q-28 0 -48 -5
t-38 -13q-6 -2 -20 6t-20 18q-8 10 -14 24t-2 20q26 42 85 69t129 27q198 0 302 -120t104 -308z" />
    <glyph glyph-name="seven.proportional" horiz-adv-x="1042" 
d="M1058 1342l-2 -8l-598 -1450q-8 -14 -37 -20t-57 -6q-22 0 -53 10t-27 22l540 1176h-490q-64 0 -99 -36t-59 -108q-2 -8 -15 -12t-27 -4q-12 0 -28 5t-18 11q18 98 35 234t21 226q18 -4 61 -7t117 -3q48 0 122 -1t152 -1q104 0 253 1t175 9q6 2 20 -14t14 -24z" />
    <glyph glyph-name="eight.proportional" horiz-adv-x="1152" 
d="M1074 352q0 -160 -149 -277t-355 -117q-222 0 -351 95t-129 245q0 136 73 217t223 143q-124 72 -184 159t-60 211q0 154 129 265t343 111q158 0 295 -88t137 -244q0 -120 -76 -184t-182 -118q156 -78 221 -192t65 -226zM794 1080q0 114 -47 171t-119 57q-82 0 -125 -44
t-43 -118q0 -100 58 -174t178 -142q50 32 74 89t24 161zM750 254q0 100 -78 189t-188 145q-68 -30 -99 -102t-31 -182q0 -130 59 -190t153 -60q90 0 137 50t47 150z" />
    <glyph glyph-name="nine.proportional" horiz-adv-x="1240" 
d="M1160 812q0 -172 -79 -321t-203 -265t-286 -213t-340 -165q-6 -2 -16 11t-16 23t-7 27t5 21q334 190 457 382t123 580q0 226 -37 321t-139 95q-104 0 -140 -87t-36 -249q0 -178 25 -244t99 -66q24 0 44 7t36 15q4 4 19 -6t21 -18l12 -24t2 -20q-34 -46 -86 -67t-136 -21
q-190 0 -290 108t-100 296q0 182 139 327t391 145q236 0 387 -149t151 -443z" />
    <glyph glyph-name="zero.standard" horiz-adv-x="1220" 
d="M1116 680q0 -280 -133 -501t-373 -221q-242 0 -374 221t-132 501t131 502t375 222q240 0 373 -222t133 -502zM732 164q20 78 25 211t5 305q0 436 -27 532t-125 96q-52 0 -77 -18t-45 -94q-14 -56 -22 -201t-8 -315q0 -436 27 -531t125 -95q46 0 76 22t46 88z" />
    <glyph glyph-name="one.standard" horiz-adv-x="1220" 
d="M1076 32q0 -12 -5 -28t-11 -16q-74 0 -213 6t-221 6q-78 0 -222 -6t-212 -6q-6 0 -11 15t-5 29t5 29t11 15q166 10 215 40t49 122v746q0 96 -30 137t-108 41q-20 0 -42 -2t-54 -6q-6 0 -11 16t-5 26t5 26t11 16q112 24 257 69t243 87q12 6 30 11t28 5q12 0 22 -12t10 -20
q-6 -62 -11 -158t-5 -174v-808q0 -90 51 -122t213 -40q6 0 11 -8t5 -36z" />
    <glyph glyph-name="two.standard" horiz-adv-x="1220" 
d="M1082 404q-24 -76 -56 -200t-50 -216q-18 4 -60 6t-114 4q-78 2 -152 2h-124q-144 0 -276 -3t-162 -9q-8 0 -23 15t-15 23q0 2 2 5t2 5q284 272 467 482t183 410q0 112 -51 175t-151 63q-104 0 -162 -47t-114 -157q-4 -8 -25 -4t-31 12q-14 10 -22 23t-6 19
q44 156 166 273t296 117q188 0 312 -114t124 -274q0 -186 -146 -338t-450 -400h394q62 0 98 55t62 105q2 6 21 5t29 -5t24 -15t10 -17z" />
    <glyph glyph-name="three.standard" horiz-adv-x="1220" 
d="M1080 348q0 -220 -220 -373t-456 -153q-166 0 -248 50t-82 122q0 66 39 102t113 36q42 0 74 -27t62 -61t57 -60t77 -26q118 0 178 97t60 257q0 142 -44 215t-156 73q-50 0 -97 -17t-79 -31q-8 -2 -21 11t-21 27q-6 14 -7 32t5 22q158 66 242 171t84 207q0 90 -36 137
t-114 47q-72 0 -130 -41t-106 -99q-4 -6 -21 -1t-27 13t-17 21t-5 19q64 108 173 196t261 88q156 0 262 -89t106 -225q0 -142 -85 -233t-241 -137q228 0 324 -98t96 -272z" />
    <glyph glyph-name="four.standard" horiz-adv-x="1220" 
d="M1140 432q0 -40 -7 -62t-19 -22h-176v-350q0 -20 -36 -31t-134 -11q-100 0 -135 13t-35 29v350h-558q-8 0 -16 12t-8 34q0 6 5 19t7 19l774 942q14 16 38 26t58 10q24 0 40 -8t16 -24q-8 -66 -12 -164t-4 -168v-540h178q10 0 17 -17t7 -57zM598 506v458l-370 -458h370z
" />
    <glyph glyph-name="five.standard" horiz-adv-x="1220" 
d="M1038 364q0 -224 -179 -383t-437 -159q-168 0 -250 50t-82 122q0 66 40 102t114 36q44 0 74 -26t60 -62q32 -36 59 -61t75 -25q110 0 172 84t62 198q0 156 -115 261t-377 149q-20 4 -33 16t-13 34q0 6 3 17t5 17l166 610q4 12 12 18t22 6h422q32 0 59 28t43 74q2 8 21 9
t29 -3q12 -4 26 -14t12 -16l-70 -282q-20 -62 -44 -83t-78 -21h-420l-24 -94q-4 -10 -5 -18t-1 -14q0 -16 9 -25t23 -9q314 -46 467 -187t153 -349z" />
    <glyph glyph-name="six.standard" horiz-adv-x="1220" 
d="M1124 430q0 -180 -136 -326t-354 -146q-238 0 -384 149t-146 395q0 156 74 311t204 295q124 134 289 240t337 176q6 4 17 -10t15 -24q6 -10 8 -28t-4 -18q-320 -180 -457 -411t-137 -603q0 -196 32 -287t152 -91q96 0 124 87t28 251q0 180 -19 250t-73 70q-34 0 -53 -5
t-35 -13q-6 -2 -19 7t-21 19t-13 24t-3 20q28 40 86 67t130 27q164 0 261 -120t97 -306z" />
    <glyph glyph-name="seven.standard" horiz-adv-x="1220" 
d="M1152 1342q0 -2 -1 -6l-1 -4l-638 -1450q-8 -12 -37 -19t-57 -7q-24 0 -55 9t-25 23l580 1176h-522q-64 0 -99 -36t-59 -108q-2 -8 -15 -12t-27 -4t-29 6t-17 12q18 98 35 233t21 225q18 -4 64 -7t122 -3q50 0 127 -1t155 -1q104 0 261 2t183 10q6 2 20 -14t14 -24z" />
    <glyph glyph-name="eight.standard" horiz-adv-x="1220" 
d="M1092 350q0 -160 -141 -276t-347 -116q-222 0 -343 95t-121 245q0 136 69 220t219 146q-122 72 -179 155t-57 207q0 156 122 266t336 110q156 0 285 -87t129 -245q0 -118 -72 -186t-178 -122q154 -78 216 -188t62 -224zM838 1080q0 114 -52 170t-122 56q-82 0 -126 -47
t-44 -123q0 -100 55 -172t173 -144q54 36 85 93t31 167zM784 262q0 98 -74 187t-184 145q-68 -30 -107 -106t-39 -186q0 -130 63 -189t157 -59q88 0 136 54t48 154z" />
    <glyph glyph-name="nine.standard" horiz-adv-x="1220" 
d="M1124 810q0 -160 -72 -311t-198 -273q-120 -118 -278 -215t-336 -165q-6 0 -16 11t-16 25q-6 10 -7 26t5 20q334 190 453 383t119 579q0 226 -33 321t-135 95q-104 0 -136 -87t-32 -249q0 -180 23 -245t93 -65q26 0 45 7t35 15q4 4 19 -6t21 -18q4 -8 11 -24t3 -20
q-34 -44 -86 -65t-136 -21q-164 0 -265 110t-101 292t135 327t371 145q222 0 368 -149t146 -443z" />
    <glyph glyph-name="zero.oldstyle" horiz-adv-x="1080" 
d="M1022 450q0 -206 -127 -349t-355 -143t-355 143t-127 349t127 354t355 148t355 -148t127 -354zM638 124q16 42 23 118t7 208q0 272 -31 339t-97 67q-72 0 -100 -66t-28 -340q0 -272 31 -334t97 -62q34 0 59 14t39 56z" />
    <glyph glyph-name="one.oldstyle" horiz-adv-x="1080" 
d="M958 30q0 -10 -5 -27t-11 -17q-74 0 -197 6t-205 6q-76 0 -205 -6t-195 -6q-6 0 -11 17t-5 27q0 14 5 29t11 15q154 8 192 37t38 117v452q0 88 -37 117t-193 37q-6 0 -11 15t-5 29t5 29t11 15q74 0 196 -6t204 -6q76 0 206 6t196 6q6 0 11 -16t5 -28t-5 -28t-11 -16
q-154 -6 -193 -36t-39 -118v-452q0 -88 38 -118t194 -36q6 0 11 -16t5 -28z" />
    <glyph glyph-name="two.oldstyle" horiz-adv-x="1080" 
d="M1010 320q-28 -52 -74 -160t-70 -174q-36 8 -120 10t-228 2q-126 0 -252 -2t-166 -8q-8 -2 -15 12t-7 28q0 6 1 12t5 10q268 192 377 299t109 223q0 70 -37 113t-125 43q-76 0 -127 -40t-99 -94q-6 -4 -23 1t-25 13q-10 8 -18 21t-6 19q88 138 196 221t264 83
q154 0 244 -85t90 -205q0 -126 -109 -234t-353 -208l308 8q66 4 102 34t76 90q2 6 20 6t30 -6q8 -4 22 -15t10 -17z" />
    <glyph glyph-name="three.oldstyle" horiz-adv-x="1080" 
d="M968 30q0 -192 -193 -336t-435 -144q-130 0 -205 45t-75 121q0 60 44 99t108 39q52 0 80 -33t44 -69q16 -38 34 -70t48 -32q102 0 155 90t53 268q0 94 -36 163t-130 69q-52 0 -97 -22t-73 -38q-6 -2 -19 8t-21 24q-6 10 -8 26t4 20q130 64 217 169t87 185q0 64 -32 104
t-98 40q-64 0 -112 -33t-96 -87q-6 -4 -23 1t-25 13q-10 8 -18 21t-6 19q86 120 197 191t233 71q142 0 230 -86t88 -192q0 -116 -74 -190t-220 -124q190 0 282 -97t92 -233z" />
    <glyph glyph-name="four.oldstyle" horiz-adv-x="1080" 
d="M1092 70q0 -28 -6 -50t-20 -22h-218v-408q0 -18 -42 -29t-128 -11t-128 11t-42 29v408h-462q-10 0 -17 14t-7 28q0 6 2 12t4 10l734 866q6 10 18 14t26 4q22 0 40 -9t18 -21q-6 -78 -11 -176t-5 -160v-440h220q10 0 17 -24t7 -46zM508 140v326l-272 -326h272z" />
    <glyph glyph-name="five.oldstyle" horiz-adv-x="1080" 
d="M1002 994l-52 -142q-50 -128 -82 -168t-112 -40h-414l-22 -62q-12 -34 -4 -50t32 -16q282 -22 429 -142t147 -284q0 -234 -226 -387t-592 -153q-6 0 -11 16t-5 28q0 10 5 27t11 17q234 0 364 90t130 264q0 120 -102 184t-316 78q-22 2 -33 16t-11 38q0 6 2 15t2 17
l178 562q2 8 10 15t26 9l438 16q40 2 72 22t50 52q4 10 23 10t29 -2q16 -6 26 -15t8 -15z" />
    <glyph glyph-name="six.oldstyle" horiz-adv-x="1080" 
d="M1026 1326q2 -10 3 -28t-5 -20q-294 -110 -453 -307t-159 -549q0 -180 25 -274t111 -94q78 0 107 90t29 246q0 150 -9 223t-73 73q-10 0 -20 -5t-16 -7q-6 0 -19 8t-21 18t-13 24t-3 20q30 36 79 59t115 23q132 0 225 -103t93 -283q0 -208 -119 -345t-355 -137
q-228 0 -353 143t-125 373q0 294 256 537t672 353q6 2 16 -13t12 -25z" />
    <glyph glyph-name="seven.oldstyle" horiz-adv-x="1080" 
d="M1072 894q0 -4 -2 -10t-4 -10l-670 -1298q-8 -14 -34 -20t-56 -6q-24 0 -52 9t-24 23l590 1006h-458q-56 0 -96 -41t-70 -135q-4 -6 -17 -11t-27 -5q-12 0 -28 6t-16 12q22 94 46 257t32 267q36 -8 141 -11t255 -3q114 0 276 3t190 9q8 2 16 -13t8 -29z" />
    <glyph glyph-name="eight.oldstyle" horiz-adv-x="1080" 
d="M1008 362q0 -166 -140 -285t-360 -119q-192 0 -309 92t-117 230q0 114 81 199t201 141q-120 76 -179 168t-59 186q0 162 127 276t339 114q170 0 275 -87t105 -221q0 -98 -69 -168t-175 -120q142 -84 211 -184t69 -222zM796 1060q0 100 -56 153t-128 53q-76 0 -121 -39
t-45 -123q0 -72 42 -132t168 -142q72 48 106 99t34 131zM674 240q0 106 -74 182t-166 136q-84 -46 -124 -115t-40 -171t70 -160t164 -58q78 0 124 50t46 136z" />
    <glyph glyph-name="nine.oldstyle" horiz-adv-x="1080" 
d="M1030 436q0 -296 -257 -539t-671 -349q-6 -2 -15 12t-13 24t-4 27t6 21q304 118 461 305t157 551q0 174 -29 271t-113 97q-78 0 -107 -90t-29 -246q0 -130 17 -188t65 -58q8 0 15 2t11 4q6 4 20 -6t20 -18q8 -12 13 -27t1 -19q-32 -36 -65 -57t-103 -21q-130 0 -231 88
t-101 266q0 190 120 328t354 138q228 0 353 -143t125 -373z" />
    <glyph glyph-name="zero.fractiondiasuperior" horiz-adv-x="904" 
d="M834 978q0 -170 -100 -302t-282 -132q-180 0 -281 131t-101 303q0 170 100 302t282 132q180 0 281 -131t101 -303zM568 978q0 188 -24 271t-92 83t-92 -75t-24 -279q0 -188 24 -271t92 -83t92 75t24 279z" />
    <glyph glyph-name="one.fractiondiasuperior" horiz-adv-x="632" 
d="M604 589q0 -12 -5 -28t-11 -16q-50 0 -126 3t-130 3q-50 0 -129 -3t-123 -3q-6 0 -11 15t-5 29t4 28t12 16q70 6 100 23t30 77v384q0 60 -14 82t-82 22q-6 0 -17 -1t-17 -1t-11 13t-5 27t4 28t12 16q66 18 167 36t161 48q8 4 19 7t17 3t13 -6t7 -16q0 -36 -6 -94t-6 -102
v-446q0 -58 34 -77t102 -23q8 0 12 -16t4 -28z" />
    <glyph glyph-name="two.fractiondiasuperior" horiz-adv-x="786" 
d="M736 802l-2 -8q-16 -26 -52 -108t-52 -124q-30 6 -110 7t-178 1t-189 -1t-117 -5q-6 0 -15 22t-9 28q0 2 1 5l1 3q210 170 301 278t91 230q0 56 -28 90t-76 34q-56 0 -94 -23t-76 -89q-2 -2 -6 -4t-6 -2q-10 0 -37 20t-27 26l2 6q46 106 124 165t180 59q138 0 217 -71
t79 -185q0 -104 -88 -200t-292 -218h270q42 0 72 33t48 69q0 2 5 4t11 2q18 0 35 -14t17 -30z" />
    <glyph glyph-name="three.fractiondiasuperior" horiz-adv-x="732" 
d="M670 818q0 -128 -134 -241t-306 -113q-130 0 -176 45t-46 85q0 38 23 68t75 30q28 0 47 -22t31 -44q16 -26 33 -45t53 -19q88 0 126 46t38 154q0 70 -28 114t-106 44q-34 0 -54 -4t-34 -10q-6 0 -15 9t-15 23q-6 12 -7 26t3 18q114 44 150 86t36 118q0 50 -21 75t-63 25
q-38 0 -65 -15t-59 -63q-4 -6 -19 -2t-27 14t-20 22t-6 16q44 68 111 111t163 43q108 0 179 -55t71 -135q0 -58 -49 -110t-163 -90q124 8 199 -51t75 -153z" />
    <glyph glyph-name="four.fractiondiasuperior" horiz-adv-x="774" 
d="M736 797q0 -14 -4 -34t-18 -20h-104v-174q0 -10 -28 -17t-92 -7t-93 7t-29 17v174h-338q-8 0 -16 8t-8 20q0 6 2 10t6 10l490 610q8 10 29 19t41 9q26 0 37 -9t11 -17q-6 -38 -9 -104t-3 -112v-336h104q14 0 18 -22t4 -32zM368 851v262l-198 -262h198z" />
    <glyph glyph-name="five.fractiondiasuperior" horiz-adv-x="698" 
d="M644 1433l-36 -140q-14 -50 -40 -67t-74 -17h-232l-16 -58q-4 -6 -4 -11v-7q0 -10 6 -16t16 -6q192 -18 282 -107t90 -209q0 -124 -113 -227t-287 -103q-130 0 -176 45t-46 85q0 38 23 68t75 30q30 0 50 -23t32 -43t37 -42t53 -22q76 0 102 50t26 130q0 88 -64 139
t-230 73q-18 2 -25 11t-7 19q0 4 3 11t3 9l116 368q0 10 7 15t17 5h274q24 0 40 10t28 38q4 10 11 12t15 2q16 0 31 -8t13 -14z" />
    <glyph glyph-name="six.fractiondiasuperior" horiz-adv-x="804" 
d="M762 833q0 -126 -93 -207t-257 -81q-158 0 -254 90t-96 238q0 190 189 361t417 251q6 4 19 -10t17 -24q4 -8 8 -27t-2 -21q-218 -106 -309 -225t-91 -341q0 -128 28 -170t86 -42q48 0 71 32t23 192q0 76 -20 110t-46 34q-14 0 -23 -4t-19 -8q-4 -2 -12 6t-18 20
q-8 12 -8 24t4 16q16 18 52 30t90 12q108 0 176 -75t68 -181z" />
    <glyph glyph-name="seven.fractiondiasuperior" horiz-adv-x="702" 
d="M694 1365v-6t-2 -6l-396 -854q-4 -8 -24 -15t-52 -7q-28 0 -44 9t-14 17l356 682h-300q-38 0 -47 -29t-25 -63q-4 -8 -17 -12t-31 -4t-29 5t-11 11q16 66 31 160t23 144q10 -2 40 -4t70 -2h87h89q78 0 162 1t102 5q6 2 19 -12t13 -20z" />
    <glyph glyph-name="eight.fractiondiasuperior" horiz-adv-x="764" 
d="M718 788q0 -92 -85 -168t-253 -76q-166 0 -242 64t-76 142q0 70 42 127t128 89q-76 40 -109 93t-33 107q0 102 87 174t225 72q130 0 213 -60t83 -136q0 -60 -39 -106t-127 -74q90 -36 138 -105t48 -143zM512 1210q0 68 -28 95t-76 27q-44 0 -70 -24t-26 -68q0 -46 28 -84
t108 -74q22 18 43 47t21 81zM492 734q0 58 -49 107t-129 83q-24 -10 -47 -57t-23 -97q0 -80 41 -113t101 -33t83 34t23 76z" />
    <glyph glyph-name="nine.fractiondiasuperior" horiz-adv-x="810" 
d="M756 1082q0 -194 -167 -359t-441 -251q-6 -2 -17 9t-19 25q-4 8 -8 26t2 22q236 106 318 221t82 345q0 134 -24 173t-80 39q-50 0 -78 -30t-28 -190q0 -72 17 -104t43 -32q12 0 21 1t21 11l4 -1t8 -3l10 -10t8 -10q6 -10 8 -24t-4 -18q-18 -18 -51 -30t-91 -12
q-106 0 -170 69t-64 175q0 112 92 200t260 88q158 0 253 -91t95 -239z" />
    <glyph glyph-name="parenleft.fractiondiasuperior" horiz-adv-x="536" 
d="M536 490q5 -5 0.5 -20.5t-8.5 -21.5q-4 -8 -16 -19t-16 -9q-196 92 -296 244t-100 318t99 317t297 245q5 2 16.5 -8t15.5 -20q2 -6 7.5 -20.5t0.5 -19.5q-80 -86 -131 -217t-51 -277q0 -148 50 -275t132 -217z" />
    <glyph glyph-name="period.fractiondiasuperior" horiz-adv-x="436" 
d="M336 666q0 -48 -35 -83t-83 -35t-83 35t-35 83t35 83t83 35t83 -35t35 -83z" />
    <glyph glyph-name="comma.fractiondiasuperior" horiz-adv-x="436" 
d="M344 620q0 -100 -54 -176t-142 -124q-4 -2 -13 4t-13 12t-8.5 17t-1.5 13q38 24 73 62t35 94q0 14 -1 21t-7 7q-4 0 -9 -1t-11 -1q-36 0 -66 28t-30 80q0 48 33 88t85 40q58 0 94 -46t36 -118z" />
    <glyph glyph-name="plus.fractiondiasuperior" horiz-adv-x="788" 
d="M724 980q0 -28 -6 -49t-20 -21h-234v-234q0 -12 -25 -19t-45 -7q-22 0 -47 7t-25 19v234h-234q-12 0 -18 24t-6 46t6 47t18 25h234v234q0 12 26 19t46 7q22 0 46 -7t24 -19v-234h236q10 0 17 -24t7 -48z" />
    <glyph glyph-name="minus.fractiondiasuperior" horiz-adv-x="742" 
d="M678 980q0 -22 -7 -46t-19 -24h-562q-12 0 -19 25t-7 45q0 22 7 47t19 25h562q12 0 19 -26t7 -46z" />
    <glyph glyph-name="parenright.fractiondiasuperior" horiz-adv-x="536" 
d="M436 982q0 -158 -103 -316t-293 -246q-4 -2 -16 9t-16 19q-4 6 -9 20.5t1 21.5q82 92 132 218t50 274q0 146 -48 272t-134 222q-5 6 0.5 20t7.5 20q4 10 16 20t16 8q198 -92 297 -246t99 -316z" />
    <glyph glyph-name="zero.fractiondiainferior" horiz-adv-x="904" 
d="M834 408q0 -170 -100 -302t-282 -132q-180 0 -281 131t-101 303q0 170 100 302t282 132q180 0 281 -131t101 -303zM568 408q0 188 -24 271t-92 83t-92 -75t-24 -279q0 -188 24 -271t92 -83t92 75t24 279z" />
    <glyph glyph-name="one.fractiondiainferior" horiz-adv-x="632" 
d="M604 38q0 -12 -5 -28t-11 -16q-50 0 -126 3t-130 3q-50 0 -129 -3t-123 -3q-6 0 -11 15t-5 29t4 28t12 16q70 6 100 23t30 77v384q0 60 -14 82t-82 22q-6 0 -17 -1t-17 -1t-11 13t-5 27t4 28t12 16q66 18 167 36t161 48q8 4 19 7t17 3t13 -6t7 -16q0 -36 -6 -94t-6 -102
v-446q0 -58 34 -77t102 -23q8 0 12 -16t4 -28z" />
    <glyph glyph-name="two.fractiondiainferior" horiz-adv-x="786" 
d="M736 232l-2 -8q-16 -26 -52 -108t-52 -124q-30 6 -110 7t-178 1t-189 -1t-117 -5q-6 0 -15 22t-9 28q0 2 1 5l1 3q210 170 301 278t91 230q0 56 -28 90t-76 34q-56 0 -94 -23t-76 -89q-2 -2 -6 -4t-6 -2q-10 0 -37 20t-27 26l2 6q46 106 124 165t180 59q138 0 217 -71
t79 -185q0 -104 -88 -200t-292 -218h270q42 0 72 33t48 69q0 2 5 4t11 2q18 0 35 -14t17 -30z" />
    </font>
</defs>
</svg>
